<svg width="78" height="79" viewBox="0 0 78 79" fill="none" xmlns="http://www.w3.org/2000/svg">
<path d="M39 3.74988C31.9293 3.74988 25.0174 5.84658 19.1384 9.77484C13.2593 13.7031 8.67716 19.2865 5.97132 25.8189C3.26549 32.3514 2.55752 39.5395 3.93694 46.4744C5.31636 53.4092 8.72122 59.7792 13.7209 64.7789C18.7207 69.7787 25.0907 73.1835 32.0255 74.5629C38.9604 75.9424 46.1485 75.2344 52.6809 72.5286C59.2134 69.8227 64.7968 65.2406 68.725 59.3615C72.6533 53.4825 74.75 46.5706 74.75 39.4999C74.7715 34.7991 73.8615 30.1406 72.0725 25.7935C70.2835 21.4464 67.651 17.4968 64.327 14.1728C61.0031 10.8489 57.0535 8.21636 52.7064 6.42737C48.3592 4.63838 43.7008 3.72837 39 3.74988ZM56.3875 24.3874L45.5 45.9999L23.8875 56.8874C23.5703 56.9975 23.2285 57.0161 22.9013 56.941C22.574 56.8659 22.2745 56.7002 22.0371 56.4628C21.7997 56.2253 21.634 55.9259 21.5589 55.5986C21.4838 55.2713 21.5024 54.9296 21.6125 54.6124L32.5 32.9999L54.1125 22.1124C54.4297 22.0022 54.7715 21.9836 55.0987 22.0587C55.426 22.1338 55.7255 22.2996 55.9629 22.537C56.2003 22.7744 56.3661 23.0739 56.4412 23.4012C56.5163 23.7284 56.4977 24.0702 56.3875 24.3874ZM39 36.2499C38.3572 36.2499 37.7289 36.4405 37.1944 36.7976C36.6599 37.1547 36.2434 37.6623 35.9974 38.2562C35.7514 38.85 35.6871 39.5035 35.8125 40.1339C35.9379 40.7644 36.2474 41.3435 36.7019 41.798C37.1564 42.2525 37.7355 42.562 38.366 42.6874C38.9964 42.8128 39.6499 42.7485 40.2437 42.5025C40.8376 42.2565 41.3452 41.8399 41.7023 41.3055C42.0594 40.771 42.25 40.1427 42.25 39.4999C42.25 38.6379 41.9076 37.8113 41.2981 37.2018C40.6886 36.5923 39.862 36.2499 39 36.2499Z" fill="white"/>
<path d="M39 36.25C38.3572 36.25 37.7289 36.4406 37.1944 36.7977C36.6599 37.1548 36.2434 37.6624 35.9974 38.2563C35.7514 38.8501 35.687 39.5036 35.8124 40.134C35.9379 40.7645 36.2474 41.3436 36.7019 41.7981C37.1564 42.2526 37.7355 42.5622 38.366 42.6876C38.9964 42.813 39.6499 42.7486 40.2437 42.5026C40.8376 42.2566 41.3452 41.8401 41.7023 41.3056C42.0594 40.7711 42.25 40.1428 42.25 39.5C42.25 38.638 41.9076 37.8114 41.2981 37.2019C40.6886 36.5924 39.862 36.25 39 36.25ZM39 36.25C38.3572 36.25 37.7289 36.4406 37.1944 36.7977C36.6599 37.1548 36.2434 37.6624 35.9974 38.2563C35.7514 38.8501 35.687 39.5036 35.8124 40.134C35.9379 40.7645 36.2474 41.3436 36.7019 41.7981C37.1564 42.2526 37.7355 42.5622 38.366 42.6876C38.9964 42.813 39.6499 42.7486 40.2437 42.5026C40.8376 42.2566 41.3452 41.8401 41.7023 41.3056C42.0594 40.7711 42.25 40.1428 42.25 39.5C42.25 38.638 41.9076 37.8114 41.2981 37.2019C40.6886 36.5924 39.862 36.25 39 36.25Z" fill="white"/>
</svg>
