<svg width="78" height="79" viewBox="0 0 78 79" fill="none" xmlns="http://www.w3.org/2000/svg">
<path d="M14.1701 67.4177H4.87509V36.4127C4.87078 35.5963 5.0284 34.7871 5.33883 34.0321C5.64926 33.277 6.10634 32.591 6.68362 32.0137C7.26089 31.4364 7.94692 30.9793 8.70199 30.6689C9.45706 30.3585 10.2662 30.2009 11.0826 30.2052H62.4326C63.7208 30.2187 64.9729 30.6326 66.0153 31.3897C67.0577 32.1467 67.8387 33.2093 68.2501 34.4302L73.0276 48.7952V67.4177H63.8301" stroke="white" stroke-width="4" stroke-miterlimit="10"/>
<path d="M51.415 67.4175H26.585" stroke="white" stroke-width="4" stroke-miterlimit="10"/>
<path d="M20.3774 73.625C23.8057 73.625 26.5849 70.8458 26.5849 67.4175C26.5849 63.9892 23.8057 61.21 20.3774 61.21C16.9491 61.21 14.1699 63.9892 14.1699 67.4175C14.1699 70.8458 16.9491 73.625 20.3774 73.625Z" stroke="white" stroke-width="4" stroke-miterlimit="10"/>
<path d="M57.6225 73.625C61.0508 73.625 63.83 70.8458 63.83 67.4175C63.83 63.9892 61.0508 61.21 57.6225 61.21C54.1942 61.21 51.415 63.9892 51.415 67.4175C51.415 70.8458 54.1942 73.625 57.6225 73.625Z" stroke="white" stroke-width="4" stroke-miterlimit="10"/>
<path d="M73.1249 48.7949H14.1699" stroke="white" stroke-width="4" stroke-miterlimit="10"/>
<path d="M39 39.5V48.795" stroke="white" stroke-width="4" stroke-miterlimit="10"/>
<path d="M54.5024 39.5V48.795" stroke="white" stroke-width="4" stroke-miterlimit="10"/>
<path d="M23.4976 39.5V48.795" stroke="white" stroke-width="4" stroke-miterlimit="10"/>
<path d="M19.8575 5.375H52C54.3273 5.375 56.5593 6.29951 58.2049 7.94514C59.8505 9.59077 60.775 11.8227 60.775 14.15V17.79H11.0825V14.15C11.0825 11.8227 12.007 9.59077 13.6527 7.94514C15.2983 6.29951 17.5302 5.375 19.8575 5.375Z" stroke="white" stroke-width="4" stroke-miterlimit="10"/>
<path d="M23.4976 5.375V17.79" stroke="white" stroke-width="4" stroke-miterlimit="10"/>
<path d="M35.9126 5.375V17.79" stroke="white" stroke-width="4" stroke-miterlimit="10"/>
<path d="M48.2949 5.375V17.79" stroke="white" stroke-width="4" stroke-miterlimit="10"/>
<path d="M4.875 17.79H66.9175" stroke="white" stroke-width="4" stroke-miterlimit="10"/>
<path d="M14.1699 30.205V17.79" stroke="white" stroke-width="4" stroke-miterlimit="10"/>
<path d="M57.6226 30.205V17.79" stroke="white" stroke-width="4" stroke-miterlimit="10"/>
</svg>
