<svg width="70" height="79" viewBox="0 0 70 79" fill="none" xmlns="http://www.w3.org/2000/svg">
<path d="M16.4841 38.0052C14.9098 36.4309 12.5171 36.1637 10.6633 37.2013V20.9911C10.6633 20.1678 10.4572 19.3919 10.0947 18.7113C10.313 18.6464 10.5412 18.6124 10.774 18.6124C12.0856 18.6124 13.1527 19.6793 13.1527 20.9911V32.9581C13.1527 33.6455 13.71 34.2028 14.3973 34.2028C15.0847 34.2028 15.642 33.6455 15.642 32.9581V20.9911C15.642 18.3069 13.4582 16.123 10.774 16.123C9.88613 16.123 9.03012 16.3629 8.28298 16.8089C7.55442 16.374 6.70373 16.123 5.79528 16.123C3.11108 16.123 0.927246 18.3067 0.927246 20.9921L0.947493 43.8351C0.948323 44.8775 1.33434 46.349 1.84516 47.258C1.85345 47.2729 1.86225 47.2875 1.87121 47.3021L16.2089 70.5197C16.5067 71.0626 16.775 72.0954 16.775 72.7041V77.2555C16.775 77.9429 17.3323 78.5001 18.0197 78.5001C18.7071 78.5001 19.2644 77.9429 19.2644 77.2555V72.7041C19.2644 71.6614 18.879 70.1893 18.368 69.2802C18.3596 69.2653 18.351 69.2507 18.342 69.2361L4.00443 46.0186C3.70654 45.4754 3.43752 44.4422 3.43702 43.8331L3.41677 20.9912C3.41677 19.6797 4.48388 18.6126 5.79544 18.6126C7.107 18.6126 8.17411 19.6795 8.17411 20.9912V41.4475C8.17411 41.4767 8.17643 41.5054 8.17843 41.5341C8.19983 42.7516 8.67281 43.9626 9.59985 44.8896L20.7484 56.038C21.2345 56.5241 22.0226 56.5241 22.5085 56.038C22.9946 55.5519 22.9946 54.7639 22.5085 54.2778L11.36 43.1295C10.4326 42.2021 10.4326 40.693 11.36 39.7657C12.2874 38.8383 13.7964 38.8383 14.724 39.7657L28.4413 53.4831C29.9725 55.0142 31.2661 58.1372 31.2661 60.3026V77.2555C31.2661 77.9429 31.8234 78.5001 32.5108 78.5001C33.1982 78.5001 33.7555 77.9429 33.7555 77.2555V60.3024C33.7555 57.4841 32.1945 53.7154 30.2015 51.7226L16.4841 38.0052Z" fill="white"/>
<path d="M64.2043 16.123C63.2959 16.123 62.4452 16.3738 61.7166 16.8089C60.9696 16.3629 60.1135 16.123 59.2256 16.123C56.5414 16.123 54.3576 18.3067 54.3576 20.9911V32.9581C54.3576 33.6455 54.9149 34.2028 55.6022 34.2028C56.2896 34.2028 56.8469 33.6455 56.8469 32.9581V20.9911C56.8469 19.6795 57.914 18.6124 59.2256 18.6124C59.4584 18.6124 59.6868 18.6464 59.9049 18.7113C59.5426 19.3919 59.3363 20.1678 59.3363 20.9911V37.2013C57.4827 36.1639 55.0899 36.4309 53.5155 38.0054L39.7981 51.7227C37.8053 53.7156 36.2441 57.4843 36.2441 60.3026V77.2553C36.2441 77.9427 36.8014 78.5 37.4888 78.5C38.1762 78.5 38.7335 77.9427 38.7335 77.2553V60.3022C38.7335 58.1368 40.0271 55.0138 41.5583 53.4827L55.2756 39.7653C56.203 38.838 57.7121 38.838 58.6396 39.7653C59.567 40.6927 59.567 42.2018 58.6396 43.1293L47.4911 54.2777C47.005 54.7637 47.005 55.5517 47.4911 56.0378C47.9772 56.5239 48.7653 56.5239 49.2512 56.0378L60.3997 44.8894C61.3268 43.9624 61.7996 42.7514 61.8212 41.534C61.8232 41.5052 61.8255 41.4765 61.8255 41.4473V20.9909C61.8255 19.6793 62.8926 18.6122 64.2042 18.6122C65.5157 18.6122 66.5828 19.6792 66.5828 20.9897L66.5626 43.8328C66.5621 44.4419 66.2929 45.4751 65.9952 46.0183L51.6576 69.2359C51.6486 69.2503 51.64 69.2651 51.6315 69.28C51.1206 70.1892 50.7352 71.6612 50.7352 72.7039V77.2553C50.7352 77.9427 51.2925 78.5 51.9799 78.5C52.6673 78.5 53.2246 77.9427 53.2246 77.2553V72.7039C53.2246 72.0952 53.4929 71.0626 53.7907 70.5196L68.1284 47.302C68.1373 47.2875 68.146 47.2728 68.1544 47.2578C68.6653 46.3489 69.0513 44.8775 69.0521 43.835L69.0723 20.9909C69.0722 18.3067 66.8883 16.123 64.2043 16.123Z" fill="white"/>
<path d="M40.1011 33.9097C44.4014 32.5623 47.9754 29.558 50.0731 25.6484C50.1184 25.5797 50.1569 25.5071 50.1878 25.4315C51.4048 23.0823 52.0935 20.417 52.0935 17.5936C52.0935 14.8852 51.4592 12.3225 50.3332 10.0444C50.3079 9.98065 50.2772 9.91991 50.2424 9.86199C48.1639 5.7811 44.4946 2.64069 40.0566 1.26357C40.0111 1.24681 39.964 1.23303 39.9159 1.22158C38.3582 0.753085 36.7081 0.5 34.9999 0.5C33.2922 0.5 31.6425 0.752919 30.0854 1.22125C30.0362 1.23287 29.9883 1.24697 29.942 1.26407C22.9781 3.4255 17.9062 9.92821 17.9062 17.5936C17.9062 27.019 25.5745 34.6872 34.9999 34.6872C36.7283 34.6872 38.3972 34.4285 39.971 33.9492C40.0153 33.9384 40.0586 33.9252 40.1011 33.9097ZM40.9207 30.9426V24.9615C40.9207 24.2741 40.3634 23.7168 39.676 23.7168H36.7404C36.6916 23.6677 36.6058 23.5254 36.6058 23.3019V20.3319H45.1284L47.6135 24.9467C46.0717 27.5814 43.7286 29.6922 40.9207 30.9426ZM38.0488 3.31049C37.4723 4.42257 36.3063 5.17618 34.9999 5.17618C33.6934 5.17618 32.5274 4.42257 31.9509 3.31049C32.9347 3.10072 33.9545 2.98936 34.9999 2.98936C36.0452 2.98936 37.065 3.10072 38.0488 3.31049ZM20.3956 17.5936C20.3956 13.1171 22.421 9.10506 25.6025 6.42402V12.5596H23.9654C23.278 12.5596 22.7207 13.1169 22.7207 13.8043V21.8532C22.7207 22.5406 23.278 23.0979 23.9654 23.0979H26.0675C26.2924 23.0979 26.4824 23.2879 26.4824 23.5128V26.6997C26.4824 27.3871 27.0397 27.9444 27.7271 27.9444C28.4145 27.9444 28.9718 27.3871 28.9718 26.6997V23.5128C28.9718 21.9113 27.6689 20.6086 26.0675 20.6086H25.21V15.049H25.7467C25.9555 15.4436 26.3697 15.7128 26.8472 15.7128C27.5346 15.7128 28.0919 15.1555 28.0919 14.4681V4.72943C28.5622 4.47584 29.048 4.24765 29.5473 4.04601C30.4576 6.18388 32.5928 7.66554 34.9999 7.66554C37.4071 7.66554 39.5421 6.18388 40.4524 4.04601C43.1031 5.11677 45.3699 6.94346 46.9845 9.25791H41.7228C41.0354 9.25791 40.4781 9.81519 40.4781 10.5026V11.7574H36.5229C35.8355 11.7574 35.2782 12.3147 35.2782 13.0021C35.2782 13.4088 35.4742 13.769 35.776 13.9962V15.1595C35.776 15.8469 36.3333 16.4042 37.0207 16.4042C37.7081 16.4042 38.2654 15.8469 38.2654 15.1595V14.2468H41.7228C42.4102 14.2468 42.9675 13.6895 42.9675 13.0021V11.7473H48.3813C49.167 13.5384 49.6041 15.5158 49.6041 17.5936C49.6041 19.1588 49.3557 20.6666 48.8978 22.0813L46.9677 18.4971C46.7507 18.094 46.3298 17.8426 45.8717 17.8426H35.3612C34.6738 17.8426 34.1165 18.3998 34.1165 19.0872V23.3019C34.1165 24.9032 35.2704 26.2061 36.6888 26.2061H38.4314V31.7898C37.3304 32.0558 36.1815 32.1979 34.9999 32.1979C26.9471 32.1979 20.3956 25.6464 20.3956 17.5936Z" fill="white"/>
</svg>
