<svg width="38" height="57" viewBox="0 0 38 57" fill="none" xmlns="http://www.w3.org/2000/svg">
<path d="M19.0158 19.8573C15.6055 19.9235 12.7779 17.1846 12.7171 13.7585C12.6563 10.3273 15.3775 7.49174 18.7929 7.42556C22.2032 7.36447 25.0308 10.1033 25.0916 13.5294C25.1524 16.9606 22.4261 19.7962 19.0158 19.8573ZM18.656 0.0031681C13.5836 0.0998936 8.84567 2.17185 5.32386 5.84232C1.80206 9.51279 -0.088058 14.3389 0.0031535 19.4348C0.0132888 19.8013 0.0335572 20.178 0.069029 20.6311C0.069029 20.6616 0.0690293 20.6973 0.0740963 20.7329L0.0791637 20.7685V20.7736C0.226116 22.4689 0.601101 24.1336 1.18384 25.7219C3.46415 33.3021 8.24265 41.3405 11.8506 46.752C15.7575 52.6115 19.178 56.7401 19.2135 56.7809C19.33 56.9234 19.5023 57.0049 19.6898 56.9998H19.705C19.8874 56.9947 20.0597 56.9132 20.1712 56.7656C20.2016 56.7249 23.5207 52.4231 27.2452 46.3651C30.691 40.7652 35.2009 32.4723 37.1519 24.7445C37.5876 23.3343 37.8562 21.8682 37.9576 20.3867L37.9677 20.2696C37.9778 20.1933 37.988 20.1169 37.993 20.0355C38.0032 19.9693 37.9981 19.9031 37.9829 19.842C37.9981 19.4348 38.0032 19.0835 37.9981 18.7424C37.9069 13.6465 35.8445 8.89171 32.1909 5.34851C28.5374 1.8104 23.7335 -0.0884657 18.656 0.0031681ZM19.026 20.4682C22.7758 20.3969 25.7605 17.2864 25.6946 13.5192C25.6287 9.75205 22.5326 6.75357 18.7827 6.81975C15.0278 6.89102 12.0432 10.0015 12.1141 13.7687C12.18 17.5359 15.2761 20.5344 19.026 20.4682ZM18.6662 0.608973C28.8262 0.425705 37.2127 8.55062 37.3951 18.7526C37.4052 19.1649 37.3951 19.5722 37.3748 19.9744H37.3951C37.3849 20.0915 37.3697 20.2086 37.3545 20.3307C37.2583 21.7969 36.9897 23.2223 36.5691 24.5765C32.8395 39.4009 19.6949 56.394 19.6949 56.394H19.6746C19.6746 56.394 6.1245 40.0729 1.75645 25.5284C1.19398 24.0063 0.824063 22.3874 0.682178 20.7024C0.677111 20.682 0.672043 20.6616 0.672043 20.6413V20.6464C0.641639 20.2391 0.616301 19.8369 0.606167 19.4246C0.423743 9.22261 8.51122 0.797334 18.6662 0.608973Z" fill="#454D66"/>
<path fill-rule="evenodd" clip-rule="evenodd" d="M18.6662 0.608973C28.8262 0.425705 37.2127 8.55062 37.3951 18.7526C37.4052 19.1649 37.3951 19.5722 37.3748 19.9744H37.3951C37.3849 20.0915 37.3697 20.2086 37.3545 20.3307C37.2583 21.7969 36.9897 23.2223 36.5691 24.5765C32.8395 39.4009 19.6949 56.394 19.6949 56.394H19.6746C19.6746 56.394 6.1245 40.0729 1.75645 25.5284C1.19398 24.0063 0.824063 22.3874 0.682178 20.7024C0.677111 20.682 0.672043 20.6616 0.672043 20.6413V20.6464C0.641639 20.2391 0.616301 19.8369 0.606167 19.4246C0.423743 9.22261 8.51122 0.797334 18.6662 0.608973ZM25.6946 13.5192C25.7605 17.2864 22.7758 20.3969 19.026 20.4682C15.2761 20.5344 12.18 17.5359 12.1141 13.7687C12.0432 10.0015 15.0278 6.89102 18.7827 6.81975C22.5326 6.75357 25.6287 9.75205 25.6946 13.5192Z" fill="#454D66"/>
</svg>
