<svg width="733" height="545" viewBox="0 0 733 545" fill="none" xmlns="http://www.w3.org/2000/svg">
<path d="M389.327 492.074L389.307 493.337L386.879 494.344L386.01 496.338L382.615 497.246L378.293 491.916L375.371 489.607L372.746 489.133L369.529 491.186L366.864 489.409L367.555 490.12L366.686 489.488L362.245 490.771L358.929 497.147L357.587 498.588L354.744 499.713L350.974 499.831L348.665 498.233L346.79 498.923L342.822 495.094L339.96 496.042L325.176 494.956L320.636 496.002L319.215 497.601L316.254 498.963L313.017 498.746L310.529 496.871L310.747 497.325L308.97 497.561L306.483 495.607L303.522 495.43L302.437 496.575L300.404 496.357L299.653 497.265L298.568 496.042L297.62 496.575L294.008 494.916L287.455 496.792L281.435 495.311L279.48 496.93L275.316 497.542L267.499 497.759L263.907 497.009L262.762 498.055L262.841 497.285L257.551 505.2L256.366 506.404L252.577 507.766L250.8 511.359L245.194 512.879L239.332 511.438L236.154 511.477L231.101 514.596L227.074 515.168L223.087 517.517L221.883 517.458L219.613 520.083L218.093 524.505L214.441 529.716L213.217 534.67L211.836 534.591L210.691 533.15L208.559 533.368L207.375 535.657L208.283 540.355L206.467 541.717L205.302 541.46L198.788 544.599L196.834 541.816L194.545 540.592L192.59 541.006L189.59 539.171L188.564 539.822L185.169 535.381L182.129 532.815L175.734 532.973L172.062 526.143L170.009 525.373L168.016 520.715L166.042 518.919L162.153 510.332L160.614 510.017L162.667 509.01L162.035 509.661L162.726 509.859L162.844 509.227L162.607 510.056L163.634 512.03L163.89 511.26L164.048 511.754L165.509 509.188L165.963 507.372L165.469 506.464L163.496 506.562L161.68 504.056L160.476 504.411L161.028 504.056L160.041 503.602L160.219 504.549L159.232 503.503L158.502 504.213L156.548 502.95L153.922 496.002L158.502 492.35L156.311 491.067L153.764 484.909L149.343 479.639L136.769 471.289L131.282 468.763L127.551 465.822L128.736 467.717L133.098 471.289L127.137 466.137L125.854 465.979L126.624 466.809L125.953 466.769L120.643 464.341L106.095 465.466L104.141 467.026L102.227 466.276L101.634 462.999L100.647 461.676L101.279 460.097L100.174 457.63L100.233 452.281L99.0092 450.978L99.9961 450.346L98.6933 446.932L99.0289 445.767L97.9037 445.017L97.4892 443.359L96.4233 443.24L95.772 441.168L96.601 440.773L96.7984 437.714L99.4829 434.773L101.299 427.39L102.779 426.936L107.793 421.844L108.839 418.054L110.24 416.06L110.063 412.31L113.122 410.928L117.011 410.908L117.228 409.152L118.55 408.204L120.722 409.862L123.623 409.606L124.748 404.099L126.604 400.703L125.854 400.289L125.913 399.282L127.729 397.012L132.308 399.065L135.032 398.986L134.164 403.487L136.236 403.447L136.296 404.296L137.539 404.829L138.96 404.217L142.79 404.908L143.895 404.375L145.257 405.816L146.106 406.842L146.343 409.467L147.645 409.073H148.277L152.106 410.553L152.718 410.139L152.402 408.935L153.843 407.79L153.35 407.158L155.383 406.961L157.831 407.592L158.383 409.862L159.844 411.106L160.101 411.204L161.324 412.448L164.088 412.942L164.818 413.751L166.851 413.553L167.957 415.014L171.45 412.034L174.964 411.126L180.234 411.303L181.201 407.79L182.603 406.368L181.478 404.928L181.635 403.783L184.083 401.947L184.241 400.388L185.642 399.282L188.426 399.085L189.393 398.335L190.755 398.67L192.294 397.565L194.525 398.611L194.604 400.052L194.091 399.342L193.479 399.677L193.992 400.743L191.544 402.302L191.919 405.046L193.439 405.5L197.249 401.69L200.052 402.125L200.427 400.861L202.46 399.993L202.164 398.473L202.855 397.17L203.052 397.072L203.131 393.124L200.565 388.623L201.433 386.097L199.973 384.695L200.032 383.61L202.026 380.333L203.447 379.425H205.342L205.598 378.004L209.25 375.537L209.033 375.023L209.803 373.701L210.73 374.214L210.296 373.227L211.52 371.194L214.876 371.53L214.698 370.523L215.724 369.26L217.639 368.273L219.376 366.101L219.869 366.615L220.165 365.371L220.6 366.121L220.797 365.43L221.449 365.963L221.429 364.917L222.357 364.799L222.435 364.641L221.527 361.996L226.166 362.706L228.93 361.187L230.884 362.035L231.298 363.575L234.397 364.424L238.108 364.266L239.115 369.102L247.208 371.885L247.444 373.207L249.458 373.543L251.787 375.3L253.327 377.807L253.761 377.254L254.787 377.609L255.182 378.596L256.129 378.241L260.847 383.787L269.71 387.735L270.677 387.479L270.183 385.248L270.914 383.886L278.099 385.307L289.685 386.057L292.863 385.663L294.186 384.419L294.561 382.86L295.883 382.465L296.87 382.149L299.12 382.919L299.653 382.228L305.812 384.32L307.253 383.57L307.569 380.609L308.319 380.471L309.997 381.083L310.411 383.294L313.648 384.044L316.017 383.452L318.603 381.123L318.524 379.78L318.741 379.169L321.327 378.339L321.623 378.478L324.011 379.938L331.512 381.202L335.321 378.576L338.756 383.294L339.21 380.373L340.69 379.129L343.967 379.149L345.21 380.274L346.276 378.695L347.52 378.024L347.934 378.537V377.866L350.027 376.859L350.244 376.01L350.639 376.346L351.211 374.826L356.304 377.333L359.837 376.109H360.33L362.028 377.649L361.811 382.86L366.627 384.083L366.509 390.558L368.857 391.643L369.173 393.065L368.186 396.381L368.581 398.512L362.837 405.48L364.318 406.349H365.008L369.923 408.954L374.305 409.349L376.496 410.889L378.964 415.29L383.286 418.646L385.872 417.837L387.984 419.692L389.169 419.001L391.36 420.008L392.228 419.238L393.195 419.653L393.531 419.633L393.926 420.146L392.801 421.706L392.07 426.226L392.801 429.483L391.873 431.299L392.465 434.536L392.82 434.911L400.874 447.938L402.808 449.359L402.729 448.136L406.776 448.866L412.618 453.445L409.973 454.827L408.236 458.064L403.321 463.394L400.676 473.914L397.913 479.264L398.17 481.968L397.597 482.797H395.801L394.38 485.284L393.136 485.541L392.445 486.468L392.662 489.212L390.55 490.219L389.327 492.074Z" fill="white"/>
<path d="M400.794 130.973L401.347 132.059L405.038 131.999L407.86 134.743L411.216 134.131L416.388 137.743L417.69 138L418.717 137.684L419.348 137.092L424.303 137.388L425.803 135.612L425.625 134.644L427.974 130.302L429.81 128.466L429.494 126.295L428.941 126.354L427.283 126.315L426.514 123.906L424.776 122.466L425.152 118.538L423.809 115.695L425.191 111.807L424.796 110.504L428.527 105.984L428.251 104.799L426.948 104.266L427.915 100.95L431.389 97.2591L430.738 93.7456L432.001 91.298L433.896 92.3442L435.021 91.8507H435.297L435.376 89.7387L437.705 88.1793L436.6 87.2713L437.784 87.3108L438.021 84.6264L444.061 84.7053L444.081 81.5076L444.831 80.8168L447.871 80.5996L450.358 77.6783L451.562 77.6981L451.582 76.4348L453.496 76.2769L454.404 74.5201L453.753 73.6319L453.97 70.1579L455.944 68.5985L456.102 66.1114L457.957 64.71L461.056 64.8481L460.602 66.5259L462.497 67.8089L463.484 67.3747L464.59 69.1314L467.531 71.2632L467.61 73.0989L469.386 73.0792L469.445 74.8754L470.274 75.1912L470.728 74.0859L471.577 74.0464L471.696 72.7634L472.9 71.5593L476.216 73.9477L477.913 73.0397L479.295 73.4937L481.269 70.8685L482.433 71.0856L483.105 69.9802L486.046 72.0725L486.855 71.9146L487.111 72.9608L489.835 74.5399L491.296 73.7306L494.217 79.3758L496.211 79.593L496.586 81.2313L499.073 81.9616L500.356 81.6458L500.692 80.7773L502.606 81.1523L504.067 79.8101L506.001 80.1062L508.607 79.1982L509.377 78.1718L513.857 79.7114L514.075 81.3497L515.713 82.7906L517.134 82.0801L517.371 80.5207L519.246 79.0995L522.602 81.5274L525.641 80.8563L527.694 81.4682L528.267 80.6391L531.445 81.2115L531.997 80.4417L535.432 81.4879L535.649 82.0011L536.083 82.2774L537.287 83.896L537.82 86.541L541.136 87.37L539.774 92.206L540.268 92.9561L539.419 92.5811L538.709 93.4693L538.63 94.4957L539.676 95.0484L538.333 96.3512L537.662 95.838L537.07 96.4696L539.992 103.773L538.768 105.135L541.294 106.161L539.695 107.247L540.979 108.333L537.662 117.965L537.425 119.149L538.333 119.781L537.208 120.729L537.682 123.156L535.965 128.269L535.195 128.742V131.723L534.544 132.947L534.307 132.177L533.241 132.532L532.55 134.486L531.583 134.072L530.26 136.144L532.649 137.447L532.037 137.585L531.859 139.836L532.649 140.842L531.228 141.454L531.188 142.283L529.885 142.224L529.234 144.494L527.635 144.454L525.997 145.955L525.168 148.501L521.477 148.994L521.299 150.83L520.687 150.258L517.568 154.62L517.489 155.962L519.207 158.035L518.792 160.324L521.595 160.798L522.996 160.147L524.043 164.371L521.358 168.101L518.378 168.516L519.049 170.904L517.193 174.872L520.036 177.852L518.654 179.609L519.779 180.458L519.562 181.484L520.727 183.34L520.312 186.32L519.542 186.222L519.444 187.149L517.193 187.268L515.772 191.946L513.561 192.479L513.226 193.861L511.449 193.347L510.778 194.137L510.798 196.96L511.805 197.137L512.397 199.052L511.726 199.96L512.456 199.605L512.436 200.493L513.167 200.078L514.923 201.499L513.956 201.874L515.14 204.263L515.042 204.816L515.713 205.25L513.561 208.842L513.621 209.237L512.851 211.349L514.904 215.751L512.555 218.139L512.278 219.521L509.456 220.389L509.357 221.337L508.587 220.725L509.081 221.85L507.857 222.877L505.765 222.304L502.133 224.811L501.501 224.594L500.869 222.6L500.85 222.383L499.784 222.047L498.718 222.107L496.566 222.284L494.138 221.139L492.224 219.442L492.184 218.218L489.401 218.317L487.546 221.357L487.23 224.85L483.42 227.022L482.216 225.66L479.591 226.647L480.104 230.338L482.552 231.068L484.21 230.575L483.835 237.306L485.118 238.411L485.355 239.99L482.039 241.332L481.348 242.398L484.565 246.247L484.861 247.807L481.723 249.603L480.262 252.031L479.019 251.971L478.426 252.781L479.354 254.912L477.025 256.334L473.472 257.419L470.728 255.761L468.853 263.755L467.215 264.525L466.228 266.144L466.938 268.434L466.07 268.177L463.366 270.269L459.477 270.151L458.036 273.783L455.135 274.947L455.036 278.678L457.247 281.639L453.24 284.007L450.97 282.29L451.562 281.047L450.891 279.112L451.365 277.612L450.496 275.855L449.864 276.408L446.884 274.73L442.403 274.888L441.318 275.638L440.035 275.362L439.6 276.092L438.673 275.441L437.429 272.579L441.811 270.782L442.462 269.855L442.127 268.493L438.357 265.453L433.126 265.196V263.183L431.527 262.196L430.659 260.124L430.323 259.275L430.264 258.643L429.198 259.551L429.218 263.065L428.33 263.459L427.362 264.308L426.138 263.716L425.171 264.111L424.579 263.755L422.053 263.4L422.625 259.65L420.73 260.459L418.855 259.196L417.138 260.084L409.183 251.656L407.584 253.945L407.11 252.228L407.604 251.103L408.808 251.004L407.505 249.504L407.189 249.326L404.564 246.01L403.123 245.438L403.182 244.688L403.617 244.056L404.09 244.49L406.242 240.701L409.025 239.141L408.532 235.825L409.005 232.983L410.051 231.877L414.078 233.95L416.881 231.542L415.934 230.298L417.414 225.206L416.111 221.574L417.177 220.093L417.315 217.606L416.368 215.159L415.48 214.981L412.914 211.625L413.585 208.23L413.091 207.086L411.394 205.585L410.782 204.618L403.163 196.723L400.399 195.795L397.873 193.387L397.201 193.584L394.576 190.841L389.563 192.518L388.102 190.742L384.608 189.873L383.049 182.412L384.134 179.313L383.799 177.852L385.871 176.648L387.135 171.339L390.609 172.622L390.174 174.872L390.964 175.721L395.8 174.082L395.859 173.115L394.951 172.859L395.05 170.194L393.57 168.437L394.339 164.193L392.839 161.726L392.938 160.305L396.609 160.364L398.07 157.857L398.544 157.581L399.274 157.541L400.123 155.883L402.847 155.725L402.669 154.048L404.643 151.343L402.847 150.475L403.084 149.251L400.379 146.705L402.195 144L402.274 142.106L400.3 138.434L400.202 133.894L400.794 130.973Z" fill="white"/>
<path d="M186.156 10.5864L186.807 11.83L189.472 12.6985L189.018 13.7446L190.182 14.4552L190.775 16.1922L194.999 17.041L194.17 17.7713L193.735 17.2976L193.992 18.5411L194.663 18.0082L194.031 19.0543L195.295 19.2123L195.749 18.5609L196.676 19.1333L198.196 17.9687L199.558 18.7188L203.605 18.3635L204.809 18.9754L209.526 18.1858L210.533 20.0215L211.402 19.3504L215.566 19.6662L219.83 24.2062L224.765 23.4363L230.686 25.3707L235.384 25.0747L238.167 26.4959L240.062 26.259L240.26 27.1867L241.444 26.7525L247.721 29.0816L251.826 29.9896L257.551 30.0883L257.61 31.0555L256.13 32.832L257.294 36.0494L257.018 38.5562L255.616 39.2668L255.379 37.9641L252.537 36.9771L251.136 39.3458L245.964 40.1156L246.497 41.7736L245.55 45.2082L243.378 44.8331L241.622 45.5832L241.345 45.445L240.141 45.603L238.503 42.3658L236.233 41.596L233.391 43.5106L231.673 46.2543L230.351 45.445L227.469 45.7016L226.048 51.4654L223.995 51.3864L223.58 50.5574L220.402 52.1167L220.245 52.472L214.047 53.1826L213.02 52.0378L211.678 51.9983L210.849 52.6102L210.474 55.3144L205.717 54.9196L204.967 57.387L197.367 56.4198L194.387 54.7222L192.373 55.8474L190.261 59.9135L190.419 61.0979L188.13 61.5913L186.175 61.6505L185.11 60.3675L183.609 60.407L183.767 59.4201L182.346 59.499L180.017 57.5054L179.089 54.1696L176.602 54.8999L173.365 53.4195L172.437 56.6369L170.306 57.5054L168.174 55.4921L166.141 55.5315L165.45 58.2357L163.456 57.7225L162.371 56.3211L161.778 56.9922L160.101 56.6369L159.883 55.6105L158.423 54.6236L157.653 55.9263L156.39 56.1632L156.607 57.4462L155.62 57.6633L154.968 59.8346L154.218 59.5188L153.745 60.3478L152.363 59.6175L152.008 59.6372L152.264 61.4729L154.317 61.7295L154.297 63.427L152.027 63.9008L151.337 64.9074L150.172 64.3153L148.435 65.4009L144.764 64.5324L140.658 64.7298L138.783 65.1246L136.769 67.6906L136.059 67.6116L136.157 66.4273L133.414 65.2825L132.506 64.3745L132.782 62.0848L130.927 59.8543L128.913 59.7951L126.407 56.4L126.308 59.3214L125.499 59.3608L124.156 57.5251L125.005 56.0053L125.874 56.479L125.814 54.5446L127.275 52.6892L128.598 53.5774L129.663 52.3339H130.887L133.098 50.0442L133.473 48.5243L131.677 46.432L130.117 46.807L130.216 47.4979L127.315 49.3138L126.328 49.1559L125.064 46.9057L125.893 45.2477L125.597 44.1028L123.979 43.787L123.485 42.6619L122.893 43.3133L120.702 41.1025L120.189 39.3458L120.722 36.7008L118.59 36.8192L116.971 34.8256L117.09 31.8056L116.616 30.7989L115.452 31.4503L114.484 30.8581L114.721 29.5159L114.642 29.2593L114.662 27.4038L118.393 27.6012L119.143 25.5287L120.978 24.2456L122.202 22.3705L121.649 21.6401L122.261 20.0413L123.643 20.1597L122.301 19.0741L122.419 17.9687L125.321 18.2253L126.505 17.1397L126.821 17.5542L126.92 16.6462L129.861 17.041L130.552 17.8898L131.874 16.9226L134.184 18.1266L137.677 17.2581L138.822 18.5806L139.572 17.5147L141.467 17.7713L144.053 16.8633L144.487 17.6134L145.297 17.3371L145.494 18.1661L148.534 18.1069L149.007 18.857L152.264 18.6201L152.422 17.0213L154.692 18.3438L156.469 17.8108L158.679 18.4819L163.989 16.4883L164.621 15.2448L165.864 16.3896L166.496 15.8961L166.812 16.8239L167.601 16.3501L167.582 17.4555L169.062 17.1199L171.49 18.1661L176.681 15.7185L177.944 16.8633L179.997 16.3699L181.004 15.2645L180.491 14.9882L182.228 14.317V13.034L184.063 12.9946L185.248 12.0668L185.307 10.6654L186.156 10.5864Z" fill="white"/>
<path d="M323.596 44.3196L322.411 40.3324L324.563 39.3257L325.491 39.8389L324.425 41.9115L324.484 43.9841L323.596 44.3196ZM307.37 21.2056L307.41 22.0346L309.344 21.5016L309.956 22.7254L311.14 22.5083L311.91 24.0677L315.7 24.7585L316.075 26.2982L314.496 26.6337L315.976 28.6471L316.924 28.0352L319.332 28.6273L321.622 28.0746L321.523 29.4958L322.688 28.805L326.714 29.7524L328.55 32.1803L330.702 32.9699L330.484 36.7992L328.688 37.036L327.701 38.1217L326.872 36.286L323.99 37.6677L323.142 36.8979L321.661 37.4703L321.168 36.8781L320.773 38.5362L318.424 39.1086L317.595 40.8654L314.851 41.6154L315.286 43.0169L315.641 43.5696L316.549 49.0964L312.581 49.1161L308.199 47.7147L306.581 47.8923L306.127 46.5501L304.074 45.6816L302.278 48.4253L302.238 48.7608L301.113 50.4189L298.508 51.544L297.856 53.0244H294.323L292.922 52.3336L293.237 55.926L290.968 55.9063L289.546 57.8407L287.651 58.8473L285.697 63.8412L286.586 65.4796L288.895 65.223L288.757 66.3481L292.27 62.2819L294.244 64.236L292.329 66.3875L289.941 65.4401L290.849 67.0981L289.211 67.0784L290.592 67.6706L289.783 68.7562L289.704 69.1707L291.875 69.8221L292.329 67.1574L293.81 67.868L294.955 71.1051L294.639 73.6317L292.428 74.5396L290.81 73.2369L289.862 75.9016L288.777 75.4871L286.25 76.5925L286.013 75.8424H285.105L284.789 71.3025L283.96 72.171L284.237 73.0592L283.329 73.5132L283.585 74.3423L282.48 74.8949L282.638 76.0595L280.743 76.3753L279.795 74.2238L277.111 74.362L275.315 72.8619L275.236 72.0328L276.558 70.8288L277.762 71.2038L278.315 69.4273L277.111 68.4206L274.426 70.355L273.104 69.4668L273.242 65.5585L272.453 65.1243L272.334 62.1832L266.511 60.9002L263.629 56.4195L260.274 54.4259L259.464 56.0444L257.175 55.5312L255.142 57.5248L252.615 56.3208L250.878 57.7025L248.49 57.0314L245.647 57.4262L245.371 54.8996L244.127 54.8601L244.108 53.4587L240.574 51.4848L239.568 49.7478L240.436 47.4186L239.528 46.2146L240.199 45.6027L241.404 45.4447L241.68 45.5829L243.437 44.8328L245.608 45.2079L246.555 41.7733L246.022 40.1153L251.194 39.3455L252.595 36.9768L255.438 37.9638L255.675 39.2665L257.076 38.5559L257.352 36.0491L256.188 32.8317L257.668 31.0552L257.609 30.088L259.82 30.4236L262.623 29.7327L264.557 30.2854L267.005 29.1998L267.873 30.3841L270.163 30.463L275.808 29.4958L279.184 28.1931L280.802 26.7522L282.263 27.1074L282.677 26.2389L283.348 27.0877L284.098 25.9231L287.02 26.7127L286.309 26.4561L288.145 24.2848L293.889 23.6729L295.31 22.4886L296.771 22.7254L296.652 23.7519L297.896 24.5217L295.803 24.9954L294.027 26.3969L294.007 27.1864L295.29 27.6404L295.073 29.3182L295.567 28.2523L295.803 28.7852L297.047 27.9957L296.356 27.1864L297.086 27.1074L297.363 25.9429L298.804 25.8047L297.481 25.1138L299.475 25.1928L300.146 24.1072L301.962 23.9887L304.252 22.2715L305.929 22.3899L307.37 21.2056ZM279.243 71.7367L279.322 71.6381H279.361L280.072 71.9933L280.289 73.533L279.618 74.0067L279.085 72.3881L279.243 71.7367ZM276.183 71.9736L276.479 72.2894L276.42 72.625L275.828 72.8619L275.453 72.3486L275.374 72.1513L275.413 71.9736L275.611 71.8946L276.183 71.9736Z" fill="white"/>
<path d="M342.111 87.528L342.763 88.3373L341.756 87.9425L342.111 87.528ZM339.328 87.8044L338.953 88.0017L339.012 87.6662L339.15 87.4491L339.111 87.1925L339.091 87.1135L339.624 87.0543L339.585 87.4491L339.328 87.8044ZM348.132 74.7373L348.289 74.6386L353.224 74.0662L357.942 76.1388L360.113 75.7637L360.863 77.2047L362.501 76.3164L361.672 79.1391L360.883 80.0668L360.291 79.7904L359.817 81.1524L361.534 83.2052L364.455 82.0801L364.751 84.8238L363.093 85.3568L362.758 84.5869L358.396 84.7251L357.152 82.9289L354.724 82.8105L353.974 83.679L351.329 83.3829L350.382 81.0537L348.27 80.3036L345.862 78.0534L347.48 75.0137L347.796 74.0859L347.993 74.4215L348.132 74.7373ZM275.769 71.9542L276.184 71.9936L276.361 72.0726L276.48 72.2897L276.421 72.6253L275.828 72.8621L275.453 72.3489L275.374 72.1515L275.414 71.9739L275.611 71.8949L275.769 71.9542ZM279.756 71.8357L280.092 71.9936L280.309 73.5333L279.638 74.007L279.105 72.3884L279.342 71.6383H279.381L279.756 71.8357ZM133.453 65.164L136.197 66.3089L136.098 67.4932L136.809 67.5722L138.822 65.0061L140.697 64.6113L144.803 64.414L148.474 65.2825L150.211 64.1968L151.376 64.789L152.067 63.7823L154.337 63.3086L154.356 61.6111L152.303 61.3544L152.047 59.5187L152.402 59.499L153.784 60.2293L154.258 59.4003L155.008 59.7161L155.659 57.5449L156.646 57.3277L156.429 56.0447L157.692 55.8079L158.462 54.5051L159.923 55.492L160.14 56.5185L161.818 56.8738L162.41 56.2026L163.495 57.6041L165.489 58.1173L166.18 55.4131L168.213 55.3736L170.345 57.387L172.476 56.5185L173.404 53.301L176.641 54.7814L179.128 54.0511L180.056 57.387L182.385 59.3806L183.806 59.3016L183.649 60.2886L185.149 60.2491L186.215 61.5321L188.169 61.4729L190.458 60.9794L190.301 59.7951L192.413 55.7289L194.426 54.6038L197.406 56.3013L205.006 57.2685L205.756 54.8012L210.513 55.196L210.888 52.4918L211.717 51.8799L213.059 51.9193L214.086 53.0642L220.284 52.3536L220.442 51.9983L223.62 50.4389L224.034 51.268L226.087 51.3469L227.508 45.5832L230.39 45.3266L231.712 46.1359L233.43 43.3922L236.272 41.4775L238.542 42.2473L240.18 45.4845L239.509 46.0964L240.417 47.3005L239.549 49.6296L240.555 51.3666L244.089 53.3405L244.108 54.742L245.352 54.7814L245.628 57.308L248.471 56.9132L250.859 57.5844L252.596 56.2026L255.123 57.4067L257.156 55.4131L259.445 55.9263L260.255 54.3077L263.61 56.3013L266.492 60.782L272.315 62.065L272.433 65.0061L273.223 65.4404L273.085 69.3486L274.407 70.2369L277.092 68.3025L278.296 69.3092L277.743 71.0856L276.539 70.7106L275.217 71.9147L275.296 72.7437L277.092 74.2438L279.776 74.1057L280.724 76.2572L282.619 75.9414L282.461 74.7768L283.566 74.2241L283.309 73.3951L284.217 72.9411L283.941 72.0528L284.77 71.1843L285.086 75.7243H285.994L286.231 76.4743L288.757 75.369L289.843 75.7835L290.79 73.1187L292.409 74.4215L294.62 73.5135L294.955 70.9672L293.81 67.7301L292.33 67.0195L291.876 69.6842L289.705 69.0328L289.784 68.6183L290.593 67.5327L289.211 66.9405L290.85 66.9602L289.942 65.3022L292.33 66.2497L294.245 64.0981L292.271 62.144L288.757 66.2102L288.896 65.0851L286.586 65.3417L285.698 63.7034L287.652 58.7095L289.547 57.7028L290.85 55.7684L293.12 55.7881L292.804 52.1957L294.205 52.8865H297.739L298.39 51.4061L300.995 50.281L302.121 48.623L302.16 48.2874L303.956 45.5437L306.009 46.4122L306.463 47.7545L308.082 47.5768L312.464 48.9783L316.431 48.9585L325.235 44.241L326.912 46.1754L329.834 45.7411L331.117 46.5701L329.024 50.1626L330.564 51.2087L331.136 50.814L331.531 51.7219L330.307 53.4195L331.196 53.9327L331.156 56.6961L329.281 57.2685L330.959 58.3542L335.44 58.6502L336.762 60.2293L336.505 61.0189L339.822 63.3481L337.709 65.5391L333.821 66.1904L330.781 64.8285L330.9 63.6441L326.656 62.519L323.399 67.4735L327.189 71.5199L327.702 71.4212L326.873 70.6119L328.491 68.4012L330.327 69.3092L332.4 66.7431L332.952 68.263L330.268 73.1977L332.084 74.3228L330.84 76.6322L336.111 76.0598L336.466 77.9547L337.828 77.856V78.1126L339.782 80.5405L342.466 80.2642L343.967 81.2906L344.243 83.0078L344.105 83.146L344.677 84.5277L346.335 85.2778L344.993 86.5411L344.263 86.0476L343.513 86.6398L341.677 85.2186L339.703 85.4752L338.499 84.7843L337.769 85.6923L334.255 85.0607L335.499 88.8308L334.689 89.0282L333.15 91.3771L331.571 92.2258L332.084 92.8772L333.959 92.5022L334.828 93.193L334.61 95.0682L333.584 96.1736L336.209 99.2133L335.321 100.773L335.676 104.701L334.314 102.826L334.531 101.404L333.327 101.365L333.11 103.576L334.216 103.595L335.361 105.392L332.873 106.043L333.308 107.721L333.624 107.958L333.012 108.846L333.939 113.721L333.17 116.07L331.827 117.215L336.959 125.209L342.131 125.051L343.295 128.565V129.137L345.013 130.795L346.651 129.256L349.02 128.782L349.849 124.104L349.987 123.61L350.934 122.505L352.119 122.959L352.987 122.446L354.507 123.985L354.369 125.426L351.842 129.118L352.435 130.795L354.665 130.361L356.284 131.664L358.909 130.973L361.238 131.743L362.995 127.677L364.751 126.413L364.85 123.196L366.35 123.709L367.85 123.097L368.758 121.597L375.213 121.005L377.286 121.992L378.036 125.051L379.812 124.045L385.576 124.361L385.517 125.722L383.799 126.709L386.642 131.111L385.931 131.723L386.385 134.171L391.655 135.454L391.971 135.769L393.432 137.191L394.419 137.131L400.163 133.697L400.242 138.217L402.235 141.888L402.137 143.803L400.34 146.488L403.025 149.034L402.788 150.258L404.584 151.126L402.61 153.83L402.788 155.508L400.084 155.666L399.235 157.344L398.505 157.383L398.051 157.66L396.59 160.167L392.899 160.107L392.8 161.529L394.281 163.996L393.531 168.24L395.011 170.016L394.912 172.681L395.82 172.938L395.761 173.924L390.925 175.543L390.136 174.694L390.57 172.444L387.076 171.161L385.813 176.471L383.74 177.695L384.095 179.136L383.01 182.234L384.569 189.715L388.063 190.584L389.524 192.36L388.931 194.729L389.8 197.256L389.306 197.907L385.201 194.354L382.911 196.762L380.108 195.795L378.47 197.808L376.871 197.571L375.213 198.558L373.417 196.506L370.101 198.499L369.39 197.453L367.377 197.098L366.627 194.453L365.186 194.137L364.751 192.124L363.666 191.216L361.653 192.814L360.527 192.064L361.356 190.031L359.086 189.577L360.606 188.61L360.804 186.814L358.672 187.426L357.784 185.748L354.428 184.939L353.954 183.379L351.605 183.439L350.737 184.781L348.526 184.564L346 183.36L345.783 180.28L343.75 179.53L341.953 180.458L341.381 181.978L337.729 182.234L335.42 183.3L328.689 181.188L326.182 181.958L325.037 184.544L324.07 183.3L323.103 184.583L321.346 184.347L320.695 184.998L317.576 184.662L316.53 183.596L317.359 185.59L317.122 187.86L314.97 187.742L313.806 189.952L311.635 190.9L311.141 191.354L311.023 191.452L310.411 191.255H309.799L307.114 191.61L304.844 193.229L302.417 196.96L299.041 199.032L296.87 202.743L290.83 205.171L289.271 207.895L288.402 208.073L286.191 217.942L283.546 218.356L281.276 217.527L279.835 220.666L276.401 224.89L275.157 224.278L274.348 224.495L271.506 224.949L270.321 225.857L269.492 225.561L267.953 226.568L267.854 227.752L267.104 228.502L269.433 229.134L270.085 230.871L269.492 233.575L267.775 234.562L267.459 235.628L268.091 240.503L266.749 242.536L267.755 244.372L262.386 244.668L261.281 246.109L261.478 248.695L260.294 249.346L260.63 250.846L258.143 251.281L256.8 249.248L255.734 249.425L256.682 252.86L254.55 255.288L255.024 257.715L253.997 258.248L250.583 259.571L248.51 258.86L248.155 255.919L247.306 255.149L247.622 253.649L245.431 254.261L244.325 255.031L241.937 254.044L241.207 255.564L241.74 256.965L238.206 259.433L238.049 259.788L235.522 261.525L235.226 263.953L231.515 265.611L231.002 265.749L230.39 262.315L227.745 262.887L226.62 264.723L226.047 264.506L223.837 266.973L222.258 267.387L220.58 267.624L220.047 265.966L217.343 265.729L216.987 265.65L214.934 265.868L213.75 265.512L213.375 265.354L211.638 261.999L211.539 258.229L212.98 254.991L208.421 255.702L206.111 258.722L204.73 259.393H201.887L201.453 259.255L200.802 258.841L199.992 258.426L198.433 258.09L198.038 256.117L196.498 255.821L196.084 254.419L194.308 252.899L191.801 252.761L190.36 253.708L188.899 253.294L188.327 252.544L189.294 250.767L187.932 248.142L183.412 250.925L182.05 253.807L178.97 252.82L178.418 252.445L176.957 251.399L176.701 251.044L176.819 249.583L172.121 248.418L173.305 247.846L173.108 246.899L173.799 246.346L173.187 246.05L174.154 245.695L173.108 244.964L172.851 244.866L170.838 243.918L171.489 242.517L169.95 242.931L169.239 241.372L165.331 239.319L159.015 242.99L158.265 243.76L157.909 245.162L155.284 245.438L154.06 247.372L152.757 247.293L148.375 249.504L147.467 251.024L147.783 253.077L146.165 254.518L142.039 254.932L140.579 256.432L139.177 254.538L137.105 256.61L135.585 255.939H134.637L134.44 256.452L132.94 256.097L131.222 254.636L131.44 252.465L135.17 250.175L135.743 247.787L132.802 244.629L132.19 241.845L134.933 237.424L134.657 234.72L132.427 233.417L135.012 226.982L133.117 220.449L133.887 216.718L133.354 214.093L134.716 213.836V212.81L134.282 211.231L132.209 209.888L131.617 206.454L128.262 202.763L127.689 200.927L128.577 200.276L131.519 201.085L134.282 200.394L137.085 195.815L136.355 193.584L140.125 190.071L140.539 188.136L142.809 185.452L145.434 185.669L145.948 184.899L146.856 186.044L149.639 183.439L150.191 184.208L151.198 183.952L151.948 183.36L151.455 182.333L153.665 181.682L155.363 178.287L157.396 177.477L156.547 176.767L156.705 175.661L157.87 175.05L158.758 176.096L160.613 175.504L159.765 173.806L161.739 172.168L161.245 170.983L167.384 162.121L166.654 160.482L165.094 159.831L161.739 156.041L153.843 154.205L153.093 155.37L150.843 156.16L148.178 154.067L148.257 151.324L147.211 149.843L150.033 140.921L147.073 139.855L148.415 136.421L146.184 133.973L144.467 135.829L140.243 136.362L137.46 135.71L136.197 132.651L134.716 132.236L133.098 135.612L126.979 135.552L126.209 133.894L124.926 133.5L124.63 131.96L126.071 129.65L125.34 127.657L123.524 127.835L122.241 126.117L123.82 125.347L124.669 122.643L126.584 122.11L127.038 118.992L129.367 117.748L130.176 115.972L132.427 115.103L134.914 116.504L135.032 115.399L134.756 114.807L137.953 110.129L138.249 105.628L136.473 105.076L135.703 103.99L133.591 103.655L132.446 102.372L132.486 102.214L133.789 100.713L133.413 98.8975L134.223 97.8711L133.394 95.9762L131.716 96.4499L127.689 94.0023L126.051 94.2392L125.261 95.9762L121.886 95.0485L120.899 94.9695L119.813 94.9103L120.702 93.3509L120.366 91.6139L122.024 89.3835L121.274 88.4755L121.353 86.0871L123.623 84.9817L121.57 81.2116L123.366 79.1391L125.419 79.0009L126.11 76.8888L127.433 77.856L131.104 74.461L131.005 73.4148L132.466 71.8555L130.907 68.1841L132.881 67.6116L132.525 65.8154L133.453 65.164Z" fill="white"/>
<path d="M270.381 225.975L271.565 225.067L274.408 224.613L275.217 224.396L276.46 225.008L275.71 226.548L276.421 229.607L272.75 230.989L271.861 231.068L270.973 230.811L270.539 229.252L269.512 229.272L267.183 228.64L267.933 227.89L271.269 227.693L270.381 225.975ZM309.878 191.373H310.49L311.102 191.571L311.22 191.472L311.714 191.018L313.885 190.07L315.05 187.86L317.201 187.978L317.438 185.708L316.609 183.715L317.655 184.781L320.774 185.116L321.425 184.465L323.182 184.702L324.149 183.419L325.116 184.662L326.261 182.076L328.768 181.306L335.499 183.419L337.808 182.353L341.46 182.096L342.033 180.576L343.829 179.648L345.862 180.399L346.079 183.478L348.606 184.682L350.816 184.899L351.685 183.557L354.034 183.497L354.507 185.057L357.863 185.866L358.751 187.544L360.883 186.932L360.686 188.728L359.166 189.695L361.436 190.149L360.607 192.183L361.732 192.933L363.745 191.334L364.831 192.242L365.265 194.255L366.706 194.571L367.456 197.216L369.469 197.571L370.18 198.617L373.496 196.624L375.292 198.677L376.95 197.69L378.549 197.927L380.188 195.913L382.99 196.88L385.28 194.472L389.386 198.025L389.879 197.374L389.011 194.847L389.603 192.479L394.617 190.821L397.242 193.564L397.913 193.367L400.439 195.775L403.203 196.703L410.822 204.618L411.434 205.565L413.151 207.066L413.645 208.23L412.974 211.605L415.54 214.981L416.428 215.158L417.375 217.606L417.237 220.093L416.171 221.574L417.474 225.225L415.994 230.298L416.941 231.561L414.138 233.95L410.111 231.877L409.065 232.983L408.572 235.825L409.065 239.121L406.282 240.681L404.131 244.47L403.677 244.036L403.223 244.668L403.163 245.398L404.604 245.971L407.23 249.287L407.565 249.484L408.868 250.984L407.664 251.083L407.17 252.208L407.644 253.906L409.263 251.616L417.217 260.044L418.935 259.156L420.81 260.419L422.705 259.61L422.113 263.36L422.093 264.722L424.442 266.42L423.889 266.953L426.297 272.322L431.548 272.993L431.646 273.19L433.068 273.644L437.509 272.519L438.752 275.381L435.357 276.862L435.002 278.007L435.772 279.388L435.594 280.237L434.686 286.85L431.528 291.626L432.219 294.39L431.35 295.732L429.455 296.304L428.014 295.614L426.475 295.041L424.639 296.6L421.501 302.798L418.402 304.674L419.349 304.851L419.547 308.088L418.856 308.404L419.329 309.648L418.796 311.029L417.987 311.326L418.441 312.924L419.685 313.102L419.29 313.576H420.474L420.119 314.859H421.323L420.81 315.49L421.56 315.076L421.698 314.958L422.073 316.162L421.303 316.181L422.29 316.537L422.192 317.484L421.955 317.602L423.277 316.635L423.396 316.951L423.514 317.602L423.613 316.319L424.975 316.635L424.402 317.247L425.725 317.346V318.214L426.653 318.135L428.311 319.655L428.765 319.083L429.12 319.182L430.975 319.872H431.291L432.416 320.011L432.732 320.169L434.528 320.859L435.16 320.208L437.607 321.55L436.581 328.163L432.633 335.308L432.219 339.473L434.212 340.953L438.614 347.546L444.556 347.171L446.293 346.105L448.503 346.5L449.095 348.849L450.398 350.013L449.767 352.58L450.457 354.771L450.181 357.455L448.405 358.284L450.872 363.515L448.326 366.219L444.891 366.278L440.075 362.508L439.877 360.633L436.285 359.528L433.581 360.376L432.929 360.692L427.916 364.798L426.633 362.982L425.626 363.337L422.251 366.673L422.034 371.272L420.158 372.595L419.626 374.45L420.553 378.023L420.652 385.366L414.691 389.827L410.427 389.787L409.203 387.813L409.184 387.537L409.697 386.491L408.69 385.504L407.802 386.254L406.381 385.07L405.019 385.188L404.96 386.096L403.637 385.82L404.229 386.728L397.518 390.715L393.59 391.82L390.096 390.142L389.109 390.873L388.399 392.175L386.524 394.82L381.234 397.13L378.312 403.624L374.937 406.427L374.404 409.21L370.022 408.815L365.107 406.21H364.416L362.936 405.341L368.68 398.373L368.285 396.242L369.272 392.926L368.956 391.504L366.607 390.419L366.726 383.944L361.909 382.721L362.127 377.51L360.429 375.97H359.936L356.402 377.194L351.31 374.687L350.737 376.207L350.343 375.871L350.125 376.72L348.033 377.727V378.398L347.619 377.885L346.375 378.556L345.309 380.135L344.066 379.01L340.789 378.99L339.309 380.234L338.855 383.155L335.42 378.437L331.61 381.063L324.11 379.799L321.721 378.339L321.425 378.2L318.84 379.029L318.622 379.641L318.701 380.984L316.116 383.313L313.747 383.905L310.51 383.155L310.095 380.944L308.417 380.332L307.667 380.47L307.352 383.431L305.911 384.181L299.752 382.089L299.219 382.78L296.969 382.01L295.982 382.326L294.66 382.721L294.285 384.28L292.962 385.523L289.784 385.918L278.197 385.168L271.013 383.747L270.282 385.109L270.776 387.339L269.808 387.596L260.946 383.648L256.228 378.102L255.281 378.457L254.787 377.608L253.761 377.391L253.327 377.944L251.787 375.437L249.458 373.68L247.444 373.345L247.208 372.022L239.115 369.239L238.108 364.403L234.397 364.561L231.298 363.712L230.884 362.173L228.93 361.324L232.029 360.475L234.97 352.047L236.016 350.507L239.569 350.783L240.437 347.092L236.529 345.316L235.621 345.553L233.43 338.782L237.95 340.539L240.181 339.69L240.358 339.591L240.694 338.506L239.766 337.854L239.213 337.637L238.187 335.703L240.023 331.518H240.398L241.72 329.13L245.451 329.525L250.307 331.439L247.148 328.36L246.833 325.991L245.846 325.419L244.326 320.682L247.188 320.109L247.306 317.602L249.201 313.497L248.116 311.681L245.49 313.615L245.076 313.793L243.477 315.352L240.417 315.944L240.279 316.083L238.365 317.385L234.042 315.727L228.278 309.253L226.699 308.898L222.83 304.141L221.922 303.331L220.323 301.436L222.791 298.357L222.771 297.706L223.916 293.344L222.06 290.6L222.83 290.146L222.416 287.304L220.284 287.54L217.777 290.679L214.876 290.185L214.658 285.428L216.099 283.02L213.889 280.948L209.526 281.935L211.757 274.572L211.559 266.499L213.356 265.394L213.731 265.551L214.915 265.907L216.968 265.69L217.323 265.769L220.027 266.005L220.56 267.663L222.238 267.427L223.817 267.012L226.028 264.545L226.6 264.762L227.725 262.926L230.37 262.354L230.982 265.788L231.496 265.65L235.206 263.992L235.503 261.564L238.029 259.827L238.187 259.472L241.72 257.005L241.187 255.603L241.918 254.083L244.306 255.07L245.411 254.3L247.602 253.688L247.287 255.189L248.135 255.958L248.491 258.899L250.563 259.61L253.978 258.288L256.603 259.472L257.452 258.288L261.637 256.827L261.775 255.327L264.538 253.254L264.815 251.182L265.999 251.912L266.354 256.847L267.242 256.787L267.854 257.695L268.585 257.123L269.098 258.11L270.44 257.103L271.664 254.34L274.763 252.761L277.349 254.932L277.27 256.215L279.559 256.472L281.178 254.833L283.784 255.998L283.685 256.945L285.521 258.781L287.573 258.524L287.79 260.183L288.797 259.176L289.666 260.064H291.758L293.89 262.137L295.41 261.012L297.344 263.696L298.844 264.13L300.048 263.124L301.785 264.17L302.93 263.439L303.187 264.347L306.128 265.867L305.358 269.618L301.904 272.46L301.035 272.164L300.325 274.375L299.12 274.947L299.397 275.539L299.831 275.677L299.614 276.151L298.37 275.598L298.667 276.585L298.015 277.099L298.114 275.796L296.752 277.118L295.489 276.546L294.186 278.283L293.791 277.474L292.765 277.671L291.699 278.5L292.093 279.053L292.054 279.329L292.469 280.257L295.745 281.5L297.995 279.23L298.351 279.013L299.042 277.632L300.917 276.625L301.588 277.059L305.378 275.697L304.766 274.236L305.575 274.039L307.095 272.46L310.766 271.927L311.536 269.993L313.49 270.526L314.635 269.933L314.734 270.762L315.918 270.111L317.458 270.881L318.622 269.499L318.524 268.098L320.892 267.663L322.511 269.637L323.991 270.012L324.485 269.361L327.84 269.164L328.59 267.604H328.729L329.735 266.973L330.071 268.808L332.203 269.025L334.098 268.315L335.835 265.946L333.565 263.459L333.92 261.959L335.006 262.374L334.078 260.163L334.473 257.498L333.367 254.063L332.657 253.294L330.604 254.814L329.419 256.886L328.196 255.958L328.985 251.478L331.117 248.774L330.505 247.53L331.689 244.944L330.367 242.536L328.057 242.339L327.919 237.266L326.222 235.489L324.445 235.667L324.129 235.805L322.787 235.726L323.458 233.318L320.952 231.522L321.445 230.377L320.577 229.449L321.307 229.055L321.386 228.265L321.702 227.554L320.438 228.64L319.136 227.989L318.761 225.738L317.635 224.771L317.004 226.311L316.056 225.502L315.069 225.936L315.01 225.719L313.747 224.909L315.484 222.106L314.615 221.534L314.813 219.698V219.481L313.865 218.198L311.359 217.902L313.648 214.053L313.332 212.474L315.05 211.369L314.023 209.553L314.951 209.533L316.412 203.828L317.478 202.861L315.148 199.96L315.859 197.176L312.444 196.347L311.319 193.406L309.72 192.459L309.878 191.373Z" fill="white"/>
<path d="M607.577 98.8772L604.577 98.4035L606.314 95.8374L606.59 97.8705L607.577 98.8772ZM667.761 121.715L668.57 123.195L670.564 123.491L670.169 123.926L672.478 126.571L671.669 128.268L671.689 131.071L671.156 130.992L672.399 133.44L673.524 133.736L673.682 135.137L672.853 135.71L672.419 138.631L671.018 139.618L670.741 141.039L669.359 141.454L668.313 142.934L666.714 142.697L663.596 147.474L659.964 149.033L657.714 152.034L651.358 154.008L649.956 155.073L649.206 156.909L636.119 162.535L628.145 167.805L622.302 170.272L618.276 175.562L616.775 179.234L617.526 176.075L616.44 178.464L615.571 178.563L615.493 179.115L616.4 178.839L614.979 181.346L613.321 182.668L608.327 184.247L603.63 184.484L600.294 186.261L597.471 186.3L593.582 187.544L592.832 188.471L593.168 187.761L581.127 190.386L574.969 193.722L569.758 194.077L566.896 195.893L566.402 196.051L566.836 195.321L564.922 196.031L562.948 199.209L560.54 197.788L556.434 198.518L552.96 200.196L546.229 206.868L542.499 212.572L540.347 213.994L539.794 215.632L537.603 216.974L539.242 219.481L542.005 219.58L539.873 217.981L541.373 217.902L544.729 222.047L548.262 222.935L545.558 225.817L540.762 228.344L536.34 234.009L533.675 234.423L532.274 232.745L533.162 233.239L533.083 232.114L535.215 233.535L535.866 233.081L534.86 232.41L538.334 231.877L540.031 228.817L537.268 228.423L535.61 229.488L532.294 229.804L532.471 230.614L531.84 230.199L528.918 233.634L527.596 236.792L523.53 235.055L523.786 232.903L521.576 231.186L518.22 230.771L515.081 229.311L514.272 228.205L515.358 224.988L514.963 224.83L514.805 224.652L514.272 224.12L513.029 224.277H512.733L512.121 222.047L510.601 222.639L509.12 221.948L508.627 220.803L509.397 221.415L509.495 220.468L512.298 219.619L512.594 218.237L514.943 215.849L512.891 211.447L513.66 209.315L513.601 208.921L515.753 205.328L515.101 204.894L515.18 204.361L513.996 201.973L514.983 201.598L513.226 200.176L512.476 200.571L512.496 199.683L511.765 200.058L512.417 199.13L511.825 197.235L510.818 197.038V194.215L511.489 193.426L513.266 193.939L513.601 192.557L515.812 192.024L517.233 187.346L519.483 187.228L519.602 186.3L520.371 186.399L520.786 183.418L519.621 181.563L519.839 180.536L518.713 179.688L520.095 177.911L517.233 174.95L519.108 170.983L518.437 168.614L521.398 168.18L524.082 164.469L523.036 160.225L521.615 160.877L518.812 160.403L519.227 158.113L517.509 156.041L517.588 154.698L520.707 150.336L521.299 150.928L521.477 149.093L525.168 148.599L525.997 146.073L527.635 144.553L529.254 144.612L529.905 142.342L531.208 142.401L531.248 141.572L532.669 140.96L531.899 139.934L532.077 137.684L532.688 137.545L530.3 136.243L531.623 134.17L532.59 134.565L533.281 132.611L534.347 132.255L534.603 133.025L535.254 131.801V128.821L536.005 128.347L537.722 123.235L537.248 120.827L538.373 119.879L537.465 119.248L537.702 118.063L541.018 108.411L539.755 107.325L541.354 106.24L538.827 105.213L540.051 103.851L537.13 96.548L537.702 95.9164L538.373 96.4296L539.735 95.1268L538.689 94.5742L538.768 93.528L539.479 92.6398L540.327 93.0148L539.814 92.2647L541.196 87.4287L537.88 86.5997L537.347 83.9547L536.143 82.3361L535.728 82.0598L535.511 81.5663H536.281L536.616 80.3031L535.61 77.3225L534.485 76.9277L535.807 75.4473L534.643 74.8946L536.005 73.2958L535.373 70.8679L538.057 69.1704L541.689 70.9864L543.091 70.7298L545.933 71.6575L549.703 74.3814L551.539 73.1774L552.802 74.5788L556.138 74.9933L557.915 74.4407L560.579 76.908L560.836 78.8227L562.751 80.2636L566.047 78.8621L567.271 79.7898L572.798 79.474L572.501 80.6386L574.456 81.6453L574.495 83.1257L575.857 84.1521L576.173 86.3036L577.476 87.9025L576.607 89.4224L577.535 90.5475L575.936 92.7187L577.87 92.4621L578.838 94.5939L576.232 96.5678L577.397 97.1797L577.791 99.9234L583.279 100.298L583.911 98.5219L584.858 99.1141L585.884 97.7916L589.043 97.8113L589.793 95.1268L591.549 96.1138L592.694 95.2848L594.787 96.3507L596.879 96.0546L598.794 96.7059L601.044 99.0943L603.926 98.818L604.163 100.476L605.13 101.048L605.505 103.95L608.347 106.417L612.058 105.391L612.472 104.286L613.736 103.812L614.19 101.937L615.828 100.95L618.295 101.522L621.276 99.9036L623.25 101.029L624.493 100.772L626.408 102.292L630.731 103.141L630.81 104.424L633.356 106.99L636.534 107.483L637.225 106.023L638.449 105.687L643.561 106.97L643.699 105.628L642.515 103.555L643.482 103.595L643.62 102.391L645.969 101.187L648.061 100.812L649.285 101.799L651.91 99.8247L652.582 98.4035L653.647 98.739L654.319 97.7916L656.766 98.5811L658.345 96.7059L659.411 97.91L663.319 97.3376L665.807 100.812L667.642 99.9431L670.564 100.14L669.695 100.634L670.228 101.443L669.281 103.18L670.011 103.417L669.399 104.069L669.813 105.509L671.097 106.141L671.491 107.306L673.307 106.181L674.551 107.7L675.439 106.97L676.485 108.036L678.42 108.451L676.525 109.595L677.196 110.957L675.992 110.819L676.564 112.319L676.09 113.208L674.728 113.227L675.242 114.333L673.347 113.365L672.834 114.767L670.781 113.74L670.208 112.379L668.451 113.583L667.228 116.662L667.761 121.715Z" fill="white"/>
<path d="M131.184 254.657L132.901 256.137L134.401 256.473L134.599 255.979L135.566 255.959L137.086 256.63L139.158 254.558L140.56 256.453L142.001 254.933L146.146 254.518L147.764 253.077L147.448 251.025L148.376 249.505L152.738 247.294L154.061 247.373L155.285 245.439L157.91 245.162L158.265 243.761L159.015 242.991L165.312 239.3L169.22 241.353L169.931 242.932L171.471 242.517L170.819 243.919L172.833 244.866L173.069 244.965L174.135 245.695L173.148 246.05L173.78 246.366L173.069 246.919L173.286 247.866L172.102 248.419L176.8 249.603L176.682 251.064L176.918 251.419L178.379 252.466L178.932 252.841L182.011 253.828L183.373 250.965L187.913 248.182L189.275 250.807L188.308 252.584L188.88 253.334L190.321 253.749L191.762 252.801L194.269 252.939L196.045 254.459L196.46 255.861L197.999 256.157L198.394 258.131L199.954 258.466L200.763 258.881L201.414 259.295L201.829 259.433L204.691 259.414L206.073 258.742L208.382 255.722L212.942 255.012L211.501 258.249L211.599 262.019L213.336 265.375L211.54 266.48L211.757 274.553L209.527 281.896L213.889 280.909L216.12 282.962L214.679 285.39L214.896 290.147L217.797 290.64L220.304 287.502L222.416 287.265L222.831 290.088L222.061 290.542L223.916 293.285L222.771 297.648L222.791 298.319L220.324 301.398L221.923 303.293L222.831 304.102L226.699 308.859L228.259 309.214L234.023 315.689L238.365 317.347L240.28 316.064L240.398 315.926L243.477 315.333L245.057 313.774L245.491 313.596L248.096 311.662L249.202 313.478L247.307 317.584L247.188 320.09L244.326 320.683L245.846 325.4L246.833 325.973L247.149 328.361L250.307 331.44L245.451 329.526L241.721 329.131L240.378 331.499H240.023L238.187 335.684L239.214 337.638L239.767 337.855L240.694 338.507L240.359 339.592L240.181 339.691L237.951 340.54L233.43 338.783L235.602 345.534L236.51 345.297L240.418 347.073L239.549 350.764L235.996 350.508L234.97 352.028L232.029 360.456L228.93 361.305L226.167 362.825L221.528 362.114L222.456 364.759L222.377 364.917L221.449 365.036L221.469 366.082L220.817 365.549L220.6 366.24L220.166 365.49L219.87 366.733L219.396 366.22L217.659 368.411L215.745 369.378L214.718 370.641L214.896 371.648L211.54 371.293L210.336 373.326L210.77 374.313L209.843 373.8L209.073 375.122L209.29 375.635L205.638 378.103L205.382 379.524H203.487L202.066 380.432L200.072 383.689L200.013 384.794L201.473 386.196L200.605 388.722L203.171 393.203L203.092 397.151L202.895 397.269L202.204 398.552L202.5 400.072L200.467 400.94L200.092 402.204L197.309 401.75L193.479 405.579L191.959 405.125L191.584 402.381L194.032 400.822L193.499 399.756L194.111 399.44L194.624 400.151L194.545 398.71L192.315 397.664L190.755 398.769L189.393 398.434L188.426 399.184L185.643 399.381L184.241 400.486L184.084 402.046L181.636 403.881L181.478 405.026L182.603 406.447L181.202 407.888L180.235 411.402L174.984 411.224L171.471 412.132L167.957 415.113L166.852 413.652L164.819 413.849L164.108 413.04L161.345 412.547L160.121 411.303L159.844 411.204L158.403 409.961L157.851 407.691L155.403 407.059L153.39 407.257L153.864 407.869L152.423 409.033L152.738 410.218L152.107 410.632L148.278 409.152H147.646L146.343 409.546L146.106 406.901L145.257 405.875L143.896 404.434L142.79 404.967L138.961 404.296L137.52 404.888L136.296 404.355L136.237 403.506L134.164 403.526L135.013 399.026L132.309 399.105L127.729 397.052L127.433 396.104L126.328 396.223L125.479 397.151L125.006 396.657L123.288 397.131L122.38 398.512L120.347 398.315L119.459 399.322L116.577 395.374L115.728 392.137L114.82 391.88L109.392 384.241L108.997 382.346L107.043 381.004L106.056 381.261L108.07 378.675L106.668 378.458L107.695 374.056L110.892 368.569L109.392 367.562L110.044 361.719L112.728 360.2L117.051 355.561L118.847 355.324L120.545 352.817L122.064 352.107L122.4 351.041L121.433 349.087L126.585 341.033L126.091 339.02L124.65 336.296L122.262 334.717L118.255 335.921L116.617 335.309L116.123 334.381L116.814 331.026L112.432 329.447L111.05 328.085L110.616 325.4L111.484 323.525L107.478 319.597L106.609 316.478L107.872 314.09L108.129 310.892L105.306 308.978L104.418 309.412L103.55 308.78L103.036 306.036L100.944 305.721L98.9504 302.76L97.2529 301.951L95.7724 297.312L94.9829 296.759L99.5031 296.917L105.997 298.398L110.517 296.582L116.064 297.529L117.288 296.818L120.426 297.194L123.19 296.286L125.341 289.219L124.848 286.456L126.585 285.646L128.934 282.903L129.091 278.679L129.98 277.909L130.236 274.79L131.361 272.56L127.275 265.789L124.038 265.138L122.4 260.361L123.407 257.558L125.854 256.788L126.545 255.387L128.815 255.624L131.184 254.657Z" fill="white"/>
<path d="M21.4946 116.505L22.4815 117.669L21.238 117.334L21.4946 116.505ZM21.0209 113.425L22.146 115.044L21.2577 116.189L21.7315 115.261L21.0209 113.425ZM20.8432 103.082L19.5405 106.004L19.501 104.089L20.2116 102.845L20.8432 103.082ZM15.8296 96.6079L16.5994 97.6145L16.0467 98.108L15.8296 96.6079ZM23.3106 90.1533L23.5672 90.8442L24.2975 90.6468L24.5344 92.1074L23.6856 92.2653L23.9027 93.5878L23.3698 93.6668L22.9553 93.0154L23.5277 93.1536L23.054 92.5219L23.6264 91.2981L22.4026 90.5283L23.3106 90.1533ZM74.2365 4.36873L75.4801 2.23695L76.1512 2.69094L77.3947 1.88165L77.8882 2.63172L77.2368 4.76351L78.3619 6.61895L77.0394 5.75044L76.9605 8.21779L76.2301 8.45465L77.2565 9.36263L75.4603 9.44159L76.8026 10.2114L78.3817 9.18498L77.5132 7.36902L79.2699 7.03346L79.7634 8.05988L80.7108 7.72432L79.487 6.61895L80.474 6.14522L80.3753 5.45436L85.152 3.6384L87.1062 1.704L87.0075 0.598633L88.4287 1.84217L86.3758 4.68455L87.4417 5.1188L87.8958 3.895L89.8499 3.42127L90.3039 5.71097L91.4685 6.02679L91.0737 8.86917L91.7448 10.5075L92.0804 8.55334L93.087 7.86249L92.6528 6.48078L94.0937 6.59921L94.1727 5.09907L95.9491 4.62534L96.4821 5.61227L98.9494 5.55306L98.4757 6.73738L104.95 9.46133L105.996 12.3827L108.246 14.8105L107.536 15.4619L108.483 15.1658L110.832 16.5475L110.26 17.6529L109.51 17.574L110.536 18.0082L110.043 18.4425L111.306 17.0607L115.273 18.2253L117.997 17.6332L121.708 18.0674L122.044 19.5281L121.175 20.7914L120.998 24.2654L119.162 25.5484L118.412 27.621L114.681 27.4236L114.642 29.2593L114.74 29.5159L114.504 30.8581L115.471 31.4503L116.616 30.7989L117.109 31.6871L116.991 34.7072L118.609 36.7008L120.741 36.5824L120.208 39.2273L120.721 40.9841L122.912 43.1948L123.504 42.5435L123.998 43.6686L125.616 43.9844L125.913 45.1292L125.084 46.7873L126.347 49.0375L127.334 49.1954L130.235 47.3795L130.137 46.6886L131.696 46.3136L133.492 48.4059L133.117 49.9257L130.906 52.2154H129.683L128.617 53.459L127.294 52.5707L125.834 54.4262L125.893 56.3606L125.024 55.8868L124.176 57.4067L125.518 59.2424L126.327 59.203L126.426 56.2816L128.933 59.6767L130.946 59.7359L132.801 61.9664L132.525 64.2561L133.433 65.1641L132.525 65.776L132.88 67.5722L130.906 68.1446L132.466 71.816L131.005 73.3754L131.104 74.4215L127.432 77.8166L126.11 76.8494L125.419 78.9614L123.366 79.0996L121.57 81.1722L123.623 84.9423L121.353 86.0476L121.274 88.436L122.024 89.344L120.366 91.5745L120.702 93.3115L119.813 94.8709L120.899 94.9301L121.886 95.009L125.261 95.9367L126.051 94.1997L127.689 93.9629L131.716 96.4105L133.394 95.9367L134.223 97.8317L133.413 98.8581L133.788 100.674L132.486 102.174L132.446 102.332L133.591 103.615L135.703 103.951L136.473 105.036L138.249 105.589L137.953 110.089L134.755 114.768L135.032 115.36L134.913 116.465L132.426 115.064L130.176 115.932L129.367 117.709L127.038 118.952L126.584 122.071L124.669 122.604L123.82 125.308L122.241 126.078L123.524 127.795L125.34 127.617L126.07 129.611L124.63 131.92L124.926 133.46L123.544 135.118L120.248 135.217L119.221 133.44L117.563 132.513L114.365 132.947L113.793 135.71L114.484 137.388L113.359 140.132L107.102 142.757L104.871 142.915L104.338 142.165L101.239 145.244L99.8574 141.474L97.5283 140.803L95.6728 142.994L91.1132 143.764L91.7053 141.04L92.6133 140.211L88.6063 139.934L86.3364 138.197L84.3625 139.263L83.2374 138.829L81.5596 139.934L79.1317 140.211L76.8026 142.264L76.1314 141.494L76.4472 137.151L75.4998 136.796L74.4931 140.29L71.4533 140.665L69.519 143.665L67.2885 144.691L63.4197 145.244L61.4261 144.553L61.1103 140.507L59.4325 140.724L58.6232 138.02L61.5248 132.927L63.3012 131.21L65.512 130.48L65.7291 128.15L64.15 125.841L60.4194 126.67L59.6101 120.452L58.2284 121.952L56.9849 121.518L56.3927 122.742L53.1358 124.104L52.4055 125.486L50.6882 125.071L49.7013 126.058L47.451 126.374L46.4246 125.644L42.2795 125.821L42.0032 127.006L40.9373 127.598L36.2987 127.992L34.9762 129.414L34.5222 131.407L30.1994 134.111L29.627 136.224L26.1529 137.882L23.4882 141.237L22.9356 140.27L22.5013 133.322L23.1724 131.348L21.8499 123.354L22.9948 123.393L24.5344 122.13L25.4226 123.275L25.9753 122.999L26.2516 121.281L24.5936 120.097L26.074 120.077L26.4688 117.847L28.4624 116.564L29.3111 114.629L30.4955 114.57L29.7849 114.728L30.4362 115.083L34.759 110.859L37.404 110.682L36.5947 109.102L37.4435 106.635L36.2987 105.925L36.0816 107.879L34.7985 108.708L34.8775 110.425L32.0351 111.53L31.739 110.583L31.0087 110.721L30.6731 111.826L29.1927 112.794L28.2255 112.419L27.7123 113.623L26.5872 112.695L25.6595 113.267L24.3173 112.557L23.9027 113.623L23.3895 113.386L24.3173 109.122L25.6595 111.353L26.4293 111.333L26.2714 108.866L25.2844 107.05H27.1794L28.0281 107.839L29.7454 106.971L31.3245 103.734L35.2525 100.674L33.6339 101.168L33.1602 99.8055L28.6993 103.576L26.5477 102.628L25.245 103.832L22.975 101.602L23.4487 100.121L22.7184 98.5423L21.2972 98.1672L20.5274 98.9963L19.5997 98.0685L19.9353 96.8842L22.521 96.7855L22.4026 95.8775L23.4882 95.3249L24.337 97.4172L23.4487 98.2067L23.6067 99.2134L25.0871 98.1475L26.3898 99.1147L25.62 96.7263L26.8635 95.8775L26.1924 94.9498L26.6662 93.3115L25.8174 94.0418L25.2647 91.7719L26.3503 91.1402L25.541 90.9626L25.7384 89.9756L27.5939 89.6796L29.173 88.1005L28.5019 87.1333L29.7454 84.7449L28.9756 84.3304L27.1202 85.5344L26.1727 84.8633L26.6662 83.4224L25.166 81.863L25.1858 83.758L24.5738 83.4421L24.0212 84.8238L25.2647 85.8503L24.1593 86.3042L24.2186 87.7452L22.5802 87.4491L23.3106 85.8503L21.8894 85.3963L19.8958 87.6662L20.8432 89.2058L19.1457 89.344L18.5733 90.4296L17.1916 90.7257L17.1324 92.9365L14.2308 94.2392L14.744 91.2981L13.5596 89.9559L12.5924 90.6665L11.6844 89.9362L14.3492 85.6726L15.3361 80.1852H16.0862L17.3692 77.935L19.047 77.56L20.8038 74.6584L21.613 74.3228L22.9158 75.744L22.1657 74.3426L22.3631 72.6648L24.1988 71.6581L23.3698 71.5989L22.8566 72.5069L21.9091 71.1646L21.7117 73.5333L20.8235 73.9083L20.4682 73.2175L18.8693 75.2308L17.8627 74.1847L17.8035 75.2703L15.9875 75.0532L15.7901 73.5135L14.586 74.6387L13.382 74.5597L14.1913 75.9611L11.9805 78.1916L11.4081 77.0468L10.4409 77.106L9.49344 74.3426L8.62496 73.8688L10.9344 72.0529L10.737 70.6317L9.6119 70.454L8.54599 68.342L9.71057 65.7957L7.9341 65.4799L6.09838 62.144L6.69055 65.1641L5.24963 65.0654L4.61797 63.2889L3.88765 63.3283L3.84816 64.3745L2.17039 65.0851L1.97299 67.7498L1.32161 67.0392L1.55849 65.618L0.314941 64.7693L0.551797 63.4468L2.1309 61.0189V58.8082L2.86123 59.1635L3.21654 58.5318L1.65716 58.0976L0.492583 54.742L1.73613 55.5315L2.68358 55.0776L2.7428 52.097L4.65746 52.4128L4.75616 50.4192L6.69055 52.2549L7.87488 49.8665L9.9277 49.077L7.75645 49.531L7.71697 47.715L6.73003 49.8073L5.62467 49.4323L5.07198 47.0242L5.88128 47.5374L6.88795 46.6886L7.20377 44.7739L8.19071 45.4451L8.56572 44.4779L9.37502 44.8529L9.65136 44.3199L12.2964 45.5437L14.3887 44.6752L15.9677 41.7539L16.7968 42.958L17.685 42.05L19.5799 42.1684L19.4615 43.0961L20.4682 42.6027L21.0801 41.1223H21.9486L21.0603 40.9446L19.6392 42.6816L19.9945 41.7342L19.2049 39.5629L17.9022 39.6419L17.0929 38.6352L18.9286 37.2337L20.4682 38.122L20.6261 37.2535L21.5736 37.3127L21.4157 35.2006L23.35 35.8915L23.5474 35.1414L24.9094 35.3783L25.2252 33.4834L28.1466 36.5034L32.3707 37.4706L37.7001 35.1414L40.4438 35.9902L41.6478 35.6349L42.9309 34.7467L43.7204 32.4372L44.7074 32.8912L45.8325 32.3385L46.9181 30.641L48.4183 31.6279L48.813 30.1475L49.7605 31.7661L48.6946 32.1411L49.721 32.7925L49.8592 34.4703L49.7013 33.6808L51.5764 33.3057L52.1884 30.9963L51.2804 30.7989L51.5567 29.6541L53.8661 28.9632L54.5175 30.5028L56.1953 30.6805L57.0638 31.9832L56.8467 33.0294L59.1166 34.7861L58.939 33.74L59.5706 34.0755L58.5245 32.832L59.0969 32.0819L58.485 29.9107L59.2943 28.6869L61.0313 28.5684L61.0905 27.9565L59.8075 27.542L58.7021 28.2329L57.9521 27.4236L56.3927 28.2131L55.2676 26.9104L53.274 26.259L53.9845 26.1208L53.5503 25.4892L55.7019 24.8378L55.9584 25.4497L56.6098 24.6207L58.0113 25.3905L59.4719 25.1141L60.5576 24.1864L60.3799 23.3771L61.0905 23.7917L61.5445 22.4099L57.7942 24.2654L57.8534 23.5548L56.9454 23.7719L57.0441 22.6271L55.919 24.5615L54.3596 25.0549L53.274 24.3246L52.0896 25.1931L51.6357 24.7194L53.195 22.3112L52.7213 20.6729L54.4386 19.5083L52.8792 17.574L53.5701 16.962L54.5372 17.949L56.373 17.8503L60.0641 14.5934L60.301 13.113L62.1367 13.3893L62.0774 14.8303L62.8473 12.0866L64.4659 11.6721L65.4331 9.73767L65.7883 11.8892L66.6174 11.4352L67.6043 12.2248L66.4792 11.0404H67.4859L67.4267 10.2114L66.3213 10.2311L67.0516 6.91503L68.6307 6.22417L70.3875 6.87555L72.9733 5.1188L73.0522 4.17134L74.2365 4.36873Z" fill="white"/>
<path d="M400.202 133.894L394.458 137.329L393.471 137.388L392.011 135.967L391.695 135.651L386.425 134.368L385.971 131.921L386.681 131.309L383.839 126.907L385.556 125.92L385.615 124.558L379.852 124.242L378.075 125.249L377.325 122.189L375.253 121.202L368.798 121.795L367.89 123.295L366.39 123.907L364.89 123.393L364.791 126.611L363.034 127.874L361.278 131.94L358.948 131.17L356.323 131.861L354.704 130.559L352.474 130.993L351.882 129.315L354.408 125.624L354.547 124.183L353.027 122.643L352.158 123.157L350.974 122.703L350.026 123.808L349.888 124.301L349.079 128.9L346.71 129.374L345.072 130.914L343.355 129.256V128.683L342.19 125.17L337.019 125.328L331.886 117.334L333.229 116.189L333.999 113.84L333.071 108.964L333.683 108.076L333.367 107.839L332.933 106.161L335.42 105.51L334.275 103.714L333.17 103.694L333.387 101.483L334.591 101.523L334.374 102.944L335.736 104.819L335.38 100.891L336.268 99.3319L333.643 96.2921L334.67 95.1867L334.887 93.3115L334.018 92.6207L332.143 92.9957L331.63 92.3443L333.209 91.4956L334.749 89.1467L335.558 88.9493L334.314 85.1792L337.828 85.8108L338.558 84.9028L339.762 85.5937L341.736 85.3371L343.572 86.7583L344.322 86.1661L345.052 86.6596L346.394 85.3963L347.204 86.0477L347.243 87.5478L348.487 87.311L348.408 88.8308L347.302 89.5217L347.46 90.3113L348.487 91.3574L348.704 90.4099L349.355 90.6863L350.599 89.5809L351.408 86.5214L352.711 86.5412L355.81 88.4953L355.277 92.4628L354.566 94.18L356.086 93.5287L356.027 94.713L357.211 95.1867L357.744 96.6474L359.975 95.2065L360.527 97.4369L361.87 95.8776L363.942 96.6276L363.587 95.7591L365.087 94.0221L364.83 96.1539L366.844 96.45L368.364 95.6999L369.824 96.2131L371.009 97.4172L373.535 98.0291L373.91 98.9963L374.641 98.8186L374.443 97.9896L374.897 97.7725L376.476 98.5818L376.516 97.8317L377.069 97.9896L377.444 98.7002L377.779 99.47L379.635 99.8056L379.516 100.556L380.996 101.049L380.918 101.602L382.497 101.444L383.326 102.214L384.234 101.444L386.543 101.325L386.208 102.806L388.201 105.036L387.727 106.615L388.774 106.852L391.498 104.997L392.702 105.431L394.083 106.181L394.34 107.484L395.564 107.464L396.136 108.412L396.827 107.997L397.044 109.951L399.492 110.82L399.373 113.445L400.34 113.623L400.518 112.952L402.137 113.721L402.452 115.162L407.664 116.307L408.453 117.788L409.637 117.768L408.552 119.169L409.598 120.709L408.473 121.498L407.585 122.012L405.394 120.729L404.051 121.637L401.841 120.59L398.189 125.486L397.459 127.4L397.834 129.433L400.262 131.368L400.735 131.032L400.202 133.894ZM338.894 87.9426L338.992 87.6663L339.131 87.4491L339.091 87.1925L339.071 87.1136L339.604 87.0544L339.565 87.4491L339.308 87.765L338.933 87.9623L338.894 87.9426ZM341.776 87.8636L342.111 87.5478L342.763 88.3571L341.756 87.9623V87.8636H341.776Z" fill="white"/>
<path d="M270.381 225.976L271.269 227.673L267.933 227.87L268.032 226.686L269.571 225.679L270.381 225.976ZM309.878 191.374L309.799 192.518L311.398 193.466L312.523 196.407L315.938 197.236L315.227 200.019L317.556 202.921L316.49 203.888L315.03 209.592L314.102 209.612L315.128 211.428L313.411 212.533L313.727 214.113L311.437 217.962L313.944 218.258L314.891 219.541V219.758L314.694 221.594L315.563 222.166L313.826 224.969L315.089 225.778L315.148 225.995L316.135 225.561L317.082 226.37L317.714 224.831L318.839 225.798L319.214 228.048L320.517 228.7L321.78 227.614L321.464 228.324L321.385 229.114L320.655 229.509L321.524 230.437L321.03 231.581L323.537 233.378L322.866 235.786L324.208 235.865L324.524 235.727L326.3 235.549L327.998 237.325L328.136 242.398L330.446 242.596L331.768 245.004L330.584 247.589L331.196 248.833L329.064 251.537L328.274 256.018L329.498 256.946L330.682 254.873L332.735 253.353L333.446 254.123L334.551 257.558L334.156 260.222L335.084 262.433L333.999 262.018L333.643 263.519L335.913 266.006L334.176 268.374L332.281 269.085L330.149 268.868L329.814 267.032L328.807 267.664H328.669L327.919 269.223L324.563 269.421L324.07 270.072L322.59 269.697L320.971 267.723L318.602 268.157L318.701 269.559L317.536 270.94L315.997 270.171L314.812 270.822L314.714 269.993L313.569 270.585L311.615 270.052L310.845 271.987L307.174 272.52L305.654 274.099L304.844 274.296L305.456 275.757L301.666 277.119L300.995 276.684L299.12 277.691L298.429 279.073L298.074 279.29L295.824 281.56L292.547 280.316L292.133 279.389L292.172 279.112L291.777 278.56L292.843 277.731L293.87 277.533L294.264 278.342L295.567 276.605L296.83 277.178L298.192 275.855L298.094 277.158L298.745 276.645L298.449 275.658L299.693 276.211L299.91 275.737L299.476 275.599L299.199 275.007L300.403 274.434L301.114 272.223L301.982 272.52L305.437 269.677L306.206 265.927L303.265 264.407L303.009 263.499L301.864 264.229L300.127 263.183L298.923 264.19L297.423 263.756L295.488 261.071L293.968 262.196L291.837 260.124H289.744L288.876 259.235L287.869 260.242L287.652 258.584L285.599 258.841L283.763 257.005L283.862 256.057L281.257 254.893L279.638 256.531L277.348 256.275L277.427 254.992L274.842 252.82L271.743 254.399L270.519 257.163L269.177 258.169L268.663 257.183L267.933 257.755L267.321 256.847L266.433 256.906L266.078 251.971L264.893 251.241L264.617 253.314L261.853 255.386L261.715 256.886L257.531 258.347L256.682 259.531L254.057 258.347L255.083 257.814L254.609 255.386L256.741 252.958L255.794 249.524L256.86 249.346L258.202 251.379L260.748 251.083L260.413 249.583L261.597 248.932L261.399 246.346L262.505 244.905L267.874 244.609L266.867 242.773L268.209 240.74L267.578 235.865L267.894 234.799L269.611 233.812L270.203 231.108L269.552 229.371L270.578 229.351L271.012 230.91L271.9 231.167L272.789 231.088L276.46 229.706L275.749 226.647L276.5 225.107L279.934 220.883L281.375 217.745L283.645 218.574L286.29 218.159L288.501 208.29L289.369 208.112L290.929 205.388L296.969 202.96L299.14 199.249L302.515 197.177L304.943 193.446L307.213 191.828L309.878 191.374Z" fill="white"/>
<path d="M460.485 428.318L460.09 430.647L461.216 434.693L459.834 430.884L460.485 428.318ZM460.031 426.206L459.913 427.39L460.939 428.298L459.873 427.489L459.459 426.304L460.031 426.206ZM374.286 409.309L374.819 406.526L378.194 403.723L381.116 397.229L386.406 394.92L388.281 392.275L388.991 390.972L389.978 390.242L393.472 391.92L397.4 390.814L404.111 386.827L403.519 385.919L404.842 386.195L404.901 385.287L406.263 385.169L407.684 386.353L408.572 385.603L409.579 386.59L409.066 387.636L409.086 387.913L410.309 389.886L414.573 389.926L420.534 385.465L420.435 378.122L419.508 374.549L420.041 372.694L421.916 371.371L422.133 366.772L425.508 363.437L426.515 363.081L427.798 364.897L432.811 360.792L433.463 360.476L436.167 359.627L439.76 360.732L439.957 362.607L444.773 366.378L446.135 372.003L444.852 375.457L445.484 377.273L441.24 381.28L442.03 381.695L441.654 387.478L447.379 388.13L448.563 391.13L447.379 396.756L444.734 401.098L445.069 404.158L451.366 416.139L455.254 420.264L457.82 421.567L458.946 421.409L459.696 425.258L457.761 423.344L456.715 426.127L454.524 428.022L453.656 429.956L456.932 434.299L460.288 436.095L461.452 434.535L462.281 435.917L463.071 435.838L461.294 437.99L458.018 438.779L456.005 440.141L454.662 439.47L452.945 439.924L450.675 441.582L448.366 441.128L448.129 440.595L449.254 440.437L447.675 440.062L447.162 439.233L447.675 438.602L446.648 438.385L446.925 439.727L445.839 439.45L445.03 440.319L442.326 439.569L440.371 440.635L439.463 441.76L440.332 442.964L437.351 442.49L437.055 441.247L435.318 439.964L433.068 439.786L432.456 441.069L428.686 440.733L424.699 444.484L421.541 445.865L420.08 450.188L418.323 449.616L416.034 451.432L414.218 451.728L412.5 453.465L406.658 448.886L402.611 448.155L402.69 449.379L400.756 447.958L392.702 434.93L392.347 434.555L391.755 431.318L392.683 429.502L391.952 426.245L392.683 421.725L393.808 420.166L393.413 419.652L393.077 419.672L392.11 419.258L391.242 420.027L389.051 419.021L387.866 419.712L385.754 417.856L383.169 418.666L378.846 415.31L376.378 410.908L374.286 409.309Z" fill="white"/>
<path d="M411.119 36.0885L412.717 36.4438L412.362 38.2006L413.566 40.4903L415.284 40.6482L416.349 38.5164L416.014 37.8255L418.639 37.411L421.422 39.0691L424.107 38.9704L425.706 40.4903V45.0894L424.659 45.9381L423.969 49.6095L420.81 52.4914L422.587 55.5706L427.225 56.8734L427.739 52.0177L429.061 50.6557L431.686 50.2807L429.594 53.8731L432.081 55.7483L434.706 55.1167L438.437 57.1695L438.575 58.3538L440.075 57.1892L441.872 58.9262L445.582 59.5184L446.412 60.8014L449.254 62.3608L451.287 61.6107L451.82 62.2621L456.498 62.5384L459.419 61.2949L460.722 62.9529L460.367 63.7425L461.058 64.8479L457.959 64.7097L456.103 66.1111L455.945 68.5982L453.971 70.1576L453.754 73.6316L454.406 74.5198L453.498 76.2766L451.583 76.4345L451.563 77.6978L450.359 77.678L447.872 80.5994L444.832 80.8165L444.082 81.5074L444.063 84.705L438.023 84.6261L437.786 87.3105L436.601 87.2711L437.707 88.179L435.378 89.7384L435.299 91.8505H435.022L433.897 92.3439L432.002 91.2978L430.739 93.7454L431.39 97.2589L427.916 100.95L426.949 104.266L428.252 104.799L428.528 105.983L424.798 110.504L425.192 111.806L423.811 115.695L425.153 118.537L424.778 122.465L426.515 123.906L427.285 126.314L428.943 126.354L429.495 126.295L429.811 128.466L427.976 130.302L425.627 134.644L425.804 135.611L424.304 137.388L419.35 137.092L418.718 137.684L417.692 138L416.389 137.743L411.217 134.131L407.862 134.743L405.039 131.999L401.348 132.058L400.795 130.973L400.322 131.328L397.894 129.374L397.519 127.36L398.229 125.426L401.901 120.551L404.092 121.597L405.434 120.689L407.625 121.972L408.513 121.459L409.638 120.669L408.592 119.129L409.678 117.728H408.493L407.684 116.248L402.473 115.103L402.157 113.662L400.539 112.892L400.361 113.543L399.394 113.366L399.512 110.76L397.065 109.892L396.867 107.938L396.176 108.352L395.604 107.424L394.4 107.444L394.124 106.122L392.742 105.371L391.558 104.937L388.834 106.793L387.787 106.556L388.281 104.977L386.268 102.746L386.603 101.266L384.294 101.384L383.386 102.154L382.557 101.384L380.978 101.562L381.037 101.009L379.576 100.496L379.695 99.7459L377.819 99.4104L377.484 98.6603L377.129 97.9497L376.556 97.7918L376.517 98.5419L374.938 97.7326L374.464 97.9497L374.681 98.7788L373.951 98.9564L373.576 98.0089L371.049 97.397L369.865 96.193L369.825 94.6731L371.464 94.1599L371.246 88.2975L369.845 87.7251L368.266 90.4885L367.693 89.0673L366.213 89.1265L365.739 86.9947L366.647 87.2316L368.305 84.784L370.24 83.6391L371.957 84.0734L372.549 85.0406L372.056 85.692L376.832 84.4089L377.01 83.2444L376.773 82.5338L375.846 82.9285L375.155 79.1979L375.53 78.0531L378.471 77.3622L377.504 74.5593L380.05 70.6116L379.537 67.2955L379.102 66.6638L379.734 66.6836L379.813 64.5715L381.274 62.6963L382.853 63.7425L385.715 63.3872L386.958 62.795L387.649 60.9198L390.432 60.4264L391.025 59.1434L390.294 56.7155L391.38 55.5114L391.518 54.8403L391.814 53.6363L395.308 51.84L397.716 49.0569L396.769 47.7738L397.104 42.5233L398.821 43.7471L399.137 42.0299L399.927 43.4708L400.558 42.622L401.012 42.5233L403.539 40.9837L403.638 38.7335L404.23 38.0624L404.348 37.9242L405.158 38.0032L406.934 37.0162L408.947 36.0293L411.119 36.0885Z" fill="white"/>
<path d="M577.337 359.962L578.285 361.521L579.134 361.324L579.449 363.08L581.482 364.778L582.213 365.114L584.305 363.811L585.174 365.39L584.542 366.574L581.917 366.476L579.923 364.778L577.811 364.285L574.416 367.305L574.159 361.936L575.028 360.85L575.521 361.324L576.666 360.712L577.022 358.304L577.337 359.962ZM576.429 356.567L576.982 358.087L576.153 357.396L576.429 356.567ZM582.509 334.538L583.693 336.177L586.2 336.374L585.865 336.907L586.496 337.164L585.509 337.44L585.332 338.308L587.108 340.736L585.154 341.585L584.937 343.361L582.43 343.776L582.252 345.671L581.66 345.868L582.134 346.401L581.147 346.283L579.351 348.612L578.285 348.296L578.265 349.263L577.357 348.375L577.278 349.283L576.331 349.244L575.442 351.099L575.6 354.178L574.436 353.448L573.705 354.257L572.265 351.533L570.962 352.52L570.863 351.81L569.797 352.125V351.198L568.376 350.941L567.093 352.54L565.81 351.474L565.218 349.323L566.442 346.776L565.316 345.454L566.067 344.348L566.915 344.921L570.212 344.487L569.027 343.105L569.777 341.96L569.521 340.42L572.107 338.92L573.034 337.499L573.942 338.289L574.633 337.104L576.173 337.223L576.568 336.236L577.416 337.006L579.923 334.992L580.496 335.802L581.029 334.755L582.509 334.538ZM658.681 331.321L659.885 331.735L658.839 332.485L658.898 333.907L656.924 333.867L656.687 331.498L657.477 332.762L657.358 331.952L658.464 332.367L658.681 331.321ZM625.224 302.048L623.743 303.094L625.599 301.259L625.224 302.048ZM672.557 276.171L672.024 277.256L669.478 278.697L668.215 278.441L667.109 280.395L666.102 279.546L665.451 280.276L665.629 281.915L666.774 283.218L672.064 281.027L671.274 281.638L671.689 283.06L670.702 284.481L667.741 284.895L667.701 287.007L668.728 288.843L670.228 290.225L674.768 292.159L678.814 290.027L679.841 287.975L684.46 291.074L685.881 290.955L685.545 292.672L686.947 293.186L685.703 293.876L685.664 297.271L684.894 297.232L684.637 298.752L683.078 298.594L682.328 299.64L681.893 301.851L682.861 302.581L681.499 302.858L680.926 304.535L678.992 305.424L679.426 305.7L676.584 309.056L675.893 314.03L675.222 313.339L675.557 313.99L673.899 317.208H673.287L673.682 317.602L671.235 318.412L670.346 320.129L669.024 319.892L665.017 324.116L663.813 324.353L661.839 321.294L660.359 320.879L660.536 319.339L658.878 317.662L657.338 317.543L656.47 318.412L654.871 317.464L652.305 317.326L651.95 318.096L650.766 317.346L649.719 317.642L647.232 314.582L647.509 312.155L646.166 309.766L647.588 307.358L643.363 303.825L641.449 303.923L641.942 303.489L641.37 303.41L640.876 304.693L641.765 304.397L641.35 304.989L639.949 304.535L639.1 305.976L636.356 306.47L636.771 307.338L636.04 307.773L635.468 311.069L633.731 310.042L632.961 310.496L633.119 308.759L631.895 307.773L633.158 306.944L631.678 305.621L629.921 306.588L630.099 305.601H629.191L628.224 306.766L628.244 305.838L626.882 305.957L628.323 304.95L627.375 305.108L625.993 303.687L626.526 300.884L632.211 297.568L635.804 294.113L637.264 294.192L638.922 293.047L640.718 290.284L643.048 289.139L643.363 287.777L644.035 287.323L644.666 287.915L645.002 286.534L649.068 284.52L649.226 283.435L652.838 283.06L653.312 282.112L657.694 280.099L658.483 278.934L660.24 279.744L663.458 277.73L663.24 278.263L664.464 278.066L664.405 278.974L666.162 277.888L667.583 278.145L670.031 276.21L670.84 276.131L670.485 276.802L672.557 276.171ZM723.898 283.849L716.811 279.191L712.745 277.631L709.528 278.737L705.461 278.776L705.994 273.249L704.1 273.467L703.724 271.947L705.402 269.775L707.791 269.321L709.469 269.203L710.712 270.17L711.363 268.986L713.772 269.815L716.614 268.808L717.759 269.756L719.654 268.591L719.259 267.17L720.187 267.387L719.851 269.223L720.443 270.269L722.042 268.966L721.707 271.552L722.437 270.96L722.239 268.729L724.154 269.164L723.522 270.98L724.648 271.848L725.358 271.137L725.911 273.861L726.01 272.48L726.681 273.605H729.365L728.595 273.881L729.207 274.631L728.576 275.875L729.365 276.21L729.128 277.118L729.938 276.783L730.214 279.487L731.418 280.454L731.536 281.717L732.444 281.994L731.536 282.428L730.767 280.987L728.694 280.632L730.786 281.658L731.378 282.783L731.181 285.093L729.503 286.711L726.049 285.606L723.898 283.849Z" fill="white"/>
<path d="M350.46 26.1009L352.237 25.3706L352.868 27.3445L355.415 29.0617L357.843 28.3314L359.382 30.1276L360.27 29.9105L361.198 30.8382L362.363 30.2066L363.054 31.4501L365.185 31.2133L367.771 34.2136L373.456 36.9375L377.325 37.1941L380.266 36.0098L381.45 36.523L381.628 35.9506L382.319 37.352L384.095 37.9047L390.885 35.3584L392.997 35.7532L392.899 35.0229L394.596 34.0951L397.044 34.2136L400.676 31.0554L403.794 29.871L404.248 32.2989L402.886 33.1279L405.512 33.6806L406.637 34.6676L406.953 36.9572L405.176 37.9442L404.367 37.8652L404.248 37.9837L403.656 38.6548L403.557 40.9247L401.031 42.4644L400.577 42.563L399.945 43.3921L399.156 41.9709L398.84 43.6684L397.123 42.4644L396.787 47.7149L397.735 48.9979L395.326 51.7613L391.833 53.5575L391.556 54.7616L391.418 55.4327L390.333 56.617L391.063 59.0449L390.49 60.3279L387.688 60.8214L386.997 62.6768L385.753 63.269L382.891 63.6243L381.312 62.5781L379.832 64.4533L379.753 66.5654L379.101 66.5456L379.535 67.1773L380.049 70.4934L377.502 74.4411L378.47 77.244L375.528 77.9349L375.153 79.0797L375.825 82.8301L376.752 82.4156L377.009 83.1262L376.831 84.2908L372.054 85.5738L372.568 84.9224L371.956 83.9552L370.258 83.5209L368.324 84.6658L366.666 87.1331L365.758 86.8765L366.232 89.028L367.712 88.9688L368.284 90.39L369.863 87.6266L371.265 88.1793L371.482 94.0614L369.844 94.5746L369.883 96.0748L368.423 95.5616L366.903 96.3116L364.889 96.0156L365.146 93.8838L363.646 95.6208L364.001 96.4893L361.928 95.7392L360.586 97.2986L360.034 95.0681L357.803 96.509L357.27 95.0484L356.086 94.5746L356.145 93.3903L354.625 94.0417L355.336 92.3244L355.869 88.3569L352.77 86.4028L351.467 86.3831L350.658 89.4426L349.414 90.5479L348.763 90.2716L348.546 91.219L347.519 90.1729L347.361 89.3833L348.467 88.6925L348.546 87.1726L347.302 87.4095L347.263 85.9093L346.453 85.2579L344.795 84.5079L344.223 83.1262L344.361 82.988L344.085 81.2707L342.585 80.2443L339.9 80.5207L337.946 78.0928V77.8362L336.584 77.9349L336.229 76.04L330.958 76.6124L332.202 74.3029L330.386 73.1778L333.07 68.2432L332.518 66.7233L330.445 69.2893L328.609 68.3813L326.991 70.5921L327.82 71.4013L327.307 71.5L323.517 67.4536L326.774 62.4992L331.018 63.6243L330.899 64.8086L333.939 66.1706L337.827 65.5192L339.94 63.3282L336.623 60.999L336.88 60.2095L335.558 58.6304L331.077 58.3343L329.399 57.2487L331.274 56.6762L331.314 53.9128L330.425 53.3996L331.649 51.7021L331.254 50.7941L330.682 51.1889L329.142 50.1427L331.235 46.5503L329.952 45.7212L327.03 46.1555L325.353 44.2211L316.549 48.9387L315.641 43.4118L315.286 42.8591L314.852 41.4577L317.595 40.7076L318.424 38.9509L320.773 38.3784L321.168 36.7204L321.661 37.3125L323.142 36.7401L323.991 37.5099L326.872 36.1282L327.702 37.9639L328.688 36.8783L330.485 36.6414L330.702 32.8121L332.084 32.6937L332.715 33.5424L333.09 32.0818H333.722L336.446 33.878L337.216 33.3253L336.623 33.8583L337.887 34.8452L338.222 33.1674L336.998 31.2922L338.735 30.6408L340.571 28.4301L341.834 28.4498L341.815 26.7326L349.197 27.1471L350.46 26.1009ZM323.596 44.3198L322.412 40.3326L324.563 39.3259L325.491 39.8391L324.425 41.9117L324.484 43.9842L323.596 44.3198ZM347.638 73.9871L347.776 74.0266L347.973 74.3622L348.289 74.6385L353.224 74.0661L357.941 76.1386L360.113 75.7636L360.863 77.2045L362.501 76.3163L361.672 79.1389L360.882 80.0667L360.29 79.7903L359.816 81.1523L361.534 83.2051L364.455 82.08L364.751 84.8237L363.093 85.3566L362.758 84.5868L358.395 84.725L357.152 82.9288L354.724 82.8103L353.974 83.6788L351.329 83.3828L350.381 81.0536L348.269 80.3035L345.861 78.0533L347.48 75.0135L347.638 73.9871Z" fill="white"/>
<path d="M422.054 263.4L424.58 263.755L425.192 264.111L426.139 263.716L427.363 264.308L428.331 263.459L429.219 263.064L429.199 259.551L430.265 258.643L430.324 259.275L430.66 260.123L431.508 262.196L433.107 263.183L433.127 265.196L438.338 265.453L442.128 268.493L442.463 269.855L441.812 270.782L437.43 272.578L432.989 273.704L431.568 273.25L431.469 273.052L426.218 272.381L423.81 267.012L424.363 266.479L422.014 264.782L422.054 263.4ZM438.674 275.441L439.621 276.092L440.036 275.362L441.319 275.658L442.404 274.888L446.885 274.75L449.865 276.428L450.497 275.875L451.366 277.632L450.892 279.132L451.563 281.066L450.971 282.31L453.241 284.027L457.248 281.658L455.017 278.678L455.136 274.967L458.018 273.802L459.458 270.151L463.327 270.289L466.031 268.196L466.9 268.453L466.189 266.163L467.176 264.545L468.815 263.775L470.71 255.761L473.433 257.419L477.006 256.334L479.335 254.932L478.408 252.8L479 251.991L480.243 252.05L481.704 249.603L484.823 247.806L484.527 246.247L481.309 242.378L482 241.312L485.316 239.99L485.079 238.391L483.796 237.286L484.171 230.555L482.533 231.048L480.086 230.298L479.572 226.607L482.198 225.62L483.402 226.982L487.211 224.83L487.527 221.337L489.363 218.297L492.146 218.198L492.205 219.422L494.12 221.12L496.548 222.264L498.699 222.087L499.765 222.028L500.831 222.383L500.851 222.6L501.482 224.574L502.114 224.811L505.746 222.304L507.838 222.857L509.062 221.83L510.542 222.521L512.062 221.929L512.674 224.159H512.97L514.214 224.001L514.747 224.534L514.905 224.712L515.299 224.87L514.214 228.087L515.023 229.193L518.161 230.653L521.517 231.068L523.728 232.785L523.471 234.937L527.537 236.674L525.544 241.194L525.445 240.661L522.405 245.319L521.912 248.32L517.471 254.044L515.378 255.643L514.253 258.761L510.365 261.248L507.759 267.762L502.528 271.197L499.587 279.369L496.409 283.218L495.442 283.297L490.192 291.982L488.573 297.528L485.81 300.627L482.73 307.378L482.829 311.602L482.079 311.03L482.75 312.174L481.862 312.589L483.52 319.833L488.317 329.86L487.093 330.709L487.211 332.861L491.356 343.105L498.798 351.277L506.614 353.014L505.766 353.29L506.141 353.882L506.417 353.31V354.08L510.523 356.152L509.733 356.922L510.167 358.264L511.194 359.212L511.944 358.916L512.477 360.83L509.713 361.916L507.957 364.64L506.851 364.225L505.173 365.173L503.851 367.028L504.344 368.015L502.509 367.305L501.463 368.41L499.726 368.075L498.304 368.923L496.449 371.647L497.14 372.753L494.633 375.378L491.731 374.608L490.567 375.95L484.448 377.885L479.691 381.003L478.151 383.648L478.171 387.182L475.881 386.51L473.532 388.958L474.045 387.813L472.841 388.386L472.012 391.939L472.585 397.248L471.795 398.196L468.025 398.275L466.861 399.459L465.38 404.315L465.143 411.026L464.058 412.783L462.301 413.375L461.136 417.145L459.478 418.073L458.866 421.468L457.741 421.626L455.175 420.323L451.287 416.198L444.99 404.216L444.654 401.157L447.299 396.814L448.484 391.189L447.299 388.188L441.575 387.537L441.95 381.753L441.161 381.339L445.405 377.332L444.773 375.516L446.056 372.062L444.694 366.436L448.128 366.377L450.675 363.673L448.207 358.442L449.984 357.613L450.26 354.929L449.569 352.738L450.201 350.171L448.898 349.007L448.306 346.658L446.095 346.263L444.358 347.329L438.417 347.704L434.015 341.111L432.022 339.631L432.436 335.466L436.384 328.321L437.41 321.708L434.963 320.366L434.331 321.017L432.535 320.326L432.219 320.169L431.094 320.03H430.778L428.923 319.34L428.567 319.241L428.113 319.813L426.455 318.293L425.528 318.372V317.504L424.205 317.405L424.778 316.793L423.416 316.477L423.317 317.76L423.198 317.109L423.08 316.793L421.757 317.76L421.994 317.642L422.093 316.695L421.106 316.339L421.876 316.32L421.501 315.115L421.363 315.234L420.613 315.648L421.126 315.017H419.922L420.277 313.734H419.093L419.488 313.26L418.244 313.082L417.79 311.484L418.599 311.187L419.132 309.806L418.658 308.562L419.349 308.246L419.152 305.009L418.205 304.832L421.304 302.956L424.442 296.758L426.278 295.199L427.817 295.772L429.258 296.462L431.153 295.89L432.022 294.548L431.331 291.784L434.489 287.007L435.397 280.395L435.575 279.546L434.805 278.165L435.16 277.02L438.674 275.441Z" fill="white"/>
</svg>
