<svg width="28" height="29" viewBox="0 0 28 29" fill="none" xmlns="http://www.w3.org/2000/svg">
<path d="M18.6793 5.42747C15.7488 5.42747 13.3285 3.51637 9.64404 3.51637C8.27931 3.51637 7.05683 3.75724 5.92282 4.17641C6.07998 3.76404 6.14687 3.3225 6.11893 2.88183C6.02203 1.31945 4.74721 0.0662426 3.19036 0.00261794C1.44074 -0.0689186 0 1.33489 0 3.07682C0 4.12218 0.519368 5.04518 1.3125 5.60121V26.8125C1.3125 27.5407 1.90012 28.1311 2.625 28.1311H3.5C4.22489 28.1311 4.8125 27.5407 4.8125 26.8125V21.6258C6.36076 20.9629 8.28965 20.4103 11.0707 20.4103C14.0013 20.4103 16.4215 22.3214 20.106 22.3214C22.7402 22.3214 24.8456 21.4262 26.8055 20.0765C27.2803 19.7496 27.5625 19.2067 27.5625 18.6283V5.27154C27.5625 3.98625 26.2353 3.13589 25.0751 3.6773C23.1972 4.55354 20.894 5.42747 18.6793 5.42747Z" fill="#758C57"/>
</svg>
