<svg width="367" height="411" viewBox="0 0 367 411" fill="none" xmlns="http://www.w3.org/2000/svg">
<path d="M29.8332 85.198L34.3957 79.7448L44.4425 67.7344C44.4425 67.7344 56.4009 67.3646 65.0988 65.5365C69.755 64.5521 73.4738 63.1615 73.9061 61.1667C74.1769 59.9323 72.6248 59.0782 70.0363 58.4896C60.6873 56.3854 37.7602 57.8282 37.7602 57.8282C37.7602 57.8282 70.8696 50.4532 79.0571 45.599C80.0571 45.0105 80.6873 44.4532 80.8332 43.9532C80.9477 43.5782 80.9738 43.2344 80.9425 42.9115C80.5259 39.4219 71.1248 39.7344 58.1873 40.9792C58.1873 40.9792 81.2134 32.9271 80.9686 28.4688C80.7186 24.0104 71.5571 25.3698 69.3332 25.9948C69.3332 25.9948 73.6613 23.5209 71.9373 21.0365C71.2967 20.1198 66.9738 20.375 61.4634 21.1198C52.0884 22.3959 39.2759 25.1198 35.2811 26.0261C28.9321 27.4636 22.229 28.0677 19.7134 32.6146C17.1977 37.1615 0.0935706 84.224 0.265447 87.9375C0.406072 90.9375 6.6769 103.078 9.06753 107.609C15.3227 104.661 27.354 99.7657 34.255 97.1198L29.8332 85.198Z" fill="#FFDCA1"/>
<path d="M299.833 132.427C300.094 127.682 297.026 125.839 294.849 124.734C292.662 123.62 287.969 124.224 284.792 128.583C283.203 130.771 283.432 133.781 284.047 136.245C284.557 136.047 285.104 135.927 285.677 135.927C288.255 135.927 290.344 138.021 290.344 140.594C290.344 143.177 288.255 145.266 285.677 145.266C283.099 145.266 281.011 143.177 281.011 140.594C281.011 139.172 281.656 137.917 282.656 137.062C282.146 135.172 282.052 133.443 282.172 131.943C281.224 130.557 276.714 123.219 280.625 115.161C280.38 115.354 275.245 119.089 273.469 116.776C271.651 114.411 275.198 104.661 276.026 103.562C276.844 102.474 265.037 108.812 262.802 107.599C260.573 106.391 263.167 98.7135 265.943 97.0781C265.943 97.0781 257.542 100.948 254.292 103.432C251.026 105.906 250.24 107.599 248.667 106.51C247.464 105.677 247.078 103.568 247.479 101.292C246.636 104.12 245 108.823 243.344 109.167C240.995 109.651 239.359 105.411 239.787 102.396C239.787 102.396 236.766 109.953 234.526 109.771C232.302 109.583 231.932 108.635 231.932 108.635L229.828 112.688C229.828 112.688 220.651 131.01 223.547 151C225.75 166.224 230.391 175.797 238.87 180.547C241.521 182.036 244.542 183.062 247.995 183.62C247.995 183.62 247.787 189.479 247.073 196.068C246.656 200.016 246.047 204.234 245.203 207.594C242.969 216.568 240.203 228.141 240.203 228.141C240.203 228.141 254.104 217.76 266.427 210.552L266.438 210.542C269.229 208.911 271.927 207.448 274.38 206.292L281.958 192.599L291.646 195.667L294.323 190.609C294.307 190.484 294.297 190.411 294.297 190.411L293.281 177.688C293.281 177.688 294.479 159.214 292.136 149.849C292.136 149.849 298.302 147.724 300.224 137.714C300.609 135.672 300.766 133.844 300.745 132.224L299.833 132.427ZM246.464 160.13V160.12C243.865 158.672 242.521 156.568 242.38 155.703C242.125 154.188 241.74 152.526 244.917 152.151C248.094 151.766 253.563 149.479 257.25 147.698C259.011 146.849 260.87 146.49 262.073 147.068H262.078C263.396 147.693 263.953 149.411 262.833 152.786C260.672 159.276 254.833 161.443 254.833 161.443C251.271 161.979 248.49 161.25 246.464 160.13Z" fill="#FFDCA1"/>
<path d="M289.917 281.464C275.948 276.031 271.292 279.912 271.911 281.464C272.536 283.021 280.755 289.854 280.755 289.854C280.755 289.854 265.698 283.958 264.776 287.682C264.234 289.849 266.568 292.427 268.62 294.214C267.156 293.349 265.5 292.828 264.698 294.208C264.24 294.984 264.224 295.844 264.432 296.672C264.948 298.802 266.953 300.734 266.953 300.734C266.953 300.734 265.984 303.25 268.229 306.537C268.661 307.167 269.203 307.833 269.901 308.505C274.245 312.698 288.214 330.094 288.214 330.719C288.214 331.339 286.203 339.109 289.151 341.589C292.094 344.073 297.99 351.839 298.927 356.037C298.927 356.037 319.411 356.344 329.651 336.771C329.651 336.771 327.484 335.995 326.24 325.12C324.995 314.25 325.927 310.833 323.135 306.323C321.042 302.943 311.224 293.682 300.552 286.979C298.057 285.417 295.521 283.99 293.016 282.807C291.964 282.313 290.932 281.859 289.917 281.464Z" fill="#FFDCA1"/>
<mask id="mask0_520_41" style="mask-type:luminance" maskUnits="userSpaceOnUse" x="4" y="0" width="363" height="411">
<path d="M4 0.625H366.667V410.333H4V0.625Z" fill="white"/>
</mask>
<g mask="url(#mask0_520_41)">
<path d="M44.4428 67.7396C44.4428 67.7396 56.4012 67.3698 65.0991 65.5417L48.4376 89.3438L34.4012 79.7604L44.4428 67.7396ZM70.0262 58.5L79.0522 45.6094C70.8647 50.4583 37.7501 57.8333 37.7501 57.8333C37.7501 57.8333 60.6772 56.3854 70.0262 58.5ZM71.9168 21.0365C73.6564 23.5104 69.3178 25.9948 69.3178 25.9948C71.5418 25.3698 80.7033 24.0104 80.9481 28.4688C81.1981 32.9271 58.172 40.9792 58.172 40.9792C71.1147 39.7292 80.5106 39.4219 80.9272 42.9115L106.703 6.09896L100.354 1.99479L76.1876 0.625L61.4481 21.1198C66.9585 20.3646 71.2814 20.1198 71.9168 21.0365ZM274.38 206.307C271.932 207.453 269.219 208.927 266.438 210.562L270.86 212.667L274.38 206.307ZM266.427 210.562C254.099 217.771 240.203 228.151 240.203 228.151C240.203 228.151 242.969 216.583 245.203 207.604C247.448 198.62 247.995 183.63 247.995 183.63C244.552 183.062 241.521 182.047 238.87 180.557H238.849C238.849 180.557 229.761 183.781 228.979 188.052C228.979 188.052 225.464 184.104 222.031 185.307C218.604 186.505 218.36 189.271 218.36 189.271C218.36 189.271 208.583 183.464 201.714 180.557C194.844 177.646 181.563 178.672 169.729 179.229C157.901 179.786 131.453 180.901 116.156 177.156C100.865 173.411 96.2762 168.339 86.422 157.786C76.5678 147.234 63.6668 126.052 60.922 119C58.1616 111.943 55.2501 106.62 48.5522 108.51C48.5522 108.51 40.896 95.1823 39.4376 95.2865C39.1043 95.3125 37.1147 96.026 34.2658 97.1146C27.3595 99.7604 15.3335 104.651 9.07826 107.599C6.66159 108.74 5.10951 109.583 5.03138 109.901C4.72409 111.359 12.4428 125.125 14.3178 127.641C14.3178 127.641 10.4949 133.302 10.2241 137.417C9.94805 141.516 34.5522 170.135 65.646 199.891C85.3283 218.719 109.052 235.911 131.25 246.667C144.125 252.922 156.5 256.99 167.281 257.974C167.281 257.974 164.516 265.26 164.375 270.234C164.245 275.208 170.875 315.953 170.875 315.953C170.875 315.953 164.422 323.245 155.599 335.411C159.636 337.016 160.412 338.203 160.412 338.203L253.375 291.51L237.386 284.057L266.427 210.562ZM364.266 390.25C360.802 378.781 360.005 376.938 360.005 376.938C360.005 376.938 361.063 337.266 361.063 326.849C361.063 316.438 359.875 286.917 352.891 272.422C350.662 267.792 348.167 263.557 345.516 259.776L300.547 286.974C311.224 293.672 321.031 302.932 323.13 306.318C325.922 310.823 324.985 314.24 326.229 325.115C327.474 335.984 329.646 336.766 329.646 336.766C319.401 356.328 298.917 356.026 298.917 356.026C297.985 351.833 292.089 344.062 289.141 341.583C286.193 339.099 288.208 331.333 288.208 330.708C288.208 330.089 274.24 312.693 269.891 308.495C269.188 307.818 268.646 307.161 268.219 306.531L120.688 395.74L115.094 410.12H364.266C364.266 410.13 367.724 401.719 364.266 390.25ZM308.865 230.792L314.219 233.344L299.12 268.536L336.849 249.583C333.755 246.625 330.63 244.323 327.615 242.771C327.615 242.771 329.36 238.729 326.745 235.542C324.141 232.344 320.219 231.255 321.375 228.568C322.547 225.88 326.026 224.359 324.568 220.505C323.62 217.984 319.474 215.99 316.735 214.917L316.167 216.052L308.865 230.792ZM295.037 189.281L294.323 190.615L291.646 195.682L288.557 201.521L316.177 216.068L316.74 214.938L321.219 205.896L322.422 203.474L295.037 189.281ZM246.464 160.12V160.13C248.495 161.25 251.271 161.979 254.823 161.432C254.823 161.432 260.672 159.271 262.823 152.781C263.948 149.406 263.391 147.682 262.073 147.062H262.063C261.599 147.219 249.177 151.354 246.464 160.12Z" fill="#FB957C"/>
</g>
<path d="M302.562 131.859L300.734 132.24L299.844 132.417C300.094 127.677 297.031 125.839 294.849 124.724C292.672 123.609 287.969 124.219 284.802 128.583C283.213 130.771 283.432 133.781 284.057 136.24C284.562 136.047 285.115 135.927 285.687 135.927C288.266 135.927 290.354 138.016 290.354 140.594C290.354 143.177 288.266 145.266 285.687 145.266C283.104 145.266 281.016 143.177 281.016 140.594C281.016 139.177 281.667 137.917 282.661 137.057C282.156 135.162 282.057 133.443 282.182 131.943C282.453 128.698 283.76 126.51 284.203 125.896C284.995 124.807 288.667 120.432 295.615 122.422C302.562 124.412 302.562 131.859 302.562 131.859ZM308.865 230.792L316.167 216.057L288.552 201.516L291.635 195.672L281.953 192.609L274.37 206.297L270.849 212.656L308.865 230.792ZM266.943 300.719C266.943 300.719 264.948 298.787 264.422 296.667L253.375 291.51L160.411 338.203C160.411 338.203 159.635 337.016 155.599 335.412C153.307 334.5 149.958 333.453 145.099 332.422C131.713 329.568 105.031 332.453 80.3176 344.479C55.6197 356.51 43.9322 371.547 43.9322 378.224C43.9322 384.906 47.276 384.234 50.9427 384.234C50.9427 384.234 41.5989 397.229 43.9322 410.109H115.099L120.693 395.729L121.203 395.422L268.219 306.505C265.979 303.234 266.943 300.719 266.943 300.719ZM293.005 282.802C295.51 283.979 298.047 285.406 300.547 286.974L345.516 259.776C342.745 255.839 339.812 252.412 336.849 249.583L299.12 268.537L293.005 282.802Z" fill="white"/>
<path d="M231.932 108.641C231.932 108.641 230.729 110.594 229.828 112.698C229.828 112.698 223.745 109.208 226.479 101.859C229.213 94.5104 242.37 77.5781 265.943 75.6979C289.526 73.8125 291.219 78.7761 291.219 78.7761C291.219 78.7761 293.854 72.3542 298.755 70.8959C303.651 69.4375 330.344 75.5729 330.75 93.8854C331.161 112.198 328.073 119.401 333.63 125.578C339.182 131.745 353.849 142.323 350.974 156.469C348.109 170.609 334.38 178.401 353.021 195.01C353.021 195.01 340.87 205.49 321.203 205.891L322.406 203.464L295.026 189.271L294.312 190.609C294.297 190.484 294.292 190.422 294.292 190.422L293.266 177.698C293.266 177.698 294.463 159.219 292.12 149.854C292.12 149.854 298.292 147.724 300.203 137.719C300.594 135.688 300.75 133.859 300.719 132.229L302.542 131.854C302.542 131.854 302.542 124.406 295.599 122.422C288.656 120.443 284.979 124.807 284.187 125.896C283.745 126.505 282.432 128.698 282.167 131.943C281.224 130.552 276.703 123.203 280.635 115.156C280.635 115.156 275.286 119.156 273.469 116.786C271.651 114.417 275.198 104.667 276.016 103.568C276.833 102.479 265.036 108.813 262.802 107.599C260.562 106.391 263.161 98.7136 265.943 97.0834C265.943 97.0834 257.542 100.948 254.286 103.432C251.026 105.911 250.239 107.599 248.667 106.51C247.463 105.677 247.078 103.568 247.479 101.302C246.635 104.125 244.989 108.839 243.354 109.172C240.995 109.656 239.364 105.432 239.792 102.406C239.792 102.406 236.771 109.958 234.536 109.781C232.302 109.599 231.932 108.641 231.932 108.641ZM264.693 294.198C265.495 292.823 267.146 293.328 268.614 294.208C266.557 292.422 264.224 289.839 264.766 287.677C265.698 283.948 280.75 289.849 280.75 289.849C280.75 289.849 272.521 283.016 271.906 281.458C271.281 279.901 275.943 276.026 289.911 281.458C290.927 281.849 291.958 282.302 292.995 282.792L299.114 268.526L314.213 233.339L308.854 230.781L270.849 212.656L266.427 210.552L237.385 284.057L253.37 291.51L264.411 296.667C264.224 295.839 264.239 294.984 264.693 294.198Z" fill="#CC5A27"/>
<path d="M246.463 160.12C243.864 158.672 242.521 156.568 242.38 155.703C242.125 154.188 241.739 152.526 244.916 152.151C248.093 151.766 253.562 149.479 257.25 147.698C259.01 146.849 260.87 146.49 262.073 147.068C261.599 147.219 249.177 151.354 246.463 160.12ZM249.135 105.807C247.979 96.3177 253.885 87.349 263.109 84.7812C263.932 84.5521 263.578 83.2812 262.76 83.5104C253.026 86.224 246.599 95.7448 247.817 105.807C247.922 106.635 249.234 106.641 249.135 105.807ZM264.192 98.9427C268.87 95.5573 274.531 93.8125 280.307 94C281.151 94.026 281.151 92.7135 280.307 92.6823C274.328 92.4844 268.375 94.2969 263.531 97.8021C262.843 98.3021 263.505 99.4427 264.192 98.9427ZM241.276 106.406C239.843 102.453 240.234 98.0208 242.38 94.401C242.812 93.6719 241.677 93.0104 241.239 93.7396C238.932 97.6354 238.458 102.495 240.005 106.755C240.291 107.542 241.562 107.208 241.276 106.406ZM232.817 108.349C230.489 106.292 231.791 102.875 232.745 100.479C232.875 100.151 232.593 99.7604 232.286 99.6719C231.906 99.5625 231.604 99.8021 231.474 100.13C230.817 101.76 230.156 103.453 230.198 105.24C230.229 106.74 230.745 108.266 231.885 109.271C232.515 109.839 233.453 108.911 232.817 108.349ZM274.453 105.609C274.187 106.411 275.458 106.766 275.719 105.964C276.833 102.589 279.755 99.9635 283.213 99.1615C284.041 98.974 283.687 97.7031 282.859 97.8906C278.953 98.7917 275.703 101.807 274.453 105.609ZM282.948 109.328C279.578 114.073 278.276 120.036 279.25 125.766C279.39 126.604 280.656 126.25 280.521 125.411C279.604 120.031 280.937 114.432 284.088 109.995C284.578 109.307 283.442 108.651 282.948 109.328ZM302.896 124.021C302.067 124.193 302.422 125.464 303.25 125.292C309.833 123.922 313.203 117.99 315.495 112.125C315.666 119.385 312.771 126.536 307.479 131.583C306.864 132.167 307.802 133.099 308.416 132.516C313.583 127.594 316.609 120.661 316.812 113.568C318.51 121.635 317.979 130.125 315.187 137.927C312.041 146.693 306.099 154.031 300.833 161.589C297.89 165.807 295.125 170.151 293.073 174.875C292.734 175.646 293.875 176.318 294.208 175.542C298.005 166.818 304.187 159.505 309.422 151.641C311.969 147.812 314.291 143.823 315.979 139.542C317.823 134.875 318.844 129.885 319.067 124.88C319.323 119.219 318.515 113.531 316.724 108.167C316.463 107.391 315.276 107.693 315.448 108.443C313.271 114.771 310.255 122.49 302.896 124.021ZM286.979 89.5156C296.125 89.0521 305.161 93.5417 310.349 101.062C305.817 99.2187 300.75 98.9062 296.015 100.245C295.208 100.474 295.552 101.745 296.37 101.516C301.526 100.057 307.12 100.661 311.838 103.208C312.041 103.318 312.229 103.307 312.396 103.234C312.828 103.677 313.713 103.078 313.401 102.391C308.588 91.8802 300.479 83.0208 290.458 77.2708C289.724 76.8437 289.057 77.9844 289.797 78.4062C297.969 83.0937 304.786 89.8646 309.578 97.9323C304 91.5156 295.536 87.7552 286.979 88.1979C286.146 88.25 286.135 89.5573 286.979 89.5156ZM321.416 204.573C317.151 213.115 312.885 221.661 308.62 230.208C308.245 230.964 309.38 231.635 309.755 230.87C314.021 222.328 318.286 213.781 322.552 205.234C322.932 204.479 321.791 203.818 321.416 204.573ZM271.87 212.599C275.317 206.224 278.776 199.849 282.224 193.469C285.005 194.531 287.885 195.312 290.828 195.781C287.047 202.703 283.271 209.62 279.489 216.542C279.078 217.286 280.213 217.948 280.625 217.203C285.573 208.151 290.515 199.099 295.463 190.052C304.312 194.911 313.291 199.542 322.38 203.932C323.146 204.302 323.807 203.161 323.047 202.792C317.479 200.104 311.958 197.312 306.484 194.453C306.458 194.344 306.427 194.24 306.333 194.13C304.297 191.771 304.755 188.495 305.583 185.734C306.416 182.938 307.573 180.25 308.463 177.474C310.01 172.641 310.724 167.141 308.015 162.573C307.578 161.844 306.442 162.505 306.875 163.234C309.953 168.422 308.166 174.568 306.26 179.818C304.786 183.875 302.349 189.083 304.265 193.281C301.396 191.766 298.541 190.234 295.698 188.677C295.495 188.562 295.297 188.578 295.135 188.651C294.922 188.635 294.698 188.719 294.562 188.964C293.536 190.828 292.521 192.698 291.5 194.568C288.323 194.089 285.219 193.255 282.229 192.078C281.927 191.953 281.687 192.078 281.557 192.281C281.427 192.323 281.302 192.411 281.224 192.568C277.729 199.026 274.239 205.479 270.745 211.938C270.333 212.682 271.469 213.344 271.87 212.599ZM329.958 149.406C332.036 154.797 330.166 160.458 327.698 165.365C325.354 170.026 322.406 174.516 321.349 179.703C320.344 184.661 320.974 189.885 323.151 194.453C325.37 199.099 329.187 202.901 333.781 205.203C334.531 205.578 335.203 204.448 334.442 204.062C325.14 199.401 320.182 188.656 322.989 178.547C325.656 168.911 335.14 160.073 331.349 149.365C329.578 144.38 325.567 140.62 321.75 137.156C321.13 136.583 320.198 137.516 320.817 138.089C324.37 141.323 328.187 144.807 329.958 149.406ZM329.864 109.344C329.719 114.469 330.203 119.734 332.708 124.307C335.041 128.562 338.692 131.87 342.073 135.276C346.031 139.271 350.047 143.99 350.427 149.854C350.484 150.698 351.791 150.698 351.745 149.854C351.057 139.062 340.453 133.589 334.958 125.453C328.12 115.333 333.067 103.062 331.364 91.8802C330.594 86.8125 328.271 81.8333 323.932 78.901C323.224 78.4219 322.573 79.5625 323.265 80.0365C332.739 86.4635 330.135 99.7031 329.864 109.344ZM351.26 154.531C348.307 162.391 343.573 169.896 343.359 178.526C343.198 185.161 346.437 192.25 353.104 194.443C353.911 194.703 354.255 193.438 353.453 193.172C346.724 190.964 344.172 183.417 344.765 176.932C345.489 169.062 349.797 162.135 352.531 154.875C352.823 154.089 351.557 153.745 351.26 154.531ZM245.614 144.568C244.286 143.849 242.812 143.031 241.995 141.708C240.89 139.943 241.968 138.062 242.911 136.49C244.916 133.115 247.234 129.937 249.812 126.969C250.37 126.333 249.448 125.396 248.88 126.036C245.916 129.427 243 133.182 240.979 137.229C240.151 138.885 239.843 140.719 240.849 142.375C241.781 143.896 243.411 144.875 244.942 145.708C245.698 146.109 246.359 144.979 245.614 144.568ZM282.5 136.656C281.245 137.688 280.567 139.417 280.781 141.021C280.828 141.375 281.052 141.677 281.437 141.677C281.755 141.677 282.14 141.375 282.088 141.021C281.927 139.76 282.359 138.474 283.359 137.641C284.344 136.818 285.734 136.646 286.911 137.062C287.25 137.177 287.635 136.932 287.724 136.604C287.823 136.245 287.599 135.917 287.265 135.797C287.14 135.755 287.026 135.729 286.906 135.698C286.922 135.661 286.948 135.63 286.963 135.599C287.062 135.589 287.151 135.568 287.239 135.526C288.385 135.01 289.901 135.229 290.854 136.104C291.833 137.005 292.177 138.406 291.807 139.646C291.562 140.458 292.833 140.807 293.078 140C293.588 138.302 293.062 136.302 291.719 135.125C290.719 134.245 289.411 133.87 288.125 133.995C288.812 133.188 289.625 132.495 290.604 132.036C292.187 131.307 294.14 131.437 295.349 132.771C295.911 133.401 296.844 132.469 296.281 131.839C294.807 130.198 292.38 129.906 290.401 130.693C288.172 131.583 286.651 133.484 285.463 135.5C285.458 135.51 285.463 135.516 285.458 135.526C284.401 135.573 283.344 135.969 282.5 136.656ZM284.849 142.292C284.864 142.307 284.875 142.318 284.844 142.286C284.844 142.286 284.844 142.286 284.849 142.292C284.844 142.292 284.844 142.292 284.849 142.292ZM285.765 139.885C285.666 139.906 285.573 139.943 285.479 139.979C285.594 139.932 285.364 140.047 285.344 140.062C285.276 140.104 285.208 140.146 285.146 140.193C285.13 140.214 285.073 140.26 285.062 140.26C285.031 140.286 285.005 140.318 284.974 140.344C284.932 140.385 284.89 140.432 284.849 140.474C284.849 140.479 284.844 140.479 284.844 140.49C284.791 140.562 284.745 140.646 284.703 140.729C284.692 140.745 284.677 140.792 284.672 140.802C284.661 140.828 284.651 140.849 284.646 140.875C284.62 140.948 284.594 141.031 284.578 141.115C284.573 141.146 284.562 141.177 284.562 141.208C284.562 141.219 284.562 141.219 284.562 141.234C284.557 141.333 284.557 141.438 284.562 141.536C284.562 141.573 284.573 141.604 284.573 141.635C284.573 141.646 284.573 141.646 284.578 141.661C284.594 141.745 284.614 141.818 284.635 141.901C284.646 141.932 284.661 141.964 284.672 142.005C284.672 142.016 284.677 142.021 284.677 142.021C284.729 142.109 284.776 142.193 284.823 142.286C284.823 142.292 284.833 142.302 284.844 142.302C284.833 142.292 284.833 142.292 284.833 142.286C284.844 142.292 284.844 142.292 284.849 142.302C284.849 142.302 284.849 142.307 284.859 142.307C284.875 142.333 284.901 142.349 284.916 142.375C284.958 142.422 285.005 142.464 285.057 142.505C285.062 142.516 285.161 142.578 285.187 142.594C285.234 142.63 285.286 142.651 285.344 142.677C285.349 142.677 285.359 142.688 285.375 142.693C285.437 142.719 285.495 142.745 285.562 142.76C285.635 142.781 285.708 142.792 285.791 142.807C285.651 142.776 285.859 142.807 285.906 142.807C285.963 142.807 286.021 142.807 286.078 142.807C286.088 142.807 286.094 142.807 286.104 142.807C286.166 142.802 286.234 142.781 286.297 142.766C286.338 142.76 286.375 142.745 286.406 142.734C286.422 142.724 286.422 142.734 286.432 142.724C286.432 142.724 286.432 142.724 286.448 142.719C286.521 142.677 286.594 142.635 286.666 142.589C286.682 142.573 286.734 142.547 286.734 142.536C286.755 142.516 286.781 142.495 286.807 142.474C286.88 142.406 286.948 142.344 287.01 142.266C287.047 142.234 287.067 142.203 287.094 142.167C287.104 142.161 287.125 142.13 287.14 142.104C287.161 142.078 287.182 142.047 287.182 142.047C287.208 142.016 287.234 141.974 287.255 141.938C287.312 141.844 287.38 141.75 287.427 141.646C287.453 141.604 287.469 141.562 287.495 141.521C287.505 141.505 287.505 141.505 287.505 141.495C287.505 141.49 287.505 141.495 287.505 141.49C287.536 141.406 287.562 141.318 287.583 141.229C287.583 141.219 287.594 141.177 287.599 141.151C287.599 141.12 287.609 141.021 287.609 141.031C287.609 141.021 287.609 140.964 287.599 140.943C287.594 140.917 287.594 140.891 287.594 140.885C287.583 140.844 287.567 140.807 287.562 140.766C287.562 140.766 287.562 140.766 287.552 140.76C287.536 140.729 287.521 140.703 287.495 140.672C287.484 140.661 287.469 140.646 287.463 140.635C287.453 140.635 287.422 140.615 287.411 140.604C287.396 140.594 287.37 140.578 287.354 140.573C287.026 140.401 286.963 139.974 287.12 139.672C287.291 139.344 287.713 139.276 288.021 139.432C288.599 139.734 288.916 140.391 288.916 141.021C288.916 141.635 288.64 142.234 288.297 142.724C287.698 143.573 286.807 144.208 285.724 144.104C284.672 143.995 283.786 143.349 283.411 142.344C283.047 141.365 283.302 140.229 283.989 139.464C284.692 138.688 285.781 138.391 286.797 138.557C287.156 138.615 287.333 139.047 287.255 139.365C287.177 139.734 286.781 139.885 286.448 139.828C286.422 139.828 286.422 139.818 286.411 139.818C286.406 139.818 286.406 139.818 286.38 139.818C286.338 139.818 286.297 139.807 286.26 139.807C286.166 139.807 286.088 139.818 285.995 139.828C285.979 139.828 285.896 139.844 285.89 139.844C285.849 139.859 285.807 139.865 285.765 139.885ZM284.661 141.979C284.646 141.932 284.651 141.958 284.661 141.979V141.979ZM284.859 140.458C284.875 140.443 284.901 140.401 284.859 140.458V140.458ZM284.286 149.37C283.474 149.109 283.13 150.38 283.932 150.641C288.182 152.036 292.875 150.354 295.958 147.281C299.432 143.823 300.88 138.901 301.505 134.167C301.609 133.328 300.302 133.339 300.187 134.167C299.62 138.474 298.286 142.974 295.208 146.167C292.437 149.042 288.182 150.651 284.286 149.37ZM232.218 116.531C230.916 116.984 229.927 118.359 230.375 119.776C230.797 121.062 232.218 122.094 233.62 121.62C235.364 121.021 237.146 120.594 238.974 120.328C239.75 120.234 240.536 120.161 241.323 120.13C242.698 120.073 244.015 118.958 243.958 117.49C243.896 116.115 242.797 114.797 241.323 114.854C238.239 114.974 235.14 115.526 232.218 116.531ZM270.594 120.104C267.187 118.219 263.635 116.604 259.989 115.24C258.698 114.755 257.052 115.776 256.755 117.083C256.411 118.578 257.218 119.802 258.599 120.318C259.458 120.646 260.37 120.948 261.198 121.349C261.177 121.344 261.172 121.344 261.156 121.333C261.198 121.349 261.229 121.365 261.255 121.375C261.484 121.474 261.713 121.573 261.932 121.667C262.333 121.844 262.729 122.021 263.12 122.208C264.755 122.964 266.364 123.781 267.932 124.661C269.135 125.323 270.859 124.995 271.536 123.719C272.198 122.474 271.89 120.818 270.594 120.104ZM279.052 173.229C278.838 173.474 278.62 173.708 278.396 173.938C278.479 174.052 278.588 174.141 278.719 174.188C278.932 173.641 279.036 173.297 279.052 173.229ZM278.135 174.917C278.135 174.724 278.052 174.552 277.922 174.427C277.604 174.745 277.276 175.057 276.932 175.354C277.057 175.51 277.245 175.604 277.448 175.604C277.833 175.604 278.135 175.297 278.135 174.917ZM276.344 175.844C276.041 176.089 275.729 176.333 275.416 176.568C275.469 176.901 275.739 177.156 276.083 177.156C276.458 177.156 276.771 176.854 276.771 176.469C276.771 176.188 276.599 175.943 276.344 175.844ZM273.224 182.948C273.229 182.948 273.239 182.948 273.25 182.938C273.469 182.688 273.687 182.432 273.896 182.177C273.854 181.844 273.573 181.573 273.224 181.573C272.849 181.573 272.536 181.875 272.536 182.26C272.541 182.635 272.849 182.948 273.224 182.948ZM276.771 177.911C276.771 177.958 276.786 178.005 276.802 178.057C276.963 177.786 277.114 177.526 277.25 177.271C276.974 177.354 276.771 177.599 276.771 177.911ZM274.588 178.531C274.969 178.531 275.276 178.229 275.276 177.844C275.276 177.469 274.974 177.161 274.599 177.161C274.385 177.312 274.182 177.448 273.958 177.583C273.927 177.661 273.911 177.755 273.911 177.844C273.911 178.219 274.213 178.531 274.588 178.531ZM275.646 179.849C275.911 179.464 276.156 179.089 276.385 178.729C276.291 178.677 276.198 178.656 276.083 178.656C275.703 178.656 275.39 178.958 275.39 179.344C275.401 179.547 275.5 179.729 275.646 179.849ZM274.453 181.49C274.703 181.161 274.953 180.833 275.187 180.516C275.073 180.302 274.854 180.156 274.599 180.156C274.224 180.156 273.911 180.458 273.911 180.844C273.911 181.161 274.151 181.417 274.453 181.49ZM273.224 178.714C272.849 178.714 272.536 179.016 272.536 179.401C272.536 179.786 272.838 180.089 273.224 180.089C273.599 180.089 273.911 179.786 273.911 179.401C273.911 179.016 273.609 178.714 273.224 178.714ZM271.734 180.078C271.354 180.078 271.047 180.385 271.047 180.771C271.047 181.156 271.349 181.458 271.734 181.458C272.12 181.458 272.422 181.156 272.422 180.771C272.422 180.385 272.109 180.078 271.734 180.078ZM267.51 182.948C267.885 182.948 268.198 182.646 268.198 182.26C268.198 181.885 267.89 181.573 267.51 181.573C267.13 181.573 266.823 181.875 266.823 182.26C266.823 182.635 267.13 182.948 267.51 182.948ZM271.052 179.333C271.052 179.302 271.036 179.271 271.036 179.234C270.651 179.427 270.26 179.615 269.864 179.786C269.989 179.927 270.172 180.016 270.375 180.016C270.745 180.021 271.052 179.714 271.052 179.333ZM268.974 180.161C268.76 180.25 268.547 180.333 268.333 180.417C268.245 180.531 268.187 180.672 268.187 180.828C268.187 181.203 268.489 181.516 268.875 181.516C269.25 181.516 269.562 181.214 269.562 180.828C269.557 180.49 269.302 180.219 268.974 180.161ZM270.364 183.005C270.745 183.005 271.052 182.703 271.052 182.318C271.052 181.943 270.75 181.63 270.364 181.63C269.979 181.63 269.677 181.932 269.677 182.318C269.687 182.703 269.989 183.005 270.364 183.005ZM267.51 187.422C267.13 187.422 266.823 187.724 266.823 188.109C266.823 188.292 266.896 188.448 267 188.568C267.37 188.307 267.729 188.036 268.083 187.776C267.969 187.568 267.755 187.422 267.51 187.422ZM271.734 184.438C271.791 184.438 271.849 184.422 271.896 184.406C272.067 184.234 272.224 184.062 272.39 183.891C272.396 183.849 272.411 183.807 272.411 183.76C272.411 183.38 272.109 183.073 271.724 183.073C271.338 183.073 271.036 183.375 271.036 183.76C271.052 184.135 271.354 184.438 271.734 184.438ZM268.875 183.005C268.5 183.005 268.187 183.307 268.187 183.693C268.187 184.073 268.489 184.38 268.875 184.38C269.25 184.38 269.562 184.078 269.562 183.693C269.557 183.318 269.25 183.005 268.875 183.005ZM270.364 185.875C270.594 185.667 270.823 185.464 271.036 185.26C271.036 185.234 271.052 185.219 271.052 185.193C271.052 184.818 270.75 184.505 270.364 184.505C269.979 184.505 269.677 184.807 269.677 185.193C269.687 185.562 269.989 185.875 270.364 185.875ZM268.672 187.323C268.974 187.083 269.26 186.839 269.547 186.604C269.505 186.266 269.229 185.995 268.875 185.995C268.5 185.995 268.187 186.297 268.187 186.682C268.187 186.99 268.39 187.234 268.672 187.323ZM267.51 184.562C267.13 184.562 266.823 184.865 266.823 185.25C266.823 185.625 267.125 185.938 267.51 185.938C267.885 185.938 268.198 185.635 268.198 185.25C268.187 184.875 267.885 184.562 267.51 184.562ZM266.64 181.036C266.323 181.146 266 181.25 265.682 181.349C265.781 181.406 265.896 181.448 266.015 181.448C266.297 181.448 266.536 181.286 266.64 181.036ZM262.474 182.26C262.474 182.25 262.463 182.234 262.463 182.229C262.021 182.323 261.588 182.422 261.156 182.516C261.255 182.766 261.5 182.948 261.786 182.948C262.161 182.948 262.474 182.635 262.474 182.26ZM264.698 181.646C264.562 181.688 264.411 181.719 264.276 181.76C264.093 181.885 263.963 182.078 263.963 182.318C263.963 182.693 264.265 183.005 264.651 183.005C265.026 183.005 265.338 182.703 265.338 182.318C265.328 181.964 265.052 181.677 264.698 181.646ZM266.698 186.62C266.698 186.24 266.396 185.932 266.01 185.932C265.625 185.932 265.323 186.234 265.323 186.62C265.323 186.995 265.625 187.307 266.01 187.307C266.396 187.307 266.698 186.995 266.698 186.62ZM261.786 187.422C261.406 187.422 261.099 187.724 261.099 188.109C261.099 188.484 261.401 188.797 261.786 188.797C262.161 188.797 262.474 188.495 262.474 188.109C262.474 187.734 262.161 187.422 261.786 187.422ZM266.015 184.438C266.396 184.438 266.708 184.135 266.708 183.75C266.708 183.375 266.401 183.062 266.015 183.062C265.635 183.062 265.328 183.365 265.328 183.75C265.328 184.135 265.635 184.438 266.015 184.438ZM263.151 183.005C262.776 183.005 262.463 183.307 262.463 183.693C262.463 184.073 262.765 184.38 263.151 184.38C263.531 184.38 263.838 184.078 263.838 183.693C263.838 183.318 263.531 183.005 263.151 183.005ZM264.64 184.505C264.265 184.505 263.953 184.807 263.953 185.193C263.953 185.568 264.255 185.88 264.64 185.88C265.026 185.88 265.328 185.578 265.328 185.193C265.328 184.807 265.026 184.505 264.64 184.505ZM263.151 187.365C263.531 187.365 263.838 187.062 263.838 186.677C263.838 186.297 263.536 185.99 263.151 185.99C262.776 185.99 262.463 186.292 262.463 186.677C262.474 187.052 262.776 187.365 263.151 187.365ZM264.64 188.854C265.021 188.854 265.328 188.552 265.328 188.167C265.328 187.792 265.026 187.479 264.64 187.479C264.255 187.479 263.953 187.781 263.953 188.167C263.963 188.552 264.265 188.854 264.64 188.854ZM261.786 184.562C261.406 184.562 261.099 184.865 261.099 185.25C261.099 185.625 261.401 185.938 261.786 185.938C262.161 185.938 262.474 185.635 262.474 185.25C262.474 184.875 262.161 184.562 261.786 184.562ZM266.354 189.021C266.255 188.964 266.14 188.922 266.015 188.922C265.64 188.922 265.328 189.224 265.328 189.609C265.328 189.635 265.338 189.656 265.349 189.682C265.692 189.464 266.026 189.24 266.354 189.021ZM263.151 188.854C262.776 188.854 262.463 189.156 262.463 189.542C262.463 189.922 262.765 190.224 263.151 190.224C263.531 190.224 263.838 189.922 263.838 189.542C263.838 189.156 263.531 188.854 263.151 188.854ZM261.786 190.411C261.406 190.411 261.099 190.714 261.099 191.099C261.099 191.427 261.328 191.693 261.635 191.755C261.901 191.625 262.161 191.495 262.416 191.365C262.448 191.281 262.463 191.198 262.463 191.099C262.474 190.714 262.161 190.411 261.786 190.411ZM259.343 182.849C259.125 182.891 258.901 182.922 258.682 182.958C258.755 182.979 258.838 183.005 258.922 183.005C259.093 183.005 259.229 182.938 259.343 182.849ZM260.297 185.932C259.916 185.932 259.609 186.234 259.609 186.62C259.609 186.995 259.911 187.307 260.297 187.307C260.682 187.307 260.984 187.005 260.984 186.62C260.974 186.24 260.672 185.932 260.297 185.932ZM256.067 187.422C255.692 187.422 255.38 187.724 255.38 188.109C255.38 188.484 255.687 188.797 256.067 188.797C256.453 188.797 256.755 188.495 256.755 188.109C256.75 187.734 256.448 187.422 256.067 187.422ZM260.297 183.073C259.916 183.073 259.609 183.375 259.609 183.76C259.609 184.135 259.911 184.448 260.297 184.448C260.682 184.448 260.984 184.146 260.984 183.76C260.974 183.375 260.672 183.073 260.297 183.073ZM257.75 183.094C257.479 183.135 257.218 183.167 256.963 183.203C256.833 183.323 256.75 183.495 256.75 183.693C256.75 184.073 257.052 184.38 257.437 184.38C257.823 184.38 258.125 184.078 258.125 183.693C258.114 183.432 257.968 183.208 257.75 183.094ZM258.927 184.505C258.552 184.505 258.239 184.807 258.239 185.193C258.239 185.568 258.541 185.88 258.927 185.88C259.312 185.88 259.614 185.578 259.614 185.193C259.609 184.807 259.302 184.505 258.927 184.505ZM257.437 185.995C257.062 185.995 256.75 186.297 256.75 186.682C256.75 187.062 257.052 187.375 257.437 187.375C257.823 187.375 258.125 187.068 258.125 186.682C258.114 186.297 257.812 185.995 257.437 185.995ZM258.927 187.49C258.552 187.49 258.239 187.792 258.239 188.177C258.239 188.552 258.541 188.854 258.922 188.865C259.297 188.865 259.599 188.562 259.599 188.177C259.609 187.792 259.302 187.49 258.927 187.49ZM256.067 184.562C255.692 184.562 255.38 184.865 255.38 185.25C255.38 185.625 255.687 185.938 256.067 185.938C256.453 185.938 256.755 185.635 256.755 185.25C256.75 184.875 256.448 184.562 256.067 184.562ZM260.297 191.781C259.916 191.781 259.609 192.083 259.609 192.469C259.609 192.542 259.625 192.609 259.646 192.672C260.067 192.495 260.468 192.307 260.87 192.125C260.745 191.922 260.541 191.781 260.297 191.781ZM256.067 193.271C255.692 193.271 255.38 193.573 255.38 193.958C255.38 194.052 255.401 194.13 255.432 194.214C255.864 194.073 256.291 193.938 256.718 193.786C256.635 193.495 256.38 193.271 256.067 193.271ZM260.297 188.922C259.916 188.922 259.609 189.224 259.609 189.609C259.609 189.995 259.911 190.297 260.297 190.297C260.682 190.297 260.984 189.995 260.984 189.609C260.984 189.224 260.672 188.922 260.297 188.922ZM257.437 188.854C257.062 188.854 256.75 189.156 256.75 189.542C256.75 189.922 257.052 190.224 257.437 190.224C257.823 190.224 258.125 189.922 258.125 189.542C258.114 189.156 257.812 188.854 257.437 188.854ZM258.927 190.349C258.552 190.349 258.239 190.651 258.239 191.036C258.239 191.411 258.541 191.724 258.927 191.724C259.312 191.724 259.614 191.422 259.614 191.036C259.609 190.656 259.302 190.349 258.927 190.349ZM257.437 191.844C257.062 191.844 256.75 192.151 256.75 192.536C256.75 192.911 257.052 193.224 257.437 193.224C257.823 193.224 258.125 192.922 258.125 192.536C258.114 192.151 257.812 191.844 257.437 191.844ZM256.067 190.411C255.692 190.411 255.38 190.714 255.38 191.099C255.38 191.479 255.687 191.786 256.067 191.786C256.453 191.786 256.755 191.484 256.755 191.099C256.75 190.714 256.448 190.411 256.067 190.411ZM254.573 185.932C254.192 185.932 253.885 186.234 253.885 186.62C253.885 186.995 254.187 187.307 254.573 187.307C254.948 187.307 255.26 187.005 255.26 186.62C255.26 186.24 254.948 185.932 254.573 185.932ZM250.349 187.422C249.968 187.422 249.661 187.724 249.661 188.109C249.661 188.484 249.963 188.797 250.349 188.797C250.724 188.797 251.036 188.495 251.036 188.109C251.026 187.734 250.724 187.422 250.349 187.422ZM253.942 183.505C253.906 183.589 253.89 183.667 253.89 183.76C253.89 184.135 254.192 184.448 254.578 184.448C254.958 184.448 255.265 184.146 255.265 183.76C255.265 183.63 255.218 183.516 255.151 183.406C254.729 183.438 254.333 183.474 253.942 183.505ZM251.036 183.651C251.036 183.667 251.026 183.677 251.026 183.693C251.026 184.073 251.328 184.38 251.713 184.38C252.099 184.38 252.401 184.078 252.401 183.693C252.401 183.661 252.385 183.635 252.385 183.604C251.896 183.62 251.453 183.635 251.036 183.651ZM253.203 184.505C252.828 184.505 252.515 184.807 252.515 185.193C252.515 185.568 252.817 185.88 253.203 185.88C253.583 185.88 253.89 185.578 253.89 185.193C253.89 184.807 253.583 184.505 253.203 184.505ZM251.713 185.995C251.338 185.995 251.026 186.297 251.026 186.682C251.026 187.062 251.328 187.375 251.713 187.375C252.099 187.375 252.401 187.068 252.401 186.682C252.396 186.297 252.088 185.995 251.713 185.995ZM253.203 187.49C252.828 187.49 252.515 187.792 252.515 188.177C252.515 188.552 252.817 188.854 253.198 188.865C253.573 188.865 253.875 188.562 253.875 188.177C253.89 187.792 253.583 187.49 253.203 187.49ZM250.349 184.562C249.968 184.562 249.661 184.865 249.661 185.25C249.661 185.625 249.963 185.938 250.349 185.938C250.724 185.938 251.036 185.635 251.036 185.25C251.026 184.875 250.724 184.562 250.349 184.562ZM254.573 191.781C254.192 191.781 253.885 192.083 253.885 192.469C253.885 192.844 254.187 193.156 254.573 193.156C254.948 193.156 255.26 192.854 255.26 192.469C255.26 192.083 254.948 191.781 254.573 191.781ZM250.349 193.271C249.968 193.271 249.661 193.573 249.661 193.958C249.661 194.339 249.963 194.646 250.349 194.646C250.724 194.646 251.036 194.344 251.036 193.958C251.026 193.583 250.724 193.271 250.349 193.271ZM254.573 188.922C254.192 188.922 253.885 189.224 253.885 189.609C253.885 189.995 254.187 190.297 254.573 190.297C254.948 190.297 255.26 189.995 255.26 189.609C255.26 189.224 254.948 188.922 254.573 188.922ZM251.713 188.854C251.338 188.854 251.026 189.156 251.026 189.542C251.026 189.922 251.328 190.224 251.713 190.224C252.099 190.224 252.401 189.922 252.401 189.542C252.396 189.156 252.088 188.854 251.713 188.854ZM253.203 190.349C252.828 190.349 252.515 190.651 252.515 191.036C252.515 191.411 252.817 191.724 253.203 191.724C253.583 191.724 253.89 191.422 253.89 191.036C253.89 190.656 253.583 190.349 253.203 190.349ZM251.713 191.844C251.338 191.844 251.026 192.151 251.026 192.536C251.026 192.911 251.328 193.224 251.713 193.224C252.099 193.224 252.401 192.922 252.401 192.536C252.396 192.151 252.088 191.844 251.713 191.844ZM253.203 193.339C252.828 193.339 252.515 193.641 252.515 194.026C252.515 194.401 252.817 194.703 253.198 194.703C253.573 194.703 253.875 194.401 253.875 194.026C253.89 193.641 253.583 193.339 253.203 193.339ZM250.349 190.411C249.968 190.411 249.661 190.714 249.661 191.099C249.661 191.479 249.963 191.786 250.349 191.786C250.724 191.786 251.036 191.484 251.036 191.099C251.026 190.714 250.724 190.411 250.349 190.411ZM251.713 194.703C251.343 194.703 251.052 195 251.036 195.359C251.468 195.271 251.896 195.172 252.312 195.073C252.198 194.854 251.974 194.703 251.713 194.703ZM248.854 185.932C248.479 185.932 248.166 186.234 248.166 186.62C248.166 186.995 248.474 187.307 248.854 187.307C249.234 187.307 249.536 187.005 249.536 186.62C249.536 186.24 249.234 185.932 248.854 185.932ZM248.192 183.646C248.187 183.688 248.166 183.719 248.166 183.76C248.166 184.135 248.474 184.448 248.854 184.448C249.234 184.448 249.536 184.146 249.536 183.76C249.536 183.724 249.521 183.703 249.521 183.667C248.89 183.667 248.432 183.651 248.192 183.646ZM247.948 184.688C247.932 184.979 247.916 185.323 247.901 185.719C248.062 185.594 248.177 185.406 248.177 185.182C248.166 184.99 248.078 184.807 247.948 184.688ZM247.786 187.562C247.76 187.953 247.734 188.37 247.703 188.807C247.974 188.719 248.166 188.469 248.166 188.167C248.166 187.906 248.015 187.677 247.786 187.562ZM248.854 191.781C248.479 191.781 248.166 192.083 248.166 192.469C248.166 192.844 248.474 193.156 248.854 193.156C249.234 193.156 249.536 192.854 249.536 192.469C249.536 192.083 249.234 191.781 248.854 191.781ZM248.854 188.922C248.479 188.922 248.166 189.224 248.166 189.609C248.166 189.995 248.474 190.297 248.854 190.297C249.234 190.297 249.536 189.995 249.536 189.609C249.536 189.224 249.234 188.922 248.854 188.922ZM247.588 190.37C247.557 190.807 247.521 191.255 247.479 191.714C247.859 191.714 248.166 191.411 248.166 191.026C248.166 190.693 247.916 190.422 247.588 190.37ZM247.489 193.339C247.437 193.339 247.39 193.354 247.343 193.37C247.302 193.797 247.26 194.224 247.218 194.656C247.302 194.688 247.39 194.714 247.489 194.714C247.864 194.714 248.177 194.411 248.177 194.031C248.166 193.641 247.864 193.339 247.489 193.339ZM248.854 194.76C248.479 194.76 248.166 195.068 248.166 195.453C248.166 195.615 248.234 195.755 248.323 195.87C248.708 195.802 249.109 195.745 249.489 195.682C249.51 195.609 249.536 195.531 249.536 195.453C249.536 195.073 249.234 194.76 248.854 194.76ZM236.25 128.38C234.849 128.38 233.708 129.521 233.708 130.922C233.708 132.323 234.849 133.458 236.25 133.458C237.646 133.458 238.786 132.323 238.786 130.922C238.786 129.521 237.646 128.38 236.25 128.38ZM265.093 132.052C265.093 130.38 263.734 129.021 262.062 129.021C260.39 129.021 259.036 130.38 259.036 132.052C259.036 133.724 260.39 135.083 262.062 135.083C263.739 135.083 265.093 133.724 265.093 132.052ZM234.192 201.932C233.948 204.917 233.692 207.891 233.448 210.87C233.323 212.365 233.203 213.854 233.078 215.339C233.052 215.667 232.963 217.755 232.432 217.229C232.291 217.089 232.276 216.557 232.218 216.339C232.13 215.953 232.047 215.557 231.963 215.172C230.718 209.391 229.901 203.516 229.5 197.604C229.442 196.76 228.125 196.76 228.182 197.604C228.427 201.245 228.828 204.865 229.396 208.469C229.682 210.307 230.01 212.141 230.375 213.958C230.547 214.802 230.729 215.646 230.916 216.49C231.057 217.104 231.12 217.854 231.521 218.359C232.172 219.172 233.364 218.917 233.89 218.115C234.265 217.542 234.276 216.802 234.333 216.146C234.411 215.198 234.489 214.255 234.567 213.307C234.89 209.51 235.198 205.724 235.521 201.932C235.583 201.089 234.265 201.089 234.192 201.932ZM218.906 206.521C218.432 202.849 218.093 199.13 218.047 195.427C218.005 192.339 218.307 188.964 220.625 186.677C221.229 186.078 220.297 185.151 219.692 185.74C217.448 187.953 216.828 191.068 216.734 194.109C216.62 197.958 217.015 201.875 217.479 205.693C218.474 213.786 220.364 221.75 223.114 229.427C223.401 230.224 224.672 229.88 224.385 229.078C221.771 221.786 219.906 214.214 218.906 206.521ZM228.823 194.167C228.281 190.495 230 186.594 233.047 184.49C233.739 184.016 233.078 182.865 232.385 183.349C228.807 185.823 226.922 190.214 227.552 194.51C227.599 194.859 228.052 195.052 228.364 194.969C228.739 194.88 228.87 194.516 228.823 194.167ZM328.817 242.974C329.219 242.229 328.083 241.562 327.682 242.307C326.781 243.99 324.823 244.286 323.104 244.516C321.375 244.745 319.666 245.047 317.969 245.458C314.521 246.292 311.187 247.547 308.015 249.125C307.25 249.505 307.922 250.641 308.677 250.266C312.182 248.51 315.89 247.208 319.724 246.406C322.724 245.781 327.14 246.104 328.817 242.974ZM165.021 272.12C168.067 254.396 173.724 237.146 181.807 221.078C184.099 216.526 186.578 212.078 189.239 207.734C189.682 207.01 188.547 206.349 188.104 207.068C183.724 214.224 179.843 221.672 176.484 229.349C176.364 229.469 176.239 229.583 176.114 229.708C176.213 229.693 176.307 229.641 176.385 229.583C176.109 230.234 175.823 230.88 175.552 231.526C175.406 231.651 175.307 231.828 175.307 232.042C175.307 232.057 175.312 232.078 175.312 232.094C175.198 232.37 175.083 232.641 174.968 232.922C174.849 232.797 174.682 232.724 174.495 232.724C174.12 232.724 173.807 233.026 173.807 233.411C173.807 233.786 174.109 234.094 174.479 234.094C174.062 235.115 173.661 236.141 173.265 237.172C173.218 237.161 173.177 237.141 173.13 237.141C172.75 237.141 172.442 237.443 172.442 237.828C172.442 238.083 172.588 238.302 172.802 238.417C172.416 239.443 172.036 240.474 171.672 241.505C171.656 241.505 171.646 241.5 171.635 241.5C171.26 241.5 170.948 241.802 170.948 242.188C170.948 242.417 171.073 242.604 171.245 242.734C171.14 243.036 171.031 243.333 170.932 243.63C170.875 243.307 170.604 243.057 170.271 243.057C169.896 243.057 169.583 243.359 169.583 243.734C169.583 244.115 169.885 244.422 170.271 244.422C170.442 244.422 170.604 244.349 170.718 244.245C170.531 244.807 170.343 245.375 170.161 245.938C169.838 245.99 169.583 246.26 169.583 246.604C169.583 246.792 169.656 246.964 169.781 247.089C169.666 247.453 169.552 247.833 169.437 248.203C169.442 248.167 169.458 248.135 169.458 248.104C169.458 247.724 169.156 247.411 168.771 247.411C168.396 247.411 168.083 247.719 168.083 248.104C168.083 248.479 168.385 248.792 168.771 248.792C169.036 248.792 169.255 248.635 169.37 248.422C169.172 249.047 168.979 249.667 168.786 250.292C168.781 250.292 168.771 250.292 168.771 250.292C168.396 250.292 168.083 250.594 168.083 250.979C168.083 251.224 168.224 251.438 168.422 251.552C168.109 252.609 167.812 253.667 167.526 254.724C167.484 254.714 167.448 254.708 167.396 254.708C167.021 254.708 166.708 255.01 166.708 255.396C166.708 255.688 166.906 255.943 167.166 256.031C167.093 256.302 167.021 256.583 166.948 256.854C165.666 261.786 164.604 266.776 163.734 271.797C163.604 272.594 164.875 272.953 165.021 272.12ZM51.4581 107.214C48.4789 108.094 45.5466 109.109 42.656 110.266C42.6872 110.125 42.6716 109.969 42.5674 109.812C39.807 105.594 36.8018 101.536 33.5935 97.6562C33.0518 97 32.1247 97.9427 32.656 98.5885C35.8018 102.38 38.7237 106.354 41.4268 110.484C41.4841 110.568 41.5518 110.63 41.6247 110.682C39.2029 111.682 36.8279 112.771 34.4945 113.969C34.4841 113.943 34.4841 113.911 34.4685 113.885C31.8904 109.224 28.8695 104.833 25.4633 100.745C24.9216 100.089 23.9945 101.031 24.5258 101.677C27.8591 105.682 30.8018 109.995 33.3279 114.557C33.3279 114.568 33.3383 114.568 33.3487 114.573C33.1195 114.698 32.8956 114.802 32.6664 114.927C30.7185 115.969 28.7914 117.083 26.8956 118.26C26.8956 118.161 26.8695 118.062 26.8018 117.958C23.9529 113.089 21.0987 108.214 18.2497 103.349C17.8227 102.62 16.682 103.281 17.1091 104.01C19.9581 108.88 22.8174 113.755 25.6664 118.62C25.7393 118.745 25.8279 118.807 25.9268 118.859C24.0935 120.021 22.3018 121.26 20.5727 122.562C20.5466 122.516 20.531 122.464 20.4997 122.417C16.7497 117.714 13.7029 112.458 11.4685 106.87C11.156 106.094 9.89036 106.437 10.1977 107.224C12.5154 113.031 15.6612 118.448 19.5674 123.349C18.4424 124.224 17.3383 125.125 16.281 126.068C13.6977 128.365 11.4685 131 10.1924 134.245C9.87995 135.031 11.156 135.375 11.4581 134.599C13.7185 128.849 19.4112 124.932 24.307 121.562C29.6716 117.885 35.4008 114.74 41.3852 112.208C44.7862 110.771 48.2654 109.542 51.8018 108.51C52.6195 108.25 52.2758 106.979 51.4581 107.214ZM34.3539 37.276C47.0622 31.9271 60.3591 28.0573 73.9477 25.7812C74.7862 25.6406 74.432 24.3698 73.5987 24.5104C60.0049 26.7969 46.7081 30.6562 33.9997 36.0052C33.2341 36.3281 33.5779 37.6042 34.3539 37.276ZM64.0414 39.6302C53.8643 40.0208 43.7914 42.0312 34.2445 45.5781C33.4633 45.8698 33.7966 47.1406 34.5987 46.849C44.0414 43.3385 53.9789 41.3385 64.0518 40.9479C64.8852 40.9167 64.8956 39.5937 64.0414 39.6302ZM26.5518 88.25C33.4268 82.8177 39.307 76.1979 43.9164 68.7292C44.9633 68.6823 46.0102 68.6354 47.0674 68.5833C47.9112 68.5417 47.9216 67.2239 47.0674 67.2656C42.4737 67.4792 37.8799 67.6927 33.2914 67.9114C32.4477 67.9531 32.4372 69.2708 33.2914 69.2292C36.2914 69.0937 39.2966 68.9531 42.3018 68.8125C37.8227 75.875 32.182 82.1354 25.6247 87.3229C24.9529 87.8385 25.8956 88.7656 26.5518 88.25ZM55.4268 67.9635C50.156 72.9844 45.2862 78.4062 40.8487 84.1771C40.3279 84.849 41.4789 85.5052 41.9841 84.8385C46.3487 79.1615 51.1716 73.8281 56.3643 68.8854C56.9737 68.3125 56.0414 67.3802 55.4268 67.9635ZM70.4633 50.0104C68.9529 51.6302 67.4477 53.2448 65.9425 54.8698C65.6977 55.1302 65.6872 55.5417 65.9425 55.8021C66.1872 56.0469 66.63 56.0625 66.8747 55.8021C68.38 54.1823 69.8904 52.5677 71.3956 50.9427C71.6404 50.6823 71.6508 50.2708 71.3956 50.0104C71.1508 49.7708 70.7081 49.7552 70.4633 50.0104ZM78.7497 37.4583C87.2237 27.0937 95.1872 16.3281 102.625 5.1927C103.099 4.48437 101.953 3.82291 101.484 4.52603C94.1143 15.5625 86.2133 26.25 77.8122 36.5208C77.281 37.1771 78.2081 38.1146 78.7497 37.4583ZM72.6872 15.8437C73.531 15.5885 74.4268 16.3021 75.2341 16.4479C76.3591 16.6562 77.1612 16.1146 77.781 15.2135C79.3435 12.9323 80.8175 10.5833 82.3435 8.27083C82.807 7.55728 81.6716 6.90624 81.2029 7.60937C79.781 9.77083 78.3643 11.9323 76.9372 14.099C76.7081 14.4479 76.4633 14.9583 76.0518 15.1302C75.6925 15.2865 75.2654 15.1198 74.9216 14.9896C74.505 14.8437 74.0987 14.6719 73.6768 14.5625C74.8487 12.6562 76.0206 10.7396 77.1925 8.82812C77.5206 8.28645 77.8487 7.7552 78.1768 7.21353C78.4425 6.77083 78.6977 6.22395 79.1143 5.88541C80.0831 5.10937 81.2602 6.26562 81.9164 6.91145C82.5206 7.49999 83.4529 6.57812 82.8487 5.97916C81.9477 5.09895 80.8747 4.19791 79.5258 4.34895C78.1195 4.5052 77.4789 5.82291 76.8175 6.90624C75.1872 9.55728 73.5622 12.2135 71.9372 14.8698C71.6508 15.3594 72.1404 16.0156 72.6872 15.8437ZM88.0466 15.2292C88.0154 15.2604 88.0102 15.276 88.0102 15.2708C88.0154 15.2604 88.031 15.2448 88.0466 15.2292ZM84.3175 15.0729C84.0206 14.099 84.2654 13.0052 84.9789 12.276C85.7081 11.5312 86.8122 11.2292 87.8175 11.4687C88.182 11.5469 88.3591 11.9427 88.2758 12.276C88.1977 12.6302 87.8018 12.8177 87.4685 12.7396C87.432 12.7292 87.2029 12.6979 87.3747 12.7135C87.3435 12.7135 87.3018 12.7031 87.2706 12.7031C87.1664 12.6979 87.057 12.6979 86.9529 12.7031C86.9112 12.7031 86.755 12.7396 86.9164 12.7031C86.8852 12.7135 86.8435 12.7187 86.8122 12.7187C86.7081 12.7448 86.6091 12.7708 86.4997 12.8125C86.4685 12.8281 86.3279 12.8906 86.4581 12.8281C86.4268 12.8437 86.3956 12.8594 86.3643 12.875C86.2654 12.9271 86.1716 12.9844 86.0935 13.0417C86.0779 13.0469 86.0831 13.0469 86.0779 13.0469C86.0675 13.0573 86.0779 13.0573 86.057 13.0677C86.0362 13.0885 85.9997 13.1146 85.9789 13.1406C85.9112 13.2031 85.8487 13.2708 85.7914 13.3333C85.7706 13.3594 85.7393 13.401 85.7393 13.4115C85.7133 13.4479 85.6925 13.4844 85.6768 13.526C85.656 13.5573 85.6352 13.599 85.6195 13.6302C85.5935 13.7135 85.5622 13.7969 85.5414 13.875C85.5362 13.9167 85.5258 13.9583 85.5206 14.0052C85.5206 14.0052 85.5206 14.0052 85.5206 14.0156C85.5102 14.1042 85.5102 14.1875 85.5102 14.276C85.5102 14.3125 85.5258 14.4479 85.5258 14.4687C85.5622 14.6146 85.5935 14.7552 85.6508 14.901C85.656 14.9167 85.6664 14.9427 85.6768 14.9583C85.6925 14.9896 85.7081 15.0156 85.7237 15.0469C85.7497 15.0885 85.7654 15.1198 85.7914 15.1615C85.7966 15.1719 85.8122 15.1979 85.8227 15.2135C85.8695 15.2708 85.9216 15.3281 85.9685 15.375C85.9945 15.401 86.0206 15.4271 86.0414 15.4479C86.0518 15.4583 86.0518 15.4583 86.0518 15.4583C86.0518 15.4583 86.0518 15.4583 86.057 15.4583C86.1404 15.5052 86.2237 15.5573 86.3122 15.6042C86.3227 15.6146 86.3227 15.6146 86.3279 15.6146C86.3695 15.6302 86.4112 15.6458 86.4529 15.6562C86.5258 15.6771 86.6091 15.6927 86.682 15.7135C86.7237 15.7187 86.8435 15.7292 86.6872 15.7187C86.7237 15.7187 86.7654 15.7292 86.7966 15.7292C86.9008 15.7344 87.0102 15.7292 87.1143 15.7292C87.1247 15.7292 87.1247 15.7292 87.13 15.7292C87.1716 15.7187 87.2133 15.7135 87.255 15.7031C87.3279 15.6875 87.4112 15.6615 87.4841 15.6354C87.4997 15.6302 87.5414 15.6146 87.557 15.6146C87.5727 15.6042 87.5831 15.599 87.5987 15.599C87.682 15.5573 87.7602 15.5052 87.8383 15.4479C87.8539 15.4323 87.932 15.3594 87.9581 15.3437C87.9737 15.3281 87.9893 15.3125 87.9997 15.2917C88.0102 15.2917 88.0258 15.2708 88.031 15.2552C88.031 15.2552 88.031 15.2552 88.0414 15.2448C88.0414 15.2448 88.0414 15.2448 88.031 15.2552C88.0831 15.1771 88.1247 15.1146 88.1612 15.0312C88.182 15.0052 88.1977 14.9635 88.1977 14.9583C88.2029 14.9323 88.2133 14.9062 88.2185 14.875C88.2445 14.8021 88.2602 14.7292 88.2758 14.6458C88.2862 14.6146 88.3018 14.4427 88.2862 14.6146C88.2862 14.5833 88.2966 14.5469 88.2966 14.5052C88.3018 14.4167 88.3018 14.3333 88.2966 14.2448C88.2966 14.2135 88.2602 14.0469 88.2966 14.2135C88.2862 14.1719 88.2758 14.1302 88.2706 14.0833C88.255 14.0052 88.2289 13.9323 88.2029 13.8594C88.2029 13.8542 88.2029 13.8542 88.2029 13.8437C88.1872 13.8021 88.1716 13.7708 88.1456 13.7292C88.1247 13.6875 87.9841 13.474 88.0727 13.599C87.8435 13.3125 87.8122 12.9583 88.0727 12.6615C88.2966 12.4271 88.7914 12.3958 89.005 12.6615C89.3904 13.1562 89.6039 13.7135 89.6143 14.3437C89.6195 14.8854 89.4633 15.4635 89.1456 15.9062C88.5154 16.8021 87.4529 17.1771 86.3852 17C85.406 16.8177 84.6091 16.0417 84.3175 15.0729ZM85.6195 13.6458C85.5779 13.7292 85.5987 13.6771 85.6195 13.6458V13.6458ZM90.7185 408.594C90.0622 409.12 89.13 408.193 89.7862 407.661C92.7081 405.328 95.7706 402.854 98.0466 399.844C88.7758 398.302 80.1091 393.969 73.2758 387.505C67.88 393.51 63.9425 400.74 61.8539 408.573C61.6352 409.391 60.3643 409.036 60.5883 408.219C63.1247 398.708 68.3331 390.031 75.531 383.318C75.5935 382.984 75.8904 382.677 76.3227 382.802C85.1247 385.229 93.5935 388.75 101.515 393.276C101.599 393.312 101.651 393.37 101.698 393.427C102.083 393.448 102.458 393.755 102.328 394.234C100.64 400.474 95.557 404.719 90.7185 408.594ZM98.8799 398.656C99.7341 397.354 100.427 395.953 100.906 394.427C100.885 394.422 100.88 394.422 100.864 394.411C93.182 390.031 85.005 386.615 76.4893 384.219C76.4789 384.229 76.4789 384.234 76.4633 384.255C75.6664 384.99 74.906 385.75 74.1716 386.536C80.9737 392.984 89.6299 397.214 98.8799 398.656ZM190.453 407.089C175.224 405.432 160.354 400.672 146.974 393.208C143.39 391.208 139.927 389.005 136.578 386.635C138.682 385.406 140.786 384.172 142.89 382.943C143.62 382.516 142.958 381.375 142.229 381.802C132.302 387.615 122.39 393.422 112.463 399.229C112.448 399.172 112.448 399.115 112.416 399.052C108.281 390.964 104.156 382.875 100.021 374.792C115.791 364.865 131.823 355.354 148.099 346.286C152.739 343.693 157.401 341.146 162.073 338.641C162.817 338.24 162.156 337.099 161.411 337.5C158.177 339.24 154.953 341.005 151.734 342.786C151.646 342.562 151.453 342.385 151.161 342.37C136.422 341.49 121.547 343.62 107.593 348.448C93.6508 353.271 80.6247 360.745 69.5466 370.51C63.2497 376.068 56.7237 385.12 47.2549 384.042C46.4164 383.943 46.4216 385.26 47.2549 385.359C55.4424 386.292 61.5518 379.896 66.9268 374.724C72.2706 369.568 78.1508 364.979 84.4216 361.016C97.0622 353.036 111.276 347.594 126.005 345.073C133.984 343.703 142.099 343.234 150.177 343.635C137.495 350.661 124.953 357.927 112.562 365.474C108.026 368.234 103.515 371.036 99.0206 373.865C98.9633 373.896 98.932 373.948 98.8956 373.984C98.6039 374.151 98.3956 374.51 98.5935 374.896C102.828 383.172 107.052 391.448 111.286 399.724C111.39 399.927 111.557 400.026 111.729 400.042C111.729 400.109 111.734 400.167 111.76 400.229L111.083 400.609C111.203 400.74 111.385 400.828 111.578 400.828C111.771 400.828 111.942 400.745 112.062 400.625C112.245 400.729 112.463 400.76 112.692 400.63C113.052 400.417 113.406 400.214 113.765 400C113.765 400.026 113.75 400.052 113.75 400.083C113.75 400.458 114.052 400.771 114.437 400.771C114.812 400.771 115.125 400.469 115.125 400.083C115.125 399.802 114.953 399.557 114.708 399.453C114.927 399.323 115.14 399.198 115.364 399.068C115.484 399.266 115.692 399.396 115.937 399.396C116.312 399.396 116.614 399.089 116.614 398.708C116.614 398.583 116.573 398.474 116.526 398.385C116.859 398.188 117.203 397.984 117.541 397.786C117.588 397.771 117.63 397.74 117.672 397.714C123.567 394.255 129.468 390.807 135.364 387.349C135.39 387.375 135.406 387.406 135.437 387.432C136.01 387.844 136.593 388.245 137.177 388.635C137.135 388.667 137.093 388.703 137.062 388.75C133.229 394.536 130.307 400.885 128.38 407.557C128.146 408.375 129.411 408.719 129.651 407.906C131.541 401.339 134.416 395.109 138.192 389.417C138.208 389.391 138.208 389.375 138.213 389.349C141.213 391.354 144.297 393.234 147.468 394.953C144.578 399.115 142.375 403.719 140.948 408.578C140.713 409.391 141.979 409.745 142.218 408.932C143.62 404.156 145.786 399.667 148.63 395.578C151.297 396.984 154.026 398.297 156.791 399.5C154.656 402.385 153.125 405.703 152.312 409.208C152.125 410.036 153.396 410.391 153.583 409.562C154.38 406.104 155.89 402.875 158.021 400.042C160.75 401.188 163.505 402.229 166.317 403.156C164.974 404.984 163.948 407.016 163.317 409.203C163.088 410.021 164.359 410.365 164.588 409.552C165.203 407.391 166.224 405.344 167.609 403.573C170.828 404.599 174.078 405.5 177.37 406.234C177.026 407.047 176.672 407.859 176.328 408.667C176.255 408.844 176.213 408.99 176.265 409.177C176.307 409.333 176.427 409.495 176.567 409.573C176.843 409.719 177.317 409.667 177.468 409.333C177.843 408.448 178.218 407.557 178.604 406.672C178.63 406.615 178.64 406.562 178.656 406.505C182.552 407.333 186.484 407.974 190.442 408.401C191.297 408.495 191.286 407.188 190.453 407.089ZM201.291 318.115C200.942 317.344 199.802 318.016 200.156 318.781C203.552 326.146 207.26 333.37 211.26 340.432C211.677 341.172 212.812 340.51 212.396 339.771C208.401 332.708 204.692 325.49 201.291 318.115ZM207.51 314.625C207.146 313.854 206.015 314.526 206.37 315.286C209.901 322.844 213.427 330.406 216.958 337.958C217.317 338.729 218.448 338.057 218.093 337.297C214.567 329.74 211.036 322.188 207.51 314.625ZM264.911 295.969C264.354 295.328 263.422 296.266 263.979 296.901C271.104 305 279.219 312.156 288.114 318.24C288.823 318.714 289.474 317.573 288.781 317.099C279.969 311.083 271.953 303.974 264.911 295.969ZM266.927 293.839C276.807 299.203 286.323 305.219 295.406 311.854C296.094 312.354 296.745 311.219 296.067 310.719C286.984 304.078 277.474 298.057 267.588 292.698C266.844 292.297 266.182 293.438 266.927 293.839ZM307.849 304.865C299.057 297.771 289.224 292.094 278.677 288.031C277.88 287.724 277.547 288.995 278.323 289.297C288.64 293.271 298.312 298.854 306.916 305.802C307.573 306.323 308.505 305.401 307.849 304.865ZM299.25 330.625C307.229 325.688 313.87 318.786 318.495 310.625C318.911 309.891 317.771 309.224 317.354 309.964C312.833 317.938 306.37 324.672 298.583 329.49C297.87 329.938 298.526 331.078 299.25 330.625ZM305.026 369.891C302.354 369.938 299.416 370.047 297.015 368.688C295.995 368.109 295.094 367.292 294.521 366.26C293.864 365.078 293.906 363.875 294.12 362.589C294.291 361.547 294.536 360.484 294.364 359.417C294.182 358.302 293.536 357.557 292.745 356.807C291.844 355.953 291.234 355.068 291.906 353.839C292.588 352.594 294.052 352.062 295.307 351.594C296.094 351.297 295.75 350.031 294.953 350.323C292.719 351.161 289.552 352.812 290.385 355.781C290.729 357 291.833 357.557 292.562 358.495C293.578 359.802 292.906 361.583 292.719 363.057C292.448 365.156 293.161 367.005 294.547 368.422H294.536C291.849 370.104 291.807 373.578 292.901 376.224C293.635 378 294.734 379.599 295.557 381.328C296.422 383.115 297.067 385 297.573 386.917C299.562 394.406 299.458 402.26 301.088 409.818C301.265 410.646 302.536 410.292 302.354 409.464C300.849 402.505 300.807 395.323 299.276 388.365C298.541 385.016 297.401 381.802 295.713 378.812C294.297 376.286 291.745 371.708 295.192 369.552C295.338 369.464 295.411 369.339 295.453 369.219C295.583 369.318 295.708 369.422 295.844 369.51C298.526 371.297 301.927 371.26 305.01 371.203C305.87 371.193 305.875 369.875 305.026 369.891ZM364.745 387.979C363.687 384.474 362.25 381.099 360.677 377.802C359.172 374.651 357.573 371.526 355.692 368.578C353.609 365.333 351.156 362.333 348.166 359.896C348.229 358.229 348.208 356.557 348.078 354.885C347.734 350.469 346.953 345.286 343.015 342.589C342.932 342.531 342.844 342.5 342.76 342.484C342.458 340.63 341.302 339.474 339.849 338.396C338.896 337.688 338.052 336.984 337.635 335.844C337.245 334.771 337.177 333.62 337.135 332.484C337.057 330.578 336.849 328.302 334.656 327.703C332.239 327.047 330.286 328.99 327.974 329.146C327.13 329.203 327.13 330.521 327.974 330.464C329.864 330.339 331.411 329.068 333.271 328.906C336.041 328.661 335.729 331.609 335.875 333.521C336 335.151 336.344 336.786 337.437 338.057C338.703 339.51 340.729 340.13 341.338 342.115C342.052 344.422 340.958 346.76 339.463 348.807C339.463 348.802 339.463 348.802 339.463 348.792C337.76 344.234 334.396 340.401 330.088 338.156C330.474 337.495 330.838 336.823 331.182 336.13C331.562 335.38 330.432 334.708 330.047 335.469C323.833 347.859 311.041 355.75 297.172 355.714C296.328 355.714 296.323 357.026 297.172 357.036C298.62 357.036 300.062 356.953 301.495 356.786C301.51 359.083 302.021 361.333 302.995 363.417C303.88 365.302 305.239 367.651 307.521 367.891C308.364 367.979 308.359 366.661 307.521 366.573C306.63 366.474 305.932 365.703 305.442 365.016C304.859 364.203 304.37 363.328 303.974 362.417C303.182 360.589 302.797 358.609 302.807 356.615C306.578 356.052 310.213 354.927 313.614 353.307C314.375 356.385 315.989 359.229 318.239 361.469C318.844 362.062 319.771 361.13 319.172 360.531C317.005 358.385 315.515 355.667 314.817 352.698C317.713 351.193 320.411 349.307 322.833 347.104C326.312 348.818 329.073 351.849 330.38 355.51C330.666 356.307 331.937 355.958 331.651 355.156C330.276 351.307 327.458 348.052 323.838 346.151C325.942 344.104 327.817 341.797 329.406 339.271C333.411 341.359 336.604 344.891 338.192 349.135C338.317 349.464 338.604 349.589 338.88 349.568C338.021 350.646 337.094 351.625 336.328 352.469C333.698 355.328 330.724 357.87 327.484 360.01C323.849 362.411 319.901 364.292 315.75 365.63C314.948 365.885 315.291 367.161 316.104 366.901C324.224 364.292 331.625 359.589 337.375 353.271C339.64 350.781 342.557 347.635 342.828 344.089C346.166 346.818 346.625 352.083 346.833 356.083C347.094 361.344 346.38 366.589 344.786 371.604C344.521 372.411 345.802 372.755 346.052 371.953C347.125 368.578 347.807 365.089 348.078 361.568C352.75 365.693 355.937 371.135 358.677 376.682C361.833 383.073 364.687 389.859 365.104 397.057C365.333 401.047 364.802 405.021 363.271 408.729C362.953 409.516 364.224 409.849 364.541 409.078C367.317 402.359 366.807 394.828 364.745 387.979ZM118.776 397.969C118.401 397.969 118.088 398.271 118.088 398.656C118.088 399.042 118.39 399.344 118.776 399.344C119.161 399.344 119.463 399.042 119.463 398.656C119.463 398.271 119.161 397.969 118.776 397.969ZM119.463 397.224C119.463 397.5 119.63 397.74 119.864 397.844L120.359 396.583C120.291 396.557 120.218 396.542 120.146 396.542C119.771 396.542 119.463 396.844 119.463 397.224ZM118.099 401.641C118.099 401.797 118.156 401.927 118.239 402.042L118.646 400.984C118.333 401.047 118.099 401.312 118.099 401.641ZM117.286 402.328C116.911 402.328 116.599 402.63 116.599 403.016C116.599 403.391 116.901 403.703 117.286 403.703C117.416 403.703 117.531 403.656 117.64 403.589L117.932 402.828C117.854 402.542 117.599 402.328 117.286 402.328ZM113.062 405.188C113.437 405.188 113.75 404.885 113.75 404.5C113.75 404.115 113.448 403.812 113.062 403.812C112.687 403.812 112.375 404.115 112.375 404.5C112.375 404.885 112.687 405.188 113.062 405.188ZM117.286 399.469C116.911 399.469 116.599 399.771 116.599 400.156C116.599 400.531 116.901 400.844 117.286 400.844C117.672 400.844 117.974 400.542 117.974 400.156C117.974 399.771 117.666 399.469 117.286 399.469ZM115.922 402.26C116.297 402.26 116.609 401.958 116.609 401.573C116.609 401.198 116.307 400.885 115.922 400.885C115.536 400.885 115.234 401.188 115.234 401.573C115.239 401.958 115.541 402.26 115.922 402.26ZM114.432 402.385C114.052 402.385 113.739 402.688 113.739 403.073C113.739 403.448 114.047 403.76 114.432 403.76C114.807 403.76 115.12 403.458 115.12 403.073C115.109 402.698 114.807 402.385 114.432 402.385ZM115.922 403.885C115.541 403.885 115.234 404.188 115.234 404.573C115.234 404.948 115.536 405.26 115.911 405.26C116.286 405.26 116.593 404.958 116.593 404.573C116.609 404.188 116.297 403.885 115.922 403.885ZM113.062 402.328C113.437 402.328 113.75 402.026 113.75 401.641C113.75 401.26 113.448 400.953 113.062 400.953C112.687 400.953 112.375 401.255 112.375 401.641C112.375 402.016 112.687 402.328 113.062 402.328ZM113.062 409.667C112.765 409.667 112.521 409.859 112.422 410.13H113.703C113.604 409.859 113.359 409.667 113.062 409.667ZM116.609 406C116.609 406.057 116.625 406.104 116.64 406.161L116.916 405.432C116.729 405.557 116.609 405.76 116.609 406ZM114.432 405.25C114.052 405.25 113.739 405.557 113.739 405.943C113.739 406.318 114.047 406.63 114.432 406.63C114.807 406.63 115.12 406.328 115.12 405.943C115.109 405.557 114.807 405.25 114.432 405.25ZM115.239 407.432C115.239 407.792 115.526 408.089 115.885 408.115L116.354 406.917C116.239 406.818 116.093 406.75 115.927 406.75C115.541 406.745 115.239 407.047 115.239 407.432ZM114.432 408.234C114.052 408.234 113.739 408.536 113.739 408.922C113.739 409.302 114.047 409.609 114.432 409.609C114.807 409.609 115.12 409.307 115.12 408.922C115.109 408.547 114.807 408.234 114.432 408.234ZM113.062 408.177C113.437 408.177 113.75 407.875 113.75 407.49C113.75 407.115 113.448 406.807 113.062 406.807C112.687 406.807 112.375 407.115 112.375 407.49C112.375 407.865 112.687 408.177 113.062 408.177ZM111.573 402.328C111.198 402.328 110.885 402.63 110.885 403.016C110.885 403.391 111.187 403.703 111.573 403.703C111.948 403.703 112.26 403.401 112.26 403.016C112.25 402.63 111.948 402.328 111.573 402.328ZM107.338 405.188C107.713 405.188 108.026 404.885 108.026 404.5C108.026 404.115 107.724 403.812 107.338 403.812C106.963 403.812 106.651 404.115 106.651 404.5C106.651 404.885 106.963 405.188 107.338 405.188ZM110.198 402.26C110.573 402.26 110.885 401.958 110.885 401.573C110.885 401.286 110.713 401.047 110.468 400.943L109.541 401.458C109.531 401.5 109.515 401.531 109.515 401.573C109.515 401.958 109.817 402.26 110.198 402.26ZM108.708 402.385C108.328 402.385 108.021 402.688 108.021 403.073C108.021 403.448 108.323 403.76 108.708 403.76C109.083 403.76 109.396 403.458 109.396 403.073C109.396 402.698 109.083 402.385 108.708 402.385ZM110.198 405.25C110.573 405.25 110.885 404.948 110.885 404.562C110.885 404.188 110.583 403.875 110.198 403.875C109.817 403.875 109.51 404.177 109.51 404.562C109.515 404.943 109.817 405.25 110.198 405.25ZM111.573 408.177C111.198 408.177 110.885 408.479 110.885 408.865C110.885 409.25 111.187 409.552 111.573 409.552C111.948 409.552 112.26 409.25 112.26 408.865C112.26 408.479 111.948 408.177 111.573 408.177ZM107.338 409.667C107.047 409.667 106.797 409.859 106.703 410.13H107.979C107.885 409.859 107.635 409.667 107.338 409.667ZM111.573 405.312C111.198 405.312 110.885 405.615 110.885 406C110.885 406.375 111.187 406.688 111.573 406.688C111.948 406.688 112.26 406.385 112.26 406C112.25 405.62 111.948 405.312 111.573 405.312ZM108.708 405.25C108.328 405.25 108.021 405.557 108.021 405.943C108.021 406.318 108.323 406.63 108.708 406.63C109.083 406.63 109.396 406.328 109.396 405.943C109.396 405.557 109.083 405.25 108.708 405.25ZM110.198 408.115C110.573 408.115 110.885 407.807 110.885 407.422C110.885 407.036 110.583 406.734 110.198 406.734C109.817 406.734 109.51 407.036 109.51 407.422C109.51 407.807 109.817 408.115 110.198 408.115ZM108.708 408.234C108.328 408.234 108.021 408.536 108.021 408.922C108.021 409.302 108.323 409.609 108.708 409.609C109.083 409.609 109.396 409.307 109.396 408.922C109.396 408.547 109.083 408.234 108.708 408.234ZM110.198 409.734C109.927 409.734 109.687 409.896 109.583 410.13H110.812C110.703 409.891 110.474 409.734 110.198 409.734ZM107.338 408.177C107.713 408.177 108.026 407.875 108.026 407.49C108.026 407.115 107.724 406.807 107.338 406.807C106.963 406.807 106.651 407.115 106.651 407.49C106.661 407.865 106.963 408.177 107.338 408.177ZM106.505 403.161L105.635 403.646C105.703 403.672 105.776 403.688 105.859 403.688C106.166 403.698 106.432 403.469 106.505 403.161ZM104.484 405.25C104.859 405.25 105.172 404.948 105.172 404.562C105.172 404.349 105.073 404.172 104.922 404.047L103.828 404.661C103.87 404.99 104.135 405.25 104.484 405.25ZM105.849 408.177C105.474 408.177 105.161 408.479 105.161 408.865C105.161 409.25 105.463 409.552 105.849 409.552C106.224 409.552 106.531 409.25 106.531 408.865C106.531 408.479 106.224 408.177 105.849 408.177ZM101.625 409.667C101.328 409.667 101.083 409.859 100.984 410.13H102.26C102.166 409.859 101.916 409.667 101.625 409.667ZM105.849 405.312C105.474 405.312 105.161 405.615 105.161 406C105.161 406.375 105.463 406.688 105.849 406.688C106.224 406.688 106.531 406.385 106.531 406C106.531 405.62 106.224 405.312 105.849 405.312ZM102.989 405.25C102.614 405.25 102.302 405.557 102.302 405.943C102.302 406.318 102.609 406.63 102.989 406.63C103.37 406.63 103.677 406.328 103.677 405.943C103.672 405.557 103.37 405.25 102.989 405.25ZM104.484 408.115C104.859 408.115 105.172 407.807 105.172 407.422C105.172 407.036 104.864 406.734 104.484 406.734C104.104 406.734 103.791 407.036 103.791 407.422C103.791 407.807 104.104 408.115 104.484 408.115ZM102.989 408.234C102.614 408.234 102.302 408.536 102.302 408.922C102.302 409.302 102.609 409.609 102.989 409.609C103.37 409.609 103.677 409.307 103.677 408.922C103.672 408.547 103.37 408.234 102.989 408.234ZM104.484 409.734C104.213 409.734 103.974 409.896 103.87 410.13H105.093C104.979 409.891 104.75 409.734 104.484 409.734ZM101.625 408.177C102 408.177 102.312 407.875 102.312 407.49C102.312 407.115 102.01 406.807 101.625 406.807C101.25 406.807 100.937 407.115 100.937 407.49C100.937 407.865 101.239 408.177 101.625 408.177ZM100.125 408.177C99.7497 408.177 99.4372 408.479 99.4372 408.865C99.4372 409.25 99.7393 409.552 100.125 409.552C100.5 409.552 100.812 409.25 100.812 408.865C100.812 408.479 100.5 408.177 100.125 408.177ZM95.9008 409.667C95.6039 409.667 95.3591 409.859 95.2602 410.13H96.5414C96.4424 409.859 96.1977 409.667 95.9008 409.667ZM100.25 406.661C100.406 406.635 100.541 406.557 100.651 406.443L100.25 406.661ZM98.7602 408.115C99.1352 408.115 99.4477 407.807 99.4477 407.422C99.4477 407.318 99.4216 407.229 99.3799 407.135L98.2029 407.792C98.3227 407.979 98.5206 408.115 98.7602 408.115ZM97.3747 408.26L96.6299 408.677C96.5987 408.75 96.5779 408.833 96.5779 408.922C96.5779 409.302 96.8852 409.609 97.2706 409.609C97.6456 409.609 97.9581 409.307 97.9581 408.922C97.9581 408.578 97.7029 408.318 97.3747 408.26ZM98.7602 409.734C98.4893 409.734 98.2497 409.896 98.1456 410.13H99.3747C99.2654 409.891 99.0362 409.734 98.7602 409.734ZM170.26 235.583C170.64 235.583 170.948 235.281 170.948 234.896C170.948 234.641 170.802 234.417 170.588 234.302C170.26 234.552 169.932 234.786 169.609 235.016C169.666 235.339 169.927 235.583 170.26 235.583ZM175.166 230.562C174.922 230.781 174.682 231 174.437 231.214C174.453 231.214 174.468 231.224 174.489 231.224C174.864 231.224 175.156 230.927 175.166 230.562ZM173.807 231.969C173.807 231.906 173.791 231.849 173.765 231.781C173.448 232.052 173.135 232.312 172.817 232.578C172.906 232.625 173.005 232.656 173.12 232.656C173.505 232.656 173.807 232.354 173.807 231.969ZM172.317 233.469C172.317 233.323 172.26 233.198 172.187 233.094C171.833 233.37 171.484 233.651 171.12 233.922C171.245 234.068 171.427 234.156 171.63 234.156C172.005 234.151 172.317 233.844 172.317 233.469ZM173.12 235.641C173.495 235.641 173.807 235.339 173.807 234.953C173.807 234.573 173.505 234.266 173.12 234.266C172.745 234.266 172.432 234.568 172.432 234.953C172.442 235.339 172.745 235.641 173.12 235.641ZM170.26 241.432C170.64 241.432 170.948 241.13 170.948 240.745C170.948 240.37 170.646 240.057 170.26 240.057C169.875 240.057 169.573 240.359 169.573 240.745C169.583 241.12 169.885 241.432 170.26 241.432ZM171.63 235.646C171.255 235.646 170.942 235.953 170.942 236.339C170.942 236.724 171.245 237.026 171.63 237.026C172.005 237.026 172.307 236.724 172.307 236.339C172.307 235.953 172.005 235.646 171.63 235.646ZM171.63 238.63C171.255 238.63 170.942 238.932 170.942 239.318C170.942 239.698 171.245 240.005 171.63 240.005C172.005 240.005 172.307 239.703 172.307 239.318C172.317 238.932 172.005 238.63 171.63 238.63ZM170.26 238.562C170.64 238.562 170.948 238.26 170.948 237.875C170.948 237.5 170.646 237.188 170.26 237.188C169.875 237.188 169.573 237.49 169.573 237.875C169.583 238.26 169.885 238.562 170.26 238.562ZM168.771 238.562C168.396 238.562 168.083 238.87 168.083 239.245C168.083 239.62 168.385 239.932 168.771 239.932C169.151 239.932 169.458 239.63 169.458 239.245C169.453 238.875 169.151 238.562 168.771 238.562ZM164.536 241.432C164.916 241.432 165.229 241.13 165.229 240.745C165.229 240.37 164.922 240.057 164.536 240.057C164.161 240.057 163.849 240.359 163.849 240.745C163.859 241.12 164.161 241.432 164.536 241.432ZM168.771 237.073C169.151 237.073 169.458 236.771 169.458 236.385C169.458 236.01 169.156 235.698 168.771 235.698C168.698 235.698 168.625 235.724 168.557 235.74C168.463 235.802 168.354 235.88 168.255 235.953C168.156 236.068 168.093 236.214 168.093 236.385C168.083 236.771 168.396 237.073 168.771 237.073ZM167.406 238.505C167.781 238.505 168.093 238.203 168.093 237.818C168.093 237.432 167.791 237.13 167.406 237.13C167.026 237.13 166.718 237.432 166.718 237.818C166.718 238.203 167.026 238.505 167.406 238.505ZM165.916 240C166.291 240 166.604 239.698 166.604 239.312C166.604 238.932 166.297 238.625 165.916 238.625C165.531 238.625 165.229 238.927 165.229 239.312C165.229 239.698 165.531 240 165.916 240ZM167.406 241.49C167.781 241.49 168.093 241.188 168.093 240.802C168.093 240.427 167.791 240.115 167.406 240.115C167.026 240.115 166.718 240.417 166.718 240.802C166.718 241.188 167.026 241.49 167.406 241.49ZM165.229 237.885C165.229 237.875 165.218 237.87 165.218 237.859C164.875 238.068 164.521 238.255 164.177 238.448C164.286 238.516 164.406 238.573 164.536 238.573C164.922 238.562 165.229 238.26 165.229 237.885ZM168.771 244.417C168.396 244.417 168.083 244.719 168.083 245.104C168.083 245.49 168.385 245.792 168.771 245.792C169.151 245.792 169.458 245.49 169.458 245.104C169.458 244.719 169.151 244.417 168.771 244.417ZM164.536 247.281C164.916 247.281 165.229 246.979 165.229 246.594C165.229 246.219 164.922 245.906 164.536 245.906C164.161 245.906 163.849 246.208 163.849 246.594C163.859 246.974 164.161 247.281 164.536 247.281ZM168.771 241.557C168.396 241.557 168.083 241.859 168.083 242.245C168.083 242.62 168.385 242.932 168.771 242.932C169.151 242.932 169.458 242.63 169.458 242.245C169.453 241.859 169.151 241.557 168.771 241.557ZM165.916 241.49C165.536 241.49 165.229 241.792 165.229 242.177C165.229 242.557 165.531 242.865 165.916 242.865C166.297 242.865 166.604 242.563 166.604 242.177C166.593 241.802 166.291 241.49 165.916 241.49ZM167.406 244.359C167.781 244.359 168.093 244.057 168.093 243.672C168.093 243.286 167.791 242.979 167.406 242.979C167.026 242.979 166.718 243.286 166.718 243.672C166.718 244.057 167.026 244.359 167.406 244.359ZM165.916 244.479C165.536 244.479 165.229 244.786 165.229 245.167C165.229 245.547 165.531 245.859 165.916 245.859C166.297 245.859 166.604 245.552 166.604 245.167C166.593 244.786 166.291 244.479 165.916 244.479ZM167.406 247.339C167.781 247.339 168.093 247.036 168.093 246.651C168.093 246.276 167.791 245.964 167.406 245.964C167.026 245.964 166.718 246.266 166.718 246.651C166.718 247.036 167.026 247.339 167.406 247.339ZM164.536 244.417C164.916 244.417 165.229 244.115 165.229 243.729C165.229 243.349 164.922 243.047 164.536 243.047C164.161 243.047 163.849 243.349 163.849 243.729C163.859 244.115 164.161 244.417 164.536 244.417ZM164.536 253.125C164.916 253.125 165.229 252.823 165.229 252.438C165.229 252.057 164.922 251.75 164.536 251.75C164.161 251.75 163.849 252.052 163.849 252.438C163.859 252.823 164.161 253.125 164.536 253.125ZM165.916 247.339C165.536 247.339 165.229 247.646 165.229 248.026C165.229 248.411 165.531 248.719 165.916 248.719C166.297 248.719 166.604 248.411 166.604 248.026C166.604 247.646 166.291 247.339 165.916 247.339ZM167.406 250.198C167.781 250.198 168.093 249.896 168.093 249.51C168.093 249.135 167.791 248.823 167.406 248.823C167.026 248.823 166.718 249.125 166.718 249.51C166.718 249.896 167.026 250.198 167.406 250.198ZM165.916 250.333C165.536 250.333 165.229 250.635 165.229 251.021C165.229 251.396 165.531 251.708 165.916 251.708C166.297 251.708 166.604 251.406 166.604 251.021C166.593 250.635 166.291 250.333 165.916 250.333ZM167.406 253.193C167.781 253.193 168.093 252.885 168.093 252.5C168.093 252.115 167.791 251.812 167.406 251.812C167.026 251.812 166.718 252.115 166.718 252.5C166.718 252.885 167.026 253.193 167.406 253.193ZM164.536 250.266C164.916 250.266 165.229 249.964 165.229 249.578C165.229 249.198 164.922 248.891 164.536 248.891C164.161 248.891 163.849 249.193 163.849 249.578C163.859 249.964 164.161 250.266 164.536 250.266ZM164.385 257.641C164.547 257.661 164.718 257.688 164.885 257.714C164.786 257.656 164.672 257.604 164.547 257.604C164.479 257.604 164.432 257.625 164.385 257.641ZM165.916 253.193C165.536 253.193 165.229 253.495 165.229 253.88C165.229 254.266 165.531 254.568 165.916 254.568C166.297 254.568 166.604 254.266 166.604 253.88C166.604 253.495 166.291 253.193 165.916 253.193ZM165.916 256.172C165.536 256.172 165.229 256.474 165.229 256.859C165.229 257.24 165.531 257.547 165.916 257.547C166.297 257.547 166.604 257.245 166.604 256.859C166.593 256.484 166.291 256.172 165.916 256.172ZM164.536 256.115C164.916 256.115 165.229 255.812 165.229 255.438C165.229 255.057 164.922 254.745 164.536 254.745C164.161 254.745 163.849 255.052 163.849 255.438C163.859 255.802 164.161 256.115 164.536 256.115ZM163.047 239.932C163.427 239.932 163.734 239.63 163.734 239.245C163.734 239.073 163.661 238.917 163.557 238.797C163.172 239.005 162.786 239.203 162.401 239.401C162.468 239.714 162.729 239.932 163.047 239.932ZM159.495 240.818C159.146 240.984 158.781 241.135 158.432 241.292C158.547 241.375 158.677 241.432 158.823 241.432C159.177 241.432 159.453 241.161 159.495 240.818ZM161.682 241.49C162.057 241.49 162.37 241.188 162.37 240.802C162.37 240.427 162.067 240.115 161.682 240.115C161.307 240.115 160.995 240.417 160.995 240.802C161 241.188 161.307 241.49 161.682 241.49ZM163.047 244.417C162.672 244.417 162.359 244.719 162.359 245.104C162.359 245.49 162.661 245.792 163.047 245.792C163.427 245.792 163.734 245.49 163.734 245.104C163.734 244.719 163.427 244.417 163.047 244.417ZM158.823 247.281C159.203 247.281 159.51 246.979 159.51 246.594C159.51 246.219 159.208 245.906 158.823 245.906C158.437 245.906 158.135 246.208 158.135 246.594C158.135 246.974 158.448 247.281 158.823 247.281ZM163.047 241.557C162.672 241.557 162.359 241.859 162.359 242.245C162.359 242.62 162.661 242.932 163.047 242.932C163.427 242.932 163.734 242.63 163.734 242.245C163.734 241.859 163.427 241.557 163.047 241.557ZM160.192 242.859C160.567 242.859 160.88 242.557 160.88 242.172C160.88 241.792 160.578 241.484 160.192 241.484C159.807 241.484 159.505 241.786 159.505 242.172C159.505 242.557 159.812 242.859 160.192 242.859ZM161.682 244.359C162.057 244.359 162.37 244.057 162.37 243.672C162.37 243.286 162.067 242.979 161.682 242.979C161.307 242.979 160.995 243.286 160.995 243.672C160.995 244.057 161.307 244.359 161.682 244.359ZM160.192 244.479C159.812 244.479 159.505 244.786 159.505 245.167C159.505 245.547 159.807 245.859 160.192 245.859C160.578 245.859 160.88 245.552 160.88 245.167C160.87 244.786 160.567 244.479 160.192 244.479ZM161.682 247.339C162.057 247.339 162.37 247.036 162.37 246.651C162.37 246.276 162.067 245.964 161.682 245.964C161.307 245.964 160.995 246.266 160.995 246.651C161 247.036 161.307 247.339 161.682 247.339ZM158.823 244.417C159.203 244.417 159.51 244.115 159.51 243.729C159.51 243.349 159.208 243.047 158.823 243.047C158.437 243.047 158.135 243.349 158.135 243.729C158.135 244.115 158.448 244.417 158.823 244.417ZM163.047 250.266C162.672 250.266 162.359 250.568 162.359 250.953C162.359 251.328 162.661 251.641 163.047 251.641C163.427 251.641 163.734 251.339 163.734 250.953C163.734 250.568 163.427 250.266 163.047 250.266ZM158.823 253.125C159.203 253.125 159.51 252.823 159.51 252.438C159.51 252.057 159.208 251.75 158.823 251.75C158.437 251.75 158.135 252.052 158.135 252.438C158.135 252.823 158.448 253.125 158.823 253.125ZM163.047 247.406C162.672 247.406 162.359 247.708 162.359 248.094C162.359 248.469 162.661 248.781 163.047 248.781C163.427 248.781 163.734 248.479 163.734 248.094C163.734 247.708 163.427 247.406 163.047 247.406ZM160.192 247.339C159.812 247.339 159.505 247.646 159.505 248.026C159.505 248.411 159.807 248.719 160.192 248.719C160.578 248.719 160.88 248.411 160.88 248.026C160.88 247.646 160.567 247.339 160.192 247.339ZM161.682 250.198C162.057 250.198 162.37 249.896 162.37 249.51C162.37 249.135 162.067 248.823 161.682 248.823C161.307 248.823 160.995 249.125 160.995 249.51C161 249.896 161.307 250.198 161.682 250.198ZM160.192 250.333C159.812 250.333 159.505 250.635 159.505 251.021C159.505 251.396 159.807 251.708 160.192 251.708C160.578 251.708 160.88 251.406 160.88 251.021C160.87 250.635 160.567 250.333 160.192 250.333ZM161.682 253.193C162.057 253.193 162.37 252.885 162.37 252.5C162.37 252.115 162.067 251.812 161.682 251.812C161.307 251.812 160.995 252.115 160.995 252.5C160.995 252.885 161.307 253.193 161.682 253.193ZM158.823 250.266C159.203 250.266 159.51 249.964 159.51 249.578C159.51 249.198 159.208 248.891 158.823 248.891C158.437 248.891 158.135 249.193 158.135 249.578C158.135 249.964 158.448 250.266 158.823 250.266ZM163.047 256.115C162.672 256.115 162.359 256.417 162.359 256.802C162.359 257.068 162.515 257.286 162.729 257.401C162.859 257.427 163 257.453 163.13 257.469C163.468 257.417 163.729 257.146 163.729 256.802C163.734 256.417 163.427 256.115 163.047 256.115ZM163.047 253.255C162.672 253.255 162.359 253.557 162.359 253.938C162.359 254.312 162.661 254.625 163.047 254.625C163.427 254.625 163.734 254.323 163.734 253.938C163.734 253.557 163.427 253.255 163.047 253.255ZM160.192 253.193C159.812 253.193 159.505 253.495 159.505 253.88C159.505 254.266 159.807 254.568 160.192 254.568C160.578 254.568 160.88 254.266 160.88 253.88C160.88 253.495 160.567 253.193 160.192 253.193ZM161.682 256.052C162.057 256.052 162.37 255.745 162.37 255.359C162.37 254.984 162.067 254.672 161.682 254.672C161.307 254.672 160.995 254.979 160.995 255.359C161 255.745 161.307 256.052 161.682 256.052ZM160.192 256.172C159.833 256.172 159.552 256.453 159.521 256.797C159.963 256.885 160.396 256.974 160.838 257.057C160.864 256.995 160.88 256.927 160.88 256.854C160.87 256.484 160.567 256.172 160.192 256.172ZM158.823 256.115C159.203 256.115 159.51 255.812 159.51 255.438C159.51 255.057 159.208 254.745 158.823 254.745C158.437 254.745 158.135 255.052 158.135 255.438C158.135 255.802 158.448 256.115 158.823 256.115ZM157.333 244.417C156.958 244.417 156.646 244.719 156.646 245.104C156.646 245.49 156.948 245.792 157.333 245.792C157.718 245.792 158.021 245.49 158.021 245.104C158.021 244.719 157.708 244.417 157.333 244.417ZM153.099 247.281C153.479 247.281 153.786 246.979 153.786 246.594C153.786 246.219 153.484 245.906 153.099 245.906C152.724 245.906 152.411 246.208 152.411 246.594C152.422 246.974 152.724 247.281 153.099 247.281ZM157.333 242.922C157.708 242.922 158.021 242.62 158.021 242.234C158.021 241.964 157.859 241.734 157.63 241.62C157.317 241.75 157.005 241.875 156.692 242C156.672 242.073 156.646 242.146 156.646 242.229C156.646 242.62 156.948 242.922 157.333 242.922ZM154.942 242.672C154.771 242.734 154.599 242.792 154.416 242.859C154.437 242.859 154.453 242.865 154.468 242.865C154.656 242.859 154.817 242.786 154.942 242.672ZM155.968 244.359C156.343 244.359 156.656 244.057 156.656 243.672C156.656 243.286 156.349 242.979 155.968 242.979C155.588 242.979 155.281 243.286 155.281 243.672C155.281 244.057 155.583 244.359 155.968 244.359ZM154.468 245.849C154.843 245.849 155.156 245.547 155.156 245.161C155.156 244.786 154.854 244.474 154.468 244.474C154.093 244.474 153.781 244.776 153.781 245.161C153.786 245.536 154.093 245.849 154.468 245.849ZM155.968 247.339C156.343 247.339 156.656 247.036 156.656 246.651C156.656 246.276 156.349 245.964 155.968 245.964C155.588 245.964 155.281 246.266 155.281 246.651C155.281 247.036 155.583 247.339 155.968 247.339ZM153.099 244.417C153.479 244.417 153.786 244.115 153.786 243.729C153.786 243.49 153.666 243.292 153.484 243.172C153.14 243.286 152.807 243.401 152.468 243.505C152.448 243.578 152.427 243.646 152.427 243.729C152.422 244.115 152.724 244.417 153.099 244.417ZM157.333 250.266C156.958 250.266 156.646 250.568 156.646 250.953C156.646 251.328 156.948 251.641 157.333 251.641C157.718 251.641 158.021 251.339 158.021 250.953C158.015 250.568 157.708 250.266 157.333 250.266ZM153.099 253.125C153.479 253.125 153.786 252.823 153.786 252.438C153.786 252.057 153.484 251.75 153.099 251.75C152.724 251.75 152.411 252.052 152.411 252.438C152.422 252.823 152.724 253.125 153.099 253.125ZM157.333 247.406C156.958 247.406 156.646 247.708 156.646 248.094C156.646 248.469 156.948 248.781 157.333 248.781C157.718 248.781 158.021 248.479 158.021 248.094C158.015 247.708 157.708 247.406 157.333 247.406ZM154.468 247.339C154.093 247.339 153.781 247.646 153.781 248.026C153.781 248.411 154.083 248.719 154.468 248.719C154.843 248.719 155.156 248.411 155.156 248.026C155.156 247.646 154.843 247.339 154.468 247.339ZM155.968 250.198C156.343 250.198 156.656 249.896 156.656 249.51C156.656 249.135 156.349 248.823 155.968 248.823C155.588 248.823 155.281 249.125 155.281 249.51C155.281 249.896 155.583 250.198 155.968 250.198ZM154.468 250.333C154.093 250.333 153.781 250.635 153.781 251.021C153.781 251.396 154.083 251.708 154.468 251.708C154.843 251.708 155.156 251.406 155.156 251.021C155.156 250.635 154.843 250.333 154.468 250.333ZM155.958 253.193C156.333 253.193 156.646 252.885 156.646 252.5C156.646 252.115 156.343 251.812 155.958 251.812C155.583 251.812 155.271 252.115 155.271 252.5C155.271 252.885 155.583 253.193 155.958 253.193ZM153.099 250.266C153.479 250.266 153.786 249.964 153.786 249.578C153.786 249.198 153.484 248.891 153.099 248.891C152.724 248.891 152.411 249.193 152.411 249.578C152.422 249.964 152.724 250.266 153.099 250.266ZM157.333 256.115C157.192 256.115 157.078 256.167 156.974 256.24C157.286 256.312 157.593 256.385 157.916 256.453C157.786 256.255 157.578 256.115 157.333 256.115ZM157.333 253.255C156.958 253.255 156.646 253.557 156.646 253.938C156.646 254.312 156.948 254.625 157.333 254.625C157.718 254.625 158.021 254.323 158.021 253.938C158.015 253.557 157.708 253.255 157.333 253.255ZM154.468 253.193C154.093 253.193 153.781 253.495 153.781 253.88C153.781 254.266 154.083 254.568 154.468 254.568C154.843 254.568 155.156 254.266 155.156 253.88C155.156 253.495 154.843 253.193 154.468 253.193ZM156.114 256.026C156.416 255.958 156.646 255.698 156.646 255.37C156.646 254.995 156.343 254.682 155.958 254.682C155.583 254.682 155.271 254.984 155.271 255.37C155.271 255.568 155.359 255.745 155.489 255.87C155.703 255.917 155.911 255.969 156.114 256.026ZM153.099 254.745C152.864 254.745 152.666 254.88 152.541 255.057C152.963 255.182 153.37 255.297 153.781 255.411C153.771 255.042 153.468 254.745 153.099 254.745ZM151.609 245.781C151.989 245.781 152.297 245.479 152.297 245.094C152.297 244.708 151.995 244.406 151.609 244.406C151.224 244.406 150.922 244.708 150.922 245.094C150.922 245.479 151.234 245.781 151.609 245.781ZM147.385 247.281C147.76 247.281 148.067 246.979 148.067 246.594C148.067 246.219 147.76 245.906 147.385 245.906C147.01 245.906 146.698 246.208 146.698 246.594C146.698 246.974 147 247.281 147.385 247.281ZM150.823 244.005C150.521 244.094 150.218 244.177 149.916 244.26C150.015 244.318 150.12 244.359 150.245 244.359C150.495 244.359 150.708 244.208 150.823 244.005ZM148.755 245.849C149.13 245.849 149.442 245.547 149.442 245.161C149.442 244.849 149.229 244.594 148.948 244.516C148.718 244.573 148.5 244.63 148.271 244.688C148.146 244.807 148.073 244.979 148.073 245.161C148.067 245.536 148.375 245.849 148.755 245.849ZM150.245 247.339C150.62 247.339 150.932 247.036 150.932 246.651C150.932 246.276 150.63 245.964 150.245 245.964C149.864 245.964 149.562 246.266 149.562 246.651C149.557 247.036 149.864 247.339 150.245 247.339ZM151.609 250.266C151.234 250.266 150.922 250.568 150.922 250.953C150.922 251.328 151.224 251.641 151.609 251.641C151.995 251.641 152.297 251.339 152.297 250.953C152.291 250.568 151.989 250.266 151.609 250.266ZM147.385 253.125C147.76 253.125 148.067 252.823 148.067 252.438C148.067 252.057 147.76 251.75 147.385 251.75C147.01 251.75 146.698 252.052 146.698 252.438C146.698 252.823 147 253.125 147.385 253.125ZM151.609 247.406C151.234 247.406 150.922 247.708 150.922 248.094C150.922 248.469 151.224 248.781 151.609 248.781C151.995 248.781 152.297 248.479 152.297 248.094C152.291 247.708 151.989 247.406 151.609 247.406ZM148.755 247.339C148.375 247.339 148.067 247.646 148.067 248.026C148.067 248.411 148.37 248.719 148.755 248.719C149.13 248.719 149.442 248.411 149.442 248.026C149.442 247.646 149.13 247.339 148.755 247.339ZM150.245 250.198C150.62 250.198 150.932 249.896 150.932 249.51C150.932 249.135 150.63 248.823 150.245 248.823C149.864 248.823 149.562 249.125 149.562 249.51C149.557 249.896 149.864 250.198 150.245 250.198ZM148.755 250.333C148.375 250.333 148.067 250.635 148.067 251.021C148.067 251.396 148.37 251.708 148.755 251.708C149.13 251.708 149.442 251.406 149.442 251.021C149.432 250.635 149.13 250.333 148.755 250.333ZM150.245 253.193C150.62 253.193 150.932 252.885 150.932 252.5C150.932 252.115 150.63 251.812 150.245 251.812C149.864 251.812 149.562 252.115 149.562 252.5C149.562 252.885 149.864 253.193 150.245 253.193ZM147.385 250.266C147.76 250.266 148.067 249.964 148.067 249.578C148.067 249.198 147.76 248.891 147.385 248.891C147.01 248.891 146.698 249.193 146.698 249.578C146.698 249.964 147 250.266 147.385 250.266ZM151.609 253.255C151.234 253.255 150.922 253.557 150.922 253.938C150.922 254.312 151.224 254.625 151.609 254.625C151.995 254.625 152.297 254.323 152.297 253.938C152.291 253.557 151.989 253.255 151.609 253.255ZM148.755 253.193C148.448 253.193 148.203 253.385 148.114 253.667C148.541 253.812 148.974 253.953 149.401 254.094C149.422 254.026 149.442 253.953 149.442 253.88C149.432 253.495 149.13 253.193 148.755 253.193ZM145.885 245.781C146.265 245.781 146.573 245.479 146.573 245.094C146.573 245.089 146.567 245.078 146.567 245.073C146.125 245.167 145.692 245.26 145.255 245.339C145.354 245.604 145.599 245.781 145.885 245.781ZM141.661 247.281C142.041 247.281 142.343 246.979 142.343 246.594C142.343 246.276 142.114 246.01 141.817 245.938C141.656 245.964 141.489 245.99 141.328 246.005C141.12 246.12 140.974 246.333 140.974 246.589C140.974 246.974 141.286 247.281 141.661 247.281ZM143.453 245.688C143.224 245.724 142.995 245.76 142.765 245.802C142.849 245.833 142.937 245.849 143.031 245.849C143.192 245.849 143.338 245.781 143.453 245.688ZM144.521 247.339C144.896 247.339 145.208 247.036 145.208 246.651C145.208 246.276 144.906 245.964 144.521 245.964C144.146 245.964 143.838 246.266 143.838 246.651C143.838 247.036 144.146 247.339 144.521 247.339ZM145.885 250.266C145.51 250.266 145.198 250.568 145.198 250.953C145.198 251.328 145.5 251.641 145.885 251.641C146.265 251.641 146.573 251.339 146.573 250.953C146.573 250.568 146.265 250.266 145.885 250.266ZM145.885 247.406C145.51 247.406 145.198 247.708 145.198 248.094C145.198 248.469 145.5 248.781 145.885 248.781C146.265 248.781 146.573 248.479 146.573 248.094C146.573 247.708 146.265 247.406 145.885 247.406ZM143.031 248.708C143.406 248.708 143.718 248.406 143.718 248.021C143.718 247.635 143.416 247.333 143.031 247.333C142.651 247.333 142.343 247.635 142.343 248.021C142.343 248.406 142.651 248.708 143.031 248.708ZM144.521 250.198C144.896 250.198 145.208 249.896 145.208 249.51C145.208 249.135 144.906 248.823 144.521 248.823C144.146 248.823 143.838 249.125 143.838 249.51C143.838 249.896 144.146 250.198 144.521 250.198ZM143.031 250.333C142.651 250.333 142.343 250.635 142.343 251.021C142.343 251.396 142.646 251.708 143.031 251.708C143.406 251.708 143.718 251.406 143.718 251.021C143.718 250.635 143.406 250.333 143.031 250.333ZM144.521 251.823C144.265 251.823 144.052 251.969 143.937 252.172C144.354 252.328 144.765 252.484 145.182 252.641C145.192 252.599 145.208 252.557 145.208 252.51C145.208 252.125 144.896 251.823 144.521 251.823ZM141.661 250.266C142.041 250.266 142.343 249.964 142.343 249.578C142.343 249.198 142.041 248.891 141.661 248.891C141.286 248.891 140.974 249.193 140.974 249.578C140.974 249.964 141.286 250.266 141.661 250.266ZM135.937 247.281C136.317 247.281 136.625 246.979 136.625 246.594C136.625 246.563 136.609 246.536 136.609 246.505C136.151 246.536 135.703 246.562 135.26 246.589C135.26 246.594 135.26 246.594 135.26 246.594C135.26 246.974 135.562 247.281 135.937 247.281ZM138.807 247.339C139.182 247.339 139.495 247.036 139.495 246.651C139.495 246.495 139.437 246.365 139.354 246.25C138.958 246.292 138.578 246.333 138.192 246.365C138.151 246.453 138.125 246.547 138.125 246.646C138.114 247.036 138.422 247.339 138.807 247.339ZM140.172 250.266C139.974 250.266 139.802 250.349 139.682 250.479C140.073 250.641 140.468 250.807 140.854 250.964C140.854 250.953 140.854 250.953 140.854 250.948C140.854 250.568 140.547 250.266 140.172 250.266ZM140.172 248.776C140.547 248.776 140.859 248.469 140.859 248.083C140.859 247.708 140.557 247.396 140.172 247.396C139.797 247.396 139.495 247.703 139.495 248.083C139.484 248.464 139.797 248.776 140.172 248.776ZM137.307 248.708C137.682 248.708 137.995 248.406 137.995 248.021C137.995 247.635 137.692 247.333 137.307 247.333C136.932 247.333 136.62 247.635 136.62 248.021C136.62 248.406 136.932 248.708 137.307 248.708ZM138.953 250.177C139.255 250.099 139.484 249.849 139.484 249.521C139.484 249.141 139.182 248.833 138.797 248.833C138.422 248.833 138.109 249.135 138.109 249.521C138.109 249.651 138.156 249.766 138.213 249.865C138.468 249.969 138.708 250.068 138.953 250.177ZM133.083 247.339C133.458 247.339 133.771 247.036 133.771 246.651C133.771 246.646 133.771 246.646 133.771 246.635C133.302 246.651 132.843 246.661 132.411 246.661C132.411 247.036 132.703 247.339 133.083 247.339ZM135.135 248.083C135.135 247.708 134.833 247.396 134.448 247.396C134.135 247.396 133.89 247.604 133.802 247.88C134.213 248.068 134.614 248.25 135.015 248.438C135.088 248.339 135.135 248.224 135.135 248.083Z" fill="#4B2012"/>
</svg>
