<svg width="260" height="260" viewBox="0 0 260 260" fill="none" xmlns="http://www.w3.org/2000/svg">
<g clip-path="url(#clip0_233_315)">
<path d="M187.317 31.0024L184.626 35.6599" stroke="#748C56" stroke-width="3" stroke-miterlimit="10"/>
<path d="M72.6313 229.647L75.5913 224.502" stroke="#748C56" stroke-width="3" stroke-miterlimit="10"/>
<path d="M229.294 72.9736L224.558 75.7355" stroke="#748C56" stroke-width="3" stroke-miterlimit="10"/>
<path d="M30.6538 187.676L35.7126 184.752" stroke="#748C56" stroke-width="3" stroke-miterlimit="10"/>
<path d="M242.425 130.325H244.685" stroke="#748C56" stroke-width="3" stroke-miterlimit="10"/>
<path d="M17.523 130.325H15.2627" stroke="#748C56" stroke-width="3" stroke-miterlimit="10"/>
<path d="M224.289 184.752L229.294 187.676" stroke="#748C56" stroke-width="3" stroke-miterlimit="10"/>
<path d="M35.3897 75.7355L30.6538 72.9736" stroke="#748C56" stroke-width="3" stroke-miterlimit="10"/>
<path d="M187.316 229.647L184.356 224.502" stroke="#748C56" stroke-width="3" stroke-miterlimit="10"/>
<path d="M72.6313 31.0024L75.3222 35.6599" stroke="#748C56" stroke-width="3" stroke-miterlimit="10"/>
<path d="M130 15.6763V17.8967" stroke="#748C56" stroke-width="3" stroke-miterlimit="10"/>
<path d="M130 245.028V242.753" stroke="#748C56" stroke-width="3" stroke-miterlimit="10"/>
<path d="M124.081 242.591L124.296 238.854" stroke="#748C56" stroke-width="3" stroke-miterlimit="10"/>
<path d="M135.867 18.0591L135.706 21.146" stroke="#748C56" stroke-width="3" stroke-miterlimit="10"/>
<path d="M141.733 18.4922L141.41 21.5791" stroke="#748C56" stroke-width="3" stroke-miterlimit="10"/>
<path d="M118.214 242.157L118.591 238.421" stroke="#748C56" stroke-width="3" stroke-miterlimit="10"/>
<path d="M112.403 241.399L112.995 237.663" stroke="#748C56" stroke-width="3" stroke-miterlimit="10"/>
<path d="M147.545 19.3047L147.061 22.3374" stroke="#748C56" stroke-width="3" stroke-miterlimit="10"/>
<path d="M106.59 240.316L107.397 236.634" stroke="#748C56" stroke-width="3" stroke-miterlimit="10"/>
<path d="M153.358 20.3335L152.712 23.3663" stroke="#748C56" stroke-width="3" stroke-miterlimit="10"/>
<path d="M100.886 238.962L101.854 235.334" stroke="#748C56" stroke-width="3" stroke-miterlimit="10"/>
<path d="M159.062 21.7417L158.309 24.7203" stroke="#748C56" stroke-width="3" stroke-miterlimit="10"/>
<path d="M163.798 26.3453L164.713 23.4209" stroke="#748C56" stroke-width="3" stroke-miterlimit="10"/>
<path d="M96.365 233.709L95.2349 237.283" stroke="#748C56" stroke-width="3" stroke-miterlimit="10"/>
<path d="M89.6914 235.28L90.983 231.814" stroke="#748C56" stroke-width="3" stroke-miterlimit="10"/>
<path d="M170.257 25.3701L169.18 28.2404" stroke="#748C56" stroke-width="3" stroke-miterlimit="10"/>
<path d="M175.746 27.645L174.454 30.4611" stroke="#748C56" stroke-width="3" stroke-miterlimit="10"/>
<path d="M84.2563 233.059L85.7632 229.647" stroke="#748C56" stroke-width="3" stroke-miterlimit="10"/>
<path d="M78.9277 230.514L80.5961 227.21" stroke="#748C56" stroke-width="3" stroke-miterlimit="10"/>
<path d="M181.02 30.1362L179.621 32.9524" stroke="#748C56" stroke-width="3" stroke-miterlimit="10"/>
<path d="M73.7612 227.698L75.591 224.502" stroke="#748C56" stroke-width="3" stroke-miterlimit="10"/>
<path d="M186.187 32.9517L184.626 35.6595" stroke="#748C56" stroke-width="3" stroke-miterlimit="10"/>
<path d="M189.523 38.6923L191.245 36.0386" stroke="#748C56" stroke-width="3" stroke-miterlimit="10"/>
<path d="M70.7477 221.524L68.7026 224.611" stroke="#748C56" stroke-width="3" stroke-miterlimit="10"/>
<path d="M63.8589 221.307L66.0654 218.329" stroke="#748C56" stroke-width="3" stroke-miterlimit="10"/>
<path d="M196.089 39.397L194.205 41.9423" stroke="#748C56" stroke-width="3" stroke-miterlimit="10"/>
<path d="M200.771 42.9712L198.726 45.4082" stroke="#748C56" stroke-width="3" stroke-miterlimit="10"/>
<path d="M59.231 217.733L61.5451 214.863" stroke="#748C56" stroke-width="3" stroke-miterlimit="10"/>
<path d="M54.7104 213.888L57.1861 211.126" stroke="#748C56" stroke-width="3" stroke-miterlimit="10"/>
<path d="M205.238 46.7622L203.085 49.145" stroke="#748C56" stroke-width="3" stroke-miterlimit="10"/>
<path d="M46.4224 205.548L49.1132 203.111" stroke="#748C56" stroke-width="3" stroke-miterlimit="10"/>
<path d="M213.525 55.1021L211.157 57.2682" stroke="#748C56" stroke-width="3" stroke-miterlimit="10"/>
<path d="M214.87 61.6005L217.4 59.5967" stroke="#748C56" stroke-width="3" stroke-miterlimit="10"/>
<path d="M42.6011 201.107L45.3996 198.778" stroke="#748C56" stroke-width="3" stroke-miterlimit="10"/>
<path d="M41.9565 194.283L38.9966 196.395" stroke="#748C56" stroke-width="3" stroke-miterlimit="10"/>
<path d="M220.951 64.2544L218.314 66.1499" stroke="#748C56" stroke-width="3" stroke-miterlimit="10"/>
<path d="M35.6587 191.576L38.6725 189.626" stroke="#748C56" stroke-width="3" stroke-miterlimit="10"/>
<path d="M224.289 69.0747L221.598 70.8618" stroke="#748C56" stroke-width="3" stroke-miterlimit="10"/>
<path d="M32.5918 186.539L35.7132 184.752" stroke="#748C56" stroke-width="3" stroke-miterlimit="10"/>
<path d="M227.356 74.1108L224.558 75.7355" stroke="#748C56" stroke-width="3" stroke-miterlimit="10"/>
<path d="M29.7925 181.394L32.9677 179.77" stroke="#748C56" stroke-width="3" stroke-miterlimit="10"/>
<path d="M230.155 79.3096L227.249 80.7718" stroke="#748C56" stroke-width="3" stroke-miterlimit="10"/>
<path d="M232.738 84.6172L229.724 85.9169" stroke="#748C56" stroke-width="3" stroke-miterlimit="10"/>
<path d="M27.2637 176.087L30.4927 174.625" stroke="#748C56" stroke-width="3" stroke-miterlimit="10"/>
<path d="M25.0034 170.617L28.2863 169.372" stroke="#748C56" stroke-width="3" stroke-miterlimit="10"/>
<path d="M234.944 90.0327L231.876 91.2242" stroke="#748C56" stroke-width="3" stroke-miterlimit="10"/>
<path d="M236.935 95.6108L233.76 96.6398" stroke="#748C56" stroke-width="3" stroke-miterlimit="10"/>
<path d="M23.0127 165.093L26.3494 164.01" stroke="#748C56" stroke-width="3" stroke-miterlimit="10"/>
<path d="M21.3438 159.461L24.7341 158.54" stroke="#748C56" stroke-width="3" stroke-miterlimit="10"/>
<path d="M238.605 101.243L235.375 102.11" stroke="#748C56" stroke-width="3" stroke-miterlimit="10"/>
<path d="M23.3885 152.962L19.998 153.721" stroke="#748C56" stroke-width="3" stroke-miterlimit="10"/>
<path d="M240.003 106.983L236.72 107.633" stroke="#748C56" stroke-width="3" stroke-miterlimit="10"/>
<path d="M22.3124 147.384L18.9219 147.926" stroke="#748C56" stroke-width="3" stroke-miterlimit="10"/>
<path d="M241.026 112.724L237.743 113.266" stroke="#748C56" stroke-width="3" stroke-miterlimit="10"/>
<path d="M241.833 118.573L238.442 118.952" stroke="#748C56" stroke-width="3" stroke-miterlimit="10"/>
<path d="M21.5586 141.752L18.1143 142.077" stroke="#748C56" stroke-width="3" stroke-miterlimit="10"/>
<path d="M242.264 124.476L238.874 124.638" stroke="#748C56" stroke-width="3" stroke-miterlimit="10"/>
<path d="M21.1284 136.065L17.6841 136.227" stroke="#748C56" stroke-width="3" stroke-miterlimit="10"/>
<path d="M242.426 130.325H238.981" stroke="#748C56" stroke-width="3" stroke-miterlimit="10"/>
<path d="M20.9674 130.325H17.5229" stroke="#748C56" stroke-width="3" stroke-miterlimit="10"/>
<path d="M17.6841 124.476L21.0746 124.638" stroke="#748C56" stroke-width="3" stroke-miterlimit="10"/>
<path d="M242.264 136.227L238.82 136.065" stroke="#748C56" stroke-width="3" stroke-miterlimit="10"/>
<path d="M21.5047 118.952L18.1143 118.573" stroke="#748C56" stroke-width="3" stroke-miterlimit="10"/>
<path d="M238.389 141.752L241.833 142.077" stroke="#748C56" stroke-width="3" stroke-miterlimit="10"/>
<path d="M18.9219 112.724L22.2047 113.266" stroke="#748C56" stroke-width="3" stroke-miterlimit="10"/>
<path d="M241.026 147.926L237.636 147.384" stroke="#748C56" stroke-width="3" stroke-miterlimit="10"/>
<path d="M23.2271 107.633L19.998 106.983" stroke="#748C56" stroke-width="3" stroke-miterlimit="10"/>
<path d="M236.559 152.962L240.003 153.721" stroke="#748C56" stroke-width="3" stroke-miterlimit="10"/>
<path d="M238.604 159.461L235.214 158.54" stroke="#748C56" stroke-width="3" stroke-miterlimit="10"/>
<path d="M21.3438 101.243L24.5728 102.11" stroke="#748C56" stroke-width="3" stroke-miterlimit="10"/>
<path d="M26.1879 96.6398L23.0127 95.6108" stroke="#748C56" stroke-width="3" stroke-miterlimit="10"/>
<path d="M233.599 164.01L236.935 165.093" stroke="#748C56" stroke-width="3" stroke-miterlimit="10"/>
<path d="M234.944 170.617L231.661 169.372" stroke="#748C56" stroke-width="3" stroke-miterlimit="10"/>
<path d="M25.0034 90.0327L28.071 91.2242" stroke="#748C56" stroke-width="3" stroke-miterlimit="10"/>
<path d="M30.2236 85.9169L27.2637 84.6172" stroke="#748C56" stroke-width="3" stroke-miterlimit="10"/>
<path d="M229.456 174.625L232.738 176.087" stroke="#748C56" stroke-width="3" stroke-miterlimit="10"/>
<path d="M29.7925 79.3096L32.6986 80.7718" stroke="#748C56" stroke-width="3" stroke-miterlimit="10"/>
<path d="M230.154 181.394L226.979 179.77" stroke="#748C56" stroke-width="3" stroke-miterlimit="10"/>
<path d="M227.356 186.539L224.289 184.752" stroke="#748C56" stroke-width="3" stroke-miterlimit="10"/>
<path d="M32.5918 74.1108L35.3903 75.7355" stroke="#748C56" stroke-width="3" stroke-miterlimit="10"/>
<path d="M221.274 189.626L224.288 191.576" stroke="#748C56" stroke-width="3" stroke-miterlimit="10"/>
<path d="M35.6587 69.0747L38.4034 70.8618" stroke="#748C56" stroke-width="3" stroke-miterlimit="10"/>
<path d="M38.9966 64.2544L41.6336 66.1499" stroke="#748C56" stroke-width="3" stroke-miterlimit="10"/>
<path d="M220.952 196.395L218.046 194.283" stroke="#748C56" stroke-width="3" stroke-miterlimit="10"/>
<path d="M214.548 198.778L217.4 201.107" stroke="#748C56" stroke-width="3" stroke-miterlimit="10"/>
<path d="M45.0767 61.6005L42.6011 59.5967" stroke="#748C56" stroke-width="3" stroke-miterlimit="10"/>
<path d="M46.4224 55.1021L48.7903 57.2682" stroke="#748C56" stroke-width="3" stroke-miterlimit="10"/>
<path d="M213.525 205.548L210.834 203.111" stroke="#748C56" stroke-width="3" stroke-miterlimit="10"/>
<path d="M205.237 213.888L202.762 211.126" stroke="#748C56" stroke-width="3" stroke-miterlimit="10"/>
<path d="M54.7104 46.7622L56.8631 49.145" stroke="#748C56" stroke-width="3" stroke-miterlimit="10"/>
<path d="M200.771 217.733L198.403 214.863" stroke="#748C56" stroke-width="3" stroke-miterlimit="10"/>
<path d="M59.231 42.9712L61.2222 45.4082" stroke="#748C56" stroke-width="3" stroke-miterlimit="10"/>
<path d="M196.089 221.307L193.882 218.329" stroke="#748C56" stroke-width="3" stroke-miterlimit="10"/>
<path d="M63.8589 39.397L65.7425 41.9423" stroke="#748C56" stroke-width="3" stroke-miterlimit="10"/>
<path d="M191.245 224.611L189.2 221.524" stroke="#748C56" stroke-width="3" stroke-miterlimit="10"/>
<path d="M68.7026 36.0386L70.4248 38.6923" stroke="#748C56" stroke-width="3" stroke-miterlimit="10"/>
<path d="M73.7612 32.9517L75.3219 35.6595" stroke="#748C56" stroke-width="3" stroke-miterlimit="10"/>
<path d="M186.186 227.698L184.356 224.502" stroke="#748C56" stroke-width="3" stroke-miterlimit="10"/>
<path d="M78.9277 30.1362L80.327 32.9524" stroke="#748C56" stroke-width="3" stroke-miterlimit="10"/>
<path d="M181.019 230.514L179.351 227.21" stroke="#748C56" stroke-width="3" stroke-miterlimit="10"/>
<path d="M175.745 233.059L174.184 229.647" stroke="#748C56" stroke-width="3" stroke-miterlimit="10"/>
<path d="M84.2563 27.645L85.4942 30.4611" stroke="#748C56" stroke-width="3" stroke-miterlimit="10"/>
<path d="M89.6914 25.3701L90.7677 28.2404" stroke="#748C56" stroke-width="3" stroke-miterlimit="10"/>
<path d="M170.256 235.28L168.965 231.814" stroke="#748C56" stroke-width="3" stroke-miterlimit="10"/>
<path d="M164.713 237.283L163.583 233.709" stroke="#748C56" stroke-width="3" stroke-miterlimit="10"/>
<path d="M95.2349 23.4209L96.2036 26.3453" stroke="#748C56" stroke-width="3" stroke-miterlimit="10"/>
<path d="M100.886 21.7417L101.693 24.7203" stroke="#748C56" stroke-width="3" stroke-miterlimit="10"/>
<path d="M159.062 238.962L158.094 235.334" stroke="#748C56" stroke-width="3" stroke-miterlimit="10"/>
<path d="M153.357 240.316L152.604 236.634" stroke="#748C56" stroke-width="3" stroke-miterlimit="10"/>
<path d="M106.59 20.3335L107.236 23.3663" stroke="#748C56" stroke-width="3" stroke-miterlimit="10"/>
<path d="M112.403 19.3047L112.887 22.3374" stroke="#748C56" stroke-width="3" stroke-miterlimit="10"/>
<path d="M147.545 241.399L147.007 237.663" stroke="#748C56" stroke-width="3" stroke-miterlimit="10"/>
<path d="M118.214 18.4922L118.537 21.5791" stroke="#748C56" stroke-width="3" stroke-miterlimit="10"/>
<path d="M141.732 242.157L141.355 238.421" stroke="#748C56" stroke-width="3" stroke-miterlimit="10"/>
<path d="M135.866 242.591L135.651 238.854" stroke="#748C56" stroke-width="3" stroke-miterlimit="10"/>
<path d="M124.081 18.0591L124.242 21.146" stroke="#748C56" stroke-width="3" stroke-miterlimit="10"/>
<path d="M130 17.8965V20.9834" stroke="#748C56" stroke-width="3" stroke-miterlimit="10"/>
<path d="M130 242.753V239.016" stroke="#748C56" stroke-width="3" stroke-miterlimit="10"/>
<path d="M96.5269 255.209L101.855 235.334" stroke="#748C56" stroke-width="3" stroke-miterlimit="10"/>
<path d="M163.475 5.44043L158.309 24.7201" stroke="#748C56" stroke-width="3" stroke-miterlimit="10"/>
<path d="M221.437 38.9092L209.489 50.8235" stroke="#748C56" stroke-width="3" stroke-miterlimit="10"/>
<path d="M50.4591 209.826L38.5117 221.741" stroke="#748C56" stroke-width="3" stroke-miterlimit="10"/>
<path d="M50.4585 209.826L53.0417 207.227" stroke="#748C56" stroke-width="3" stroke-miterlimit="10"/>
<path d="M209.489 50.8237L207.229 53.0983" stroke="#748C56" stroke-width="3" stroke-miterlimit="10"/>
<path d="M254.911 96.8564L235.375 102.109" stroke="#748C56" stroke-width="3" stroke-miterlimit="10"/>
<path d="M5.03711 163.793L24.7342 158.54" stroke="#748C56" stroke-width="3" stroke-miterlimit="10"/>
<path d="M254.911 163.793L235.214 158.54" stroke="#748C56" stroke-width="3" stroke-miterlimit="10"/>
<path d="M24.5728 102.109L5.03711 96.8564" stroke="#748C56" stroke-width="3" stroke-miterlimit="10"/>
<path d="M221.437 221.741L209.489 209.826" stroke="#748C56" stroke-width="3" stroke-miterlimit="10"/>
<path d="M38.5117 38.9092L50.4591 50.8235" stroke="#748C56" stroke-width="3" stroke-miterlimit="10"/>
<path d="M209.489 209.826L206.906 207.227" stroke="#748C56" stroke-width="3" stroke-miterlimit="10"/>
<path d="M50.4585 50.8237L52.7188 53.0983" stroke="#748C56" stroke-width="3" stroke-miterlimit="10"/>
<path d="M96.5269 5.44043L101.693 24.7201" stroke="#748C56" stroke-width="3" stroke-miterlimit="10"/>
<path d="M163.475 255.209L158.094 235.334" stroke="#748C56" stroke-width="3" stroke-miterlimit="10"/>
<path d="M130 259C201.245 259 259 201.245 259 130C259 58.7553 201.245 1 130 1C58.7553 1 1 58.7553 1 130C1 201.245 58.7553 259 130 259Z" stroke="#748C56" stroke-width="3" stroke-miterlimit="10"/>
</g>
<defs>
<clipPath id="clip0_233_315">
<rect width="260" height="260" fill="white"/>
</clipPath>
</defs>
</svg>
