<svg width="26" height="22" viewBox="0 0 26 22" fill="none" xmlns="http://www.w3.org/2000/svg">
<g filter="url(#filter0_d_524_5)">
<path d="M15.9971 8.6333L20.8833 3.74707C21.4829 3.14746 21.4829 2.17529 20.8833 1.5752L19.7974 0.489258C19.1978 -0.110352 18.2256 -0.110352 17.6255 0.489258L12.7393 5.37549L7.85303 0.489258C7.25342 -0.110352 6.28125 -0.110352 5.68115 0.489258L4.59521 1.5752C3.99561 2.1748 3.99561 3.14697 4.59521 3.74707L9.48145 8.6333L4.59521 13.5195C3.99561 14.1191 3.99561 15.0913 4.59521 15.6914L5.68115 16.7773C6.28076 17.377 7.25342 17.377 7.85303 16.7773L12.7393 11.8911L17.6255 16.7773C18.2251 17.377 19.1978 17.377 19.7974 16.7773L20.8833 15.6914C21.4829 15.0918 21.4829 14.1196 20.8833 13.5195L15.9971 8.6333Z" fill="#454D66"/>
</g>
</svg>
