<svg width="26" height="19" viewBox="0 0 26 19" fill="none" xmlns="http://www.w3.org/2000/svg">
<path d="M25.0264 6.31641C25.2168 6.16504 25.5 6.30664 25.5 6.5459V16.5312C25.5 17.8252 24.4502 18.875 23.1562 18.875H2.84375C1.5498 18.875 0.5 17.8252 0.5 16.5312V6.55078C0.5 6.30664 0.77832 6.16992 0.973633 6.32129C2.06738 7.1709 3.51758 8.25 8.49805 11.8682C9.52832 12.6201 11.2666 14.2021 13 14.1924C14.7432 14.207 16.5156 12.5908 17.5068 11.8682C22.4873 8.25 23.9326 7.16602 25.0264 6.31641ZM13 12.625C14.1328 12.6445 15.7637 11.1992 16.584 10.6035C23.0635 5.90137 23.5566 5.49121 25.0508 4.31934C25.334 4.09961 25.5 3.75781 25.5 3.39648V2.46875C25.5 1.1748 24.4502 0.125 23.1562 0.125H2.84375C1.5498 0.125 0.5 1.1748 0.5 2.46875V3.39648C0.5 3.75781 0.666016 4.09473 0.949219 4.31934C2.44336 5.48633 2.93652 5.90137 9.41602 10.6035C10.2363 11.1992 11.8672 12.6445 13 12.625Z" fill="#748C56"/>
</svg>
