<svg width="16" height="14" viewBox="0 0 16 14" fill="none" xmlns="http://www.w3.org/2000/svg">
<path d="M8.70665 0.500001C8.51913 0.31253 8.26482 0.207214 7.99966 0.207214C7.73449 0.207214 7.48018 0.31253 7.29266 0.500001L0.645655 7.146C0.599167 7.19249 0.562291 7.24768 0.537132 7.30842C0.511973 7.36916 0.499023 7.43426 0.499023 7.5C0.499023 7.56574 0.511973 7.63085 0.537132 7.69158C0.562291 7.75232 0.599167 7.80751 0.645655 7.854C0.739542 7.94789 0.866879 8.00063 0.999655 8.00063C1.0654 8.00063 1.1305 7.98768 1.19124 7.96252C1.25198 7.93737 1.30717 7.90049 1.35365 7.854L7.99966 1.207L14.6457 7.854C14.7395 7.94789 14.8669 8.00063 14.9997 8.00063C15.1324 8.00063 15.2598 7.94789 15.3537 7.854C15.4475 7.76011 15.5003 7.63278 15.5003 7.5C15.5003 7.36723 15.4475 7.23989 15.3537 7.146L12.9997 4.793V1.5C12.9997 1.36739 12.947 1.24022 12.8532 1.14645C12.7594 1.05268 12.6323 1 12.4997 1H11.4997C11.367 1 11.2399 1.05268 11.1461 1.14645C11.0523 1.24022 10.9997 1.36739 10.9997 1.5V2.793L8.70665 0.500001Z" fill="black"/>
<path d="M8 2.29303L14 8.29303V12.5C14 12.8979 13.842 13.2794 13.5607 13.5607C13.2794 13.842 12.8978 14 12.5 14H3.5C3.10218 14 2.72064 13.842 2.43934 13.5607C2.15804 13.2794 2 12.8979 2 12.5V8.29303L8 2.29303Z" fill="black"/>
</svg>
