<svg width="26" height="29" viewBox="0 0 26 29" fill="none" xmlns="http://www.w3.org/2000/svg">
<path d="M22.8214 12.7144H21.4821V8.6965C21.4821 4.02016 17.6763 0.214355 13 0.214355C8.32366 0.214355 4.51786 4.02016 4.51786 8.6965V12.7144H3.17857C1.69978 12.7144 0.5 13.9141 0.5 15.3929V26.1072C0.5 27.586 1.69978 28.7858 3.17857 28.7858H22.8214C24.3002 28.7858 25.5 27.586 25.5 26.1072V15.3929C25.5 13.9141 24.3002 12.7144 22.8214 12.7144ZM17.0179 12.7144H8.98214V8.6965C8.98214 6.4811 10.7846 4.67864 13 4.67864C15.2154 4.67864 17.0179 6.4811 17.0179 8.6965V12.7144Z" fill="#748C56"/>
</svg>
