<svg width="18" height="18" viewBox="0 0 18 18" fill="none" xmlns="http://www.w3.org/2000/svg">
<path d="M9 13C8.45 13 7.97933 12.8043 7.588 12.413C7.19667 12.0217 7.00067 11.5507 7 11C6.99933 10.4493 7.19533 9.97867 7.588 9.588C7.98067 9.19733 8.45133 9.00133 9 9C9.54867 8.99867 10.0197 9.19467 10.413 9.588C10.8063 9.98133 11.002 10.452 11 11C10.998 11.548 10.8023 12.019 10.413 12.413C10.0237 12.807 9.55267 13.0027 9 13ZM4.375 4H13.625L15.625 0H2.375L4.375 4ZM5.4 18H12.6C14.1 18 15.375 17.4793 16.425 16.438C17.475 15.3967 18 14.1173 18 12.6C18 11.9667 17.8917 11.35 17.675 10.75C17.4583 10.15 17.15 9.60833 16.75 9.125L14.15 6H3.85L1.25 9.125C0.85 9.60833 0.541667 10.15 0.325 10.75C0.108333 11.35 0 11.9667 0 12.6C0 14.1167 0.521 15.396 1.563 16.438C2.605 17.48 3.884 18.0007 5.4 18Z" fill="black"/>
</svg>
