<svg width="25" height="25" viewBox="0 0 25 25" fill="none" xmlns="http://www.w3.org/2000/svg">
<path d="M10.4694 2.10751L11.6895 0.887451C12.2061 0.37085 13.0414 0.37085 13.5526 0.887451L24.2363 11.5657C24.7529 12.0823 24.7529 12.9177 24.2363 13.4288L13.5526 24.1125C13.036 24.6292 12.2006 24.6292 11.6895 24.1125L10.4694 22.8925C9.94733 22.3704 9.95832 21.5185 10.4914 21.0074L17.1138 14.6983H1.31898C0.588047 14.6983 0 14.1103 0 13.3793V11.6207C0 10.8897 0.588047 10.3017 1.31898 10.3017H17.1138L10.4914 3.99256C9.95283 3.48145 9.94184 2.62961 10.4694 2.10751Z" fill="white"/>
</svg>
