<svg width="26" height="25" viewBox="0 0 26 25" fill="none" xmlns="http://www.w3.org/2000/svg">
<path d="M13 14.0625C16.8818 14.0625 20.0312 10.9131 20.0312 7.03125C20.0312 3.14941 16.8818 0 13 0C9.11816 0 5.96875 3.14941 5.96875 7.03125C5.96875 10.9131 9.11816 14.0625 13 14.0625ZM19.25 15.625H16.5596C15.4756 16.123 14.2695 16.4062 13 16.4062C11.7305 16.4062 10.5293 16.123 9.44043 15.625H6.75C3.29785 15.625 0.5 18.4229 0.5 21.875V22.6562C0.5 23.9502 1.5498 25 2.84375 25H23.1562C24.4502 25 25.5 23.9502 25.5 22.6562V21.875C25.5 18.4229 22.7021 15.625 19.25 15.625Z" fill="#748C56"/>
</svg>
